<svg width="296" height="57" viewBox="0 0 296 57" fill="none" xmlns="http://www.w3.org/2000/svg">
<path d="M10.704 22.28C9.21067 22.28 7.82 22.0373 6.532 21.552C5.26267 21.048 4.152 20.348 3.2 19.452C2.26667 18.5373 1.53867 17.464 1.016 16.232C0.493333 15 0.232 13.656 0.232 12.2C0.232 10.744 0.493333 9.4 1.016 8.168C1.53867 6.936 2.276 5.872 3.228 4.976C4.18 4.06133 5.29067 3.36133 6.56 2.876C7.82933 2.372 9.22 2.12 10.732 2.12C12.3373 2.12 13.8027 2.4 15.128 2.96C16.4533 3.50133 17.5733 4.31333 18.488 5.396L16.136 7.608C15.4267 6.84267 14.6333 6.27333 13.756 5.9C12.8787 5.508 11.9267 5.312 10.9 5.312C9.87333 5.312 8.93067 5.48 8.072 5.816C7.232 6.152 6.49467 6.628 5.86 7.244C5.244 7.86 4.75867 8.588 4.404 9.428C4.068 10.268 3.9 11.192 3.9 12.2C3.9 13.208 4.068 14.132 4.404 14.972C4.75867 15.812 5.244 16.54 5.86 17.156C6.49467 17.772 7.232 18.248 8.072 18.584C8.93067 18.92 9.87333 19.088 10.9 19.088C11.9267 19.088 12.8787 18.9013 13.756 18.528C14.6333 18.136 15.4267 17.548 16.136 16.764L18.488 19.004C17.5733 20.068 16.4533 20.88 15.128 21.44C13.8027 22 12.328 22.28 10.704 22.28ZM30.1238 6.88C31.3184 6.88 32.3824 7.11333 33.3158 7.58C34.2678 8.04667 35.0144 8.76533 35.5558 9.736C36.0971 10.688 36.3678 11.92 36.3678 13.432V22H32.8678V13.88C32.8678 12.5547 32.5504 11.5653 31.9158 10.912C31.2998 10.2587 30.4318 9.932 29.3118 9.932C28.4904 9.932 27.7624 10.1 27.1278 10.436C26.4931 10.772 25.9984 11.276 25.6438 11.948C25.3078 12.6013 25.1398 13.432 25.1398 14.44V22H21.6398V1.224H25.1398V11.08L24.3838 9.848C24.9064 8.896 25.6624 8.168 26.6518 7.664C27.6598 7.14133 28.8171 6.88 30.1238 6.88ZM47.5551 22.196C46.0244 22.196 44.6617 21.8693 43.4671 21.216C42.2724 20.544 41.3297 19.6293 40.6391 18.472C39.9484 17.3147 39.6031 15.9987 39.6031 14.524C39.6031 13.0307 39.9484 11.7147 40.6391 10.576C41.3297 9.41867 42.2724 8.51333 43.4671 7.86C44.6617 7.20667 46.0244 6.88 47.5551 6.88C49.1044 6.88 50.4764 7.20667 51.6711 7.86C52.8844 8.51333 53.8271 9.40933 54.4991 10.548C55.1897 11.6867 55.5351 13.012 55.5351 14.524C55.5351 15.9987 55.1897 17.3147 54.4991 18.472C53.8271 19.6293 52.8844 20.544 51.6711 21.216C50.4764 21.8693 49.1044 22.196 47.5551 22.196ZM47.5551 19.2C48.4137 19.2 49.1791 19.0133 49.8511 18.64C50.5231 18.2667 51.0457 17.7253 51.4191 17.016C51.8111 16.3067 52.0071 15.476 52.0071 14.524C52.0071 13.5533 51.8111 12.7227 51.4191 12.032C51.0457 11.3227 50.5231 10.7813 49.8511 10.408C49.1791 10.0347 48.4231 9.848 47.5831 9.848C46.7244 9.848 45.9591 10.0347 45.2871 10.408C44.6337 10.7813 44.1111 11.3227 43.7191 12.032C43.3271 12.7227 43.1311 13.5533 43.1311 14.524C43.1311 15.476 43.3271 16.3067 43.7191 17.016C44.1111 17.7253 44.6337 18.2667 45.2871 18.64C45.9591 19.0133 46.7151 19.2 47.5551 19.2ZM65.6019 22.196C64.0713 22.196 62.7086 21.8693 61.5139 21.216C60.3193 20.544 59.3766 19.6293 58.6859 18.472C57.9953 17.3147 57.6499 15.9987 57.6499 14.524C57.6499 13.0307 57.9953 11.7147 58.6859 10.576C59.3766 9.41867 60.3193 8.51333 61.5139 7.86C62.7086 7.20667 64.0713 6.88 65.6019 6.88C67.1513 6.88 68.5233 7.20667 69.7179 7.86C70.9313 8.51333 71.8739 9.40933 72.5459 10.548C73.2366 11.6867 73.5819 13.012 73.5819 14.524C73.5819 15.9987 73.2366 17.3147 72.5459 18.472C71.8739 19.6293 70.9313 20.544 69.7179 21.216C68.5233 21.8693 67.1513 22.196 65.6019 22.196ZM65.6019 19.2C66.4606 19.2 67.2259 19.0133 67.8979 18.64C68.5699 18.2667 69.0926 17.7253 69.4659 17.016C69.8579 16.3067 70.0539 15.476 70.0539 14.524C70.0539 13.5533 69.8579 12.7227 69.4659 12.032C69.0926 11.3227 68.5699 10.7813 67.8979 10.408C67.2259 10.0347 66.4699 9.848 65.6299 9.848C64.7713 9.848 64.0059 10.0347 63.3339 10.408C62.6806 10.7813 62.1579 11.3227 61.7659 12.032C61.3739 12.7227 61.1779 13.5533 61.1779 14.524C61.1779 15.476 61.3739 16.3067 61.7659 17.016C62.1579 17.7253 62.6806 18.2667 63.3339 18.64C64.0059 19.0133 64.7619 19.2 65.6019 19.2ZM81.5488 22.196C80.2981 22.196 79.0941 22.0373 77.9368 21.72C76.7981 21.384 75.8928 20.9827 75.2208 20.516L76.5648 17.856C77.2368 18.2853 78.0395 18.64 78.9728 18.92C79.9061 19.2 80.8395 19.34 81.7728 19.34C82.8741 19.34 83.6675 19.1907 84.1528 18.892C84.6568 18.5933 84.9088 18.192 84.9088 17.688C84.9088 17.2773 84.7408 16.9693 84.4048 16.764C84.0688 16.54 83.6301 16.372 83.0888 16.26C82.5475 16.148 81.9408 16.0453 81.2688 15.952C80.6155 15.8587 79.9528 15.7373 79.2808 15.588C78.6275 15.42 78.0301 15.1867 77.4888 14.888C76.9475 14.5707 76.5088 14.1507 76.1728 13.628C75.8368 13.1053 75.6688 12.4147 75.6688 11.556C75.6688 10.604 75.9395 9.78267 76.4808 9.092C77.0221 8.38267 77.7781 7.84133 78.7488 7.468C79.7381 7.076 80.9048 6.88 82.2488 6.88C83.2568 6.88 84.2741 6.992 85.3008 7.216C86.3275 7.44 87.1768 7.75733 87.8488 8.168L86.5048 10.828C85.7955 10.3987 85.0768 10.1093 84.3488 9.96C83.6395 9.792 82.9301 9.708 82.2208 9.708C81.1568 9.708 80.3635 9.86667 79.8408 10.184C79.3368 10.5013 79.0848 10.9027 79.0848 11.388C79.0848 11.836 79.2528 12.172 79.5888 12.396C79.9248 12.62 80.3635 12.7973 80.9048 12.928C81.4461 13.0587 82.0435 13.1707 82.6968 13.264C83.3688 13.3387 84.0315 13.46 84.6848 13.628C85.3381 13.796 85.9355 14.0293 86.4768 14.328C87.0368 14.608 87.4848 15.0093 87.8208 15.532C88.1568 16.0547 88.3248 16.736 88.3248 17.576C88.3248 18.5093 88.0448 19.3213 87.4848 20.012C86.9435 20.7027 86.1688 21.244 85.1608 21.636C84.1528 22.0093 82.9488 22.196 81.5488 22.196ZM98.367 22.196C96.7056 22.196 95.2496 21.8693 93.999 21.216C92.767 20.544 91.8056 19.6293 91.115 18.472C90.443 17.3147 90.107 15.9987 90.107 14.524C90.107 13.0307 90.4336 11.7147 91.087 10.576C91.759 9.41867 92.6736 8.51333 93.831 7.86C95.007 7.20667 96.3416 6.88 97.835 6.88C99.291 6.88 100.588 7.19733 101.727 7.832C102.866 8.46667 103.762 9.36267 104.415 10.52C105.068 11.6773 105.395 13.04 105.395 14.608C105.395 14.7573 105.386 14.9253 105.367 15.112C105.367 15.2987 105.358 15.476 105.339 15.644H92.879V13.32H103.491L102.119 14.048C102.138 13.1893 101.96 12.4333 101.587 11.78C101.214 11.1267 100.7 10.6133 100.047 10.24C99.4123 9.86667 98.675 9.68 97.835 9.68C96.9763 9.68 96.2203 9.86667 95.567 10.24C94.9323 10.6133 94.4283 11.136 94.055 11.808C93.7003 12.4613 93.523 13.236 93.523 14.132V14.692C93.523 15.588 93.7283 16.3813 94.139 17.072C94.5496 17.7627 95.1283 18.2947 95.875 18.668C96.6216 19.0413 97.4803 19.228 98.451 19.228C99.291 19.228 100.047 19.0973 100.719 18.836C101.391 18.5747 101.988 18.164 102.511 17.604L104.387 19.76C103.715 20.544 102.866 21.1507 101.839 21.58C100.831 21.9907 99.6736 22.196 98.367 22.196ZM116.971 22V6.208C116.971 4.64 117.429 3.38933 118.343 2.456C119.277 1.504 120.602 1.028 122.319 1.028C122.935 1.028 123.514 1.09333 124.055 1.224C124.615 1.35467 125.082 1.56 125.455 1.84L124.503 4.472C124.242 4.26667 123.943 4.11733 123.607 4.024C123.271 3.912 122.926 3.856 122.571 3.856C121.843 3.856 121.293 4.06133 120.919 4.472C120.546 4.864 120.359 5.46133 120.359 6.264V7.944L120.471 9.512V22H116.971ZM114.507 9.96V7.16H124.475V9.96H114.507ZM126.859 22V7.048H130.191V11.164L129.799 9.96C130.247 8.952 130.947 8.18667 131.899 7.664C132.869 7.14133 134.073 6.88 135.511 6.88V10.212C135.361 10.1747 135.221 10.156 135.091 10.156C134.96 10.1373 134.829 10.128 134.699 10.128C133.373 10.128 132.319 10.52 131.535 11.304C130.751 12.0693 130.359 13.2173 130.359 14.748V22H126.859ZM145.063 22.196C143.532 22.196 142.17 21.8693 140.975 21.216C139.78 20.544 138.838 19.6293 138.147 18.472C137.456 17.3147 137.111 15.9987 137.111 14.524C137.111 13.0307 137.456 11.7147 138.147 10.576C138.838 9.41867 139.78 8.51333 140.975 7.86C142.17 7.20667 143.532 6.88 145.063 6.88C146.612 6.88 147.984 7.20667 149.179 7.86C150.392 8.51333 151.335 9.40933 152.007 10.548C152.698 11.6867 153.043 13.012 153.043 14.524C153.043 15.9987 152.698 17.3147 152.007 18.472C151.335 19.6293 150.392 20.544 149.179 21.216C147.984 21.8693 146.612 22.196 145.063 22.196ZM145.063 19.2C145.922 19.2 146.687 19.0133 147.359 18.64C148.031 18.2667 148.554 17.7253 148.927 17.016C149.319 16.3067 149.515 15.476 149.515 14.524C149.515 13.5533 149.319 12.7227 148.927 12.032C148.554 11.3227 148.031 10.7813 147.359 10.408C146.687 10.0347 145.931 9.848 145.091 9.848C144.232 9.848 143.467 10.0347 142.795 10.408C142.142 10.7813 141.619 11.3227 141.227 12.032C140.835 12.7227 140.639 13.5533 140.639 14.524C140.639 15.476 140.835 16.3067 141.227 17.016C141.619 17.7253 142.142 18.2667 142.795 18.64C143.467 19.0133 144.223 19.2 145.063 19.2ZM175.262 6.88C176.456 6.88 177.511 7.11333 178.426 7.58C179.359 8.04667 180.087 8.76533 180.61 9.736C181.132 10.688 181.394 11.92 181.394 13.432V22H177.894V13.88C177.894 12.5547 177.604 11.5653 177.026 10.912C176.447 10.2587 175.616 9.932 174.534 9.932C173.768 9.932 173.087 10.1 172.49 10.436C171.911 10.772 171.454 11.2667 171.118 11.92C170.8 12.5733 170.642 13.404 170.642 14.412V22H167.142V13.88C167.142 12.5547 166.852 11.5653 166.274 10.912C165.695 10.2587 164.864 9.932 163.782 9.932C163.016 9.932 162.335 10.1 161.738 10.436C161.159 10.772 160.702 11.2667 160.366 11.92C160.048 12.5733 159.89 13.404 159.89 14.412V22H156.39V7.048H159.722V11.024L159.134 9.848C159.638 8.87733 160.366 8.14 161.318 7.636C162.288 7.132 163.39 6.88 164.622 6.88C166.022 6.88 167.235 7.22533 168.262 7.916C169.307 8.60667 169.998 9.652 170.334 11.052L168.962 10.576C169.447 9.456 170.25 8.56 171.37 7.888C172.49 7.216 173.787 6.88 175.262 6.88ZM202.817 22V18.976L202.621 18.332V13.04C202.621 12.0133 202.313 11.22 201.697 10.66C201.081 10.0813 200.147 9.792 198.897 9.792C198.057 9.792 197.226 9.92267 196.405 10.184C195.602 10.4453 194.921 10.8093 194.361 11.276L192.989 8.728C193.791 8.112 194.743 7.65467 195.845 7.356C196.965 7.03867 198.122 6.88 199.317 6.88C201.482 6.88 203.153 7.40267 204.329 8.448C205.523 9.47467 206.121 11.0707 206.121 13.236V22H202.817ZM198.113 22.196C196.993 22.196 196.013 22.0093 195.173 21.636C194.333 21.244 193.679 20.712 193.213 20.04C192.765 19.3493 192.541 18.5747 192.541 17.716C192.541 16.876 192.737 16.12 193.129 15.448C193.539 14.776 194.202 14.244 195.117 13.852C196.031 13.46 197.245 13.264 198.757 13.264H203.097V15.588H199.009C197.814 15.588 197.011 15.784 196.601 16.176C196.19 16.5493 195.985 17.016 195.985 17.576C195.985 18.2107 196.237 18.7147 196.741 19.088C197.245 19.4613 197.945 19.648 198.841 19.648C199.699 19.648 200.465 19.452 201.137 19.06C201.827 18.668 202.322 18.0893 202.621 17.324L203.209 19.424C202.873 20.3013 202.266 20.9827 201.389 21.468C200.53 21.9533 199.438 22.196 198.113 22.196ZM218.351 22V1.224H221.851V22H218.351ZM226.444 22V7.048H229.944V22H226.444ZM228.208 4.584C227.555 4.584 227.014 4.37867 226.584 3.968C226.174 3.55733 225.968 3.06267 225.968 2.484C225.968 1.88667 226.174 1.392 226.584 0.999998C227.014 0.589333 227.555 0.384 228.208 0.384C228.862 0.384 229.394 0.579999 229.804 0.971999C230.234 1.34533 230.448 1.82133 230.448 2.4C230.448 3.016 230.243 3.53867 229.832 3.968C229.422 4.37867 228.88 4.584 228.208 4.584ZM239.158 22.196C237.908 22.196 236.704 22.0373 235.546 21.72C234.408 21.384 233.502 20.9827 232.83 20.516L234.174 17.856C234.846 18.2853 235.649 18.64 236.582 18.92C237.516 19.2 238.449 19.34 239.382 19.34C240.484 19.34 241.277 19.1907 241.762 18.892C242.266 18.5933 242.518 18.192 242.518 17.688C242.518 17.2773 242.35 16.9693 242.014 16.764C241.678 16.54 241.24 16.372 240.698 16.26C240.157 16.148 239.55 16.0453 238.878 15.952C238.225 15.8587 237.562 15.7373 236.89 15.588C236.237 15.42 235.64 15.1867 235.098 14.888C234.557 14.5707 234.118 14.1507 233.782 13.628C233.446 13.1053 233.278 12.4147 233.278 11.556C233.278 10.604 233.549 9.78267 234.09 9.092C234.632 8.38267 235.388 7.84133 236.358 7.468C237.348 7.076 238.514 6.88 239.858 6.88C240.866 6.88 241.884 6.992 242.91 7.216C243.937 7.44 244.786 7.75733 245.458 8.168L244.114 10.828C243.405 10.3987 242.686 10.1093 241.958 9.96C241.249 9.792 240.54 9.708 239.83 9.708C238.766 9.708 237.973 9.86667 237.45 10.184C236.946 10.5013 236.694 10.9027 236.694 11.388C236.694 11.836 236.862 12.172 237.198 12.396C237.534 12.62 237.973 12.7973 238.514 12.928C239.056 13.0587 239.653 13.1707 240.306 13.264C240.978 13.3387 241.641 13.46 242.294 13.628C242.948 13.796 243.545 14.0293 244.086 14.328C244.646 14.608 245.094 15.0093 245.43 15.532C245.766 16.0547 245.934 16.736 245.934 17.576C245.934 18.5093 245.654 19.3213 245.094 20.012C244.553 20.7027 243.778 21.244 242.77 21.636C241.762 22.0093 240.558 22.196 239.158 22.196ZM254.576 22.196C252.934 22.196 251.664 21.776 250.768 20.936C249.872 20.0773 249.424 18.8173 249.424 17.156V3.744H252.924V17.072C252.924 17.7813 253.102 18.332 253.456 18.724C253.83 19.116 254.343 19.312 254.996 19.312C255.78 19.312 256.434 19.1067 256.956 18.696L257.936 21.188C257.526 21.524 257.022 21.776 256.424 21.944C255.827 22.112 255.211 22.196 254.576 22.196ZM246.96 9.96V7.16H256.928V9.96H246.96ZM275.274 22.196C273.743 22.196 272.38 21.8693 271.186 21.216C269.991 20.544 269.048 19.6293 268.358 18.472C267.667 17.3147 267.322 15.9987 267.322 14.524C267.322 13.0307 267.667 11.7147 268.358 10.576C269.048 9.41867 269.991 8.51333 271.186 7.86C272.38 7.20667 273.743 6.88 275.274 6.88C276.823 6.88 278.195 7.20667 279.39 7.86C280.603 8.51333 281.546 9.40933 282.218 10.548C282.908 11.6867 283.254 13.012 283.254 14.524C283.254 15.9987 282.908 17.3147 282.218 18.472C281.546 19.6293 280.603 20.544 279.39 21.216C278.195 21.8693 276.823 22.196 275.274 22.196ZM275.274 19.2C276.132 19.2 276.898 19.0133 277.57 18.64C278.242 18.2667 278.764 17.7253 279.138 17.016C279.53 16.3067 279.726 15.476 279.726 14.524C279.726 13.5533 279.53 12.7227 279.138 12.032C278.764 11.3227 278.242 10.7813 277.57 10.408C276.898 10.0347 276.142 9.848 275.302 9.848C274.443 9.848 273.678 10.0347 273.006 10.408C272.352 10.7813 271.83 11.3227 271.438 12.032C271.046 12.7227 270.85 13.5533 270.85 14.524C270.85 15.476 271.046 16.3067 271.438 17.016C271.83 17.7253 272.352 18.2667 273.006 18.64C273.678 19.0133 274.434 19.2 275.274 19.2ZM287.077 22V6.208C287.077 4.64 287.534 3.38933 288.449 2.456C289.382 1.504 290.707 1.028 292.425 1.028C293.041 1.028 293.619 1.09333 294.161 1.224C294.721 1.35467 295.187 1.56 295.561 1.84L294.609 4.472C294.347 4.26667 294.049 4.11733 293.713 4.024C293.377 3.912 293.031 3.856 292.677 3.856C291.949 3.856 291.398 4.06133 291.025 4.472C290.651 4.864 290.465 5.46133 290.465 6.264V7.944L290.577 9.512V22H287.077ZM284.613 9.96V7.16H294.581V9.96H284.613ZM10.508 56V52.976L10.312 52.332V47.04C10.312 46.0133 10.004 45.22 9.388 44.66C8.772 44.0813 7.83867 43.792 6.588 43.792C5.748 43.792 4.91733 43.9227 4.096 44.184C3.29333 44.4453 2.612 44.8093 2.052 45.276L0.68 42.728C1.48267 42.112 2.43467 41.6547 3.536 41.356C4.656 41.0387 5.81333 40.88 7.008 40.88C9.17333 40.88 10.844 41.4027 12.02 42.448C13.2147 43.4747 13.812 45.0707 13.812 47.236V56H10.508ZM5.804 56.196C4.684 56.196 3.704 56.0093 2.864 55.636C2.024 55.244 1.37067 54.712 0.904 54.04C0.456 53.3493 0.232 52.5747 0.232 51.716C0.232 50.876 0.428 50.12 0.82 49.448C1.23067 48.776 1.89333 48.244 2.808 47.852C3.72267 47.46 4.936 47.264 6.448 47.264H10.788V49.588H6.7C5.50533 49.588 4.70267 49.784 4.292 50.176C3.88133 50.5493 3.676 51.016 3.676 51.576C3.676 52.2107 3.928 52.7147 4.432 53.088C4.936 53.4613 5.636 53.648 6.532 53.648C7.39067 53.648 8.156 53.452 8.828 53.06C9.51867 52.668 10.0133 52.0893 10.312 51.324L10.9 53.424C10.564 54.3013 9.95733 54.9827 9.08 55.468C8.22133 55.9533 7.12933 56.196 5.804 56.196ZM22.0064 56L15.5944 41.048H19.2344L24.7504 54.236H22.9584L28.6704 41.048H32.0304L25.6184 56H22.0064ZM42.965 56V52.976L42.769 52.332V47.04C42.769 46.0133 42.461 45.22 41.845 44.66C41.229 44.0813 40.2957 43.792 39.045 43.792C38.205 43.792 37.3744 43.9227 36.553 44.184C35.7504 44.4453 35.069 44.8093 34.509 45.276L33.137 42.728C33.9397 42.112 34.8917 41.6547 35.993 41.356C37.113 41.0387 38.2704 40.88 39.465 40.88C41.6304 40.88 43.301 41.4027 44.477 42.448C45.6717 43.4747 46.269 45.0707 46.269 47.236V56H42.965ZM38.261 56.196C37.141 56.196 36.161 56.0093 35.321 55.636C34.481 55.244 33.8277 54.712 33.361 54.04C32.913 53.3493 32.689 52.5747 32.689 51.716C32.689 50.876 32.885 50.12 33.277 49.448C33.6877 48.776 34.3504 48.244 35.265 47.852C36.1797 47.46 37.393 47.264 38.905 47.264H43.245V49.588H39.157C37.9624 49.588 37.1597 49.784 36.749 50.176C36.3384 50.5493 36.133 51.016 36.133 51.576C36.133 52.2107 36.385 52.7147 36.889 53.088C37.393 53.4613 38.093 53.648 38.989 53.648C39.8477 53.648 40.613 53.452 41.285 53.06C41.9757 52.668 42.4704 52.0893 42.769 51.324L43.357 53.424C43.021 54.3013 42.4144 54.9827 41.537 55.468C40.6784 55.9533 39.5864 56.196 38.261 56.196ZM50.7608 56V41.048H54.2608V56H50.7608ZM52.5248 38.584C51.8715 38.584 51.3302 38.3787 50.9008 37.968C50.4902 37.5573 50.2848 37.0627 50.2848 36.484C50.2848 35.8867 50.4902 35.392 50.9008 35C51.3302 34.5893 51.8715 34.384 52.5248 34.384C53.1782 34.384 53.7102 34.58 54.1208 34.972C54.5502 35.3453 54.7648 35.8213 54.7648 36.4C54.7648 37.016 54.5595 37.5387 54.1488 37.968C53.7382 38.3787 53.1968 38.584 52.5248 38.584ZM58.8546 56V35.224H62.3546V56H58.8546ZM76.1603 56V52.976L75.9643 52.332V47.04C75.9643 46.0133 75.6563 45.22 75.0403 44.66C74.4243 44.0813 73.491 43.792 72.2403 43.792C71.4003 43.792 70.5697 43.9227 69.7483 44.184C68.9457 44.4453 68.2643 44.8093 67.7043 45.276L66.3323 42.728C67.135 42.112 68.087 41.6547 69.1883 41.356C70.3083 41.0387 71.4657 40.88 72.6603 40.88C74.8257 40.88 76.4963 41.4027 77.6723 42.448C78.867 43.4747 79.4643 45.0707 79.4643 47.236V56H76.1603ZM71.4563 56.196C70.3363 56.196 69.3563 56.0093 68.5163 55.636C67.6763 55.244 67.023 54.712 66.5563 54.04C66.1083 53.3493 65.8843 52.5747 65.8843 51.716C65.8843 50.876 66.0803 50.12 66.4723 49.448C66.883 48.776 67.5457 48.244 68.4603 47.852C69.375 47.46 70.5883 47.264 72.1003 47.264H76.4403V49.588H72.3523C71.1577 49.588 70.355 49.784 69.9443 50.176C69.5337 50.5493 69.3283 51.016 69.3283 51.576C69.3283 52.2107 69.5803 52.7147 70.0843 53.088C70.5883 53.4613 71.2883 53.648 72.1843 53.648C73.043 53.648 73.8083 53.452 74.4803 53.06C75.171 52.668 75.6657 52.0893 75.9643 51.324L76.5523 53.424C76.2163 54.3013 75.6097 54.9827 74.7323 55.468C73.8737 55.9533 72.7817 56.196 71.4563 56.196ZM92.2442 56.196C90.9748 56.196 89.8455 55.916 88.8562 55.356C87.8668 54.796 87.0828 53.956 86.5042 52.836C85.9442 51.6973 85.6642 50.26 85.6642 48.524C85.6642 46.7693 85.9535 45.332 86.5322 44.212C87.1295 43.092 87.9228 42.2613 88.9122 41.72C89.9202 41.16 91.0308 40.88 92.2442 40.88C93.7188 40.88 95.0162 41.1973 96.1362 41.832C97.2748 42.4667 98.1708 43.3533 98.8242 44.492C99.4962 45.6307 99.8322 46.9747 99.8322 48.524C99.8322 50.0733 99.4962 51.4173 98.8242 52.556C98.1708 53.6947 97.2748 54.5907 96.1362 55.244C95.0162 55.8787 93.7188 56.196 92.2442 56.196ZM83.9562 56V35.224H87.4562V44.52L87.1762 48.496L87.2882 52.472V56H83.9562ZM91.8522 53.2C92.6922 53.2 93.4388 53.0133 94.0922 52.64C94.7642 52.2667 95.2962 51.7253 95.6882 51.016C96.0802 50.3067 96.2762 49.476 96.2762 48.524C96.2762 47.5533 96.0802 46.7227 95.6882 46.032C95.2962 45.3227 94.7642 44.7813 94.0922 44.408C93.4388 44.0347 92.6922 43.848 91.8522 43.848C91.0122 43.848 90.2562 44.0347 89.5842 44.408C88.9122 44.7813 88.3802 45.3227 87.9882 46.032C87.5962 46.7227 87.4002 47.5533 87.4002 48.524C87.4002 49.476 87.5962 50.3067 87.9882 51.016C88.3802 51.7253 88.9122 52.2667 89.5842 52.64C90.2562 53.0133 91.0122 53.2 91.8522 53.2ZM103.151 56V35.224H106.651V56H103.151ZM118.273 56.196C116.612 56.196 115.156 55.8693 113.905 55.216C112.673 54.544 111.712 53.6293 111.021 52.472C110.349 51.3147 110.013 49.9987 110.013 48.524C110.013 47.0307 110.34 45.7147 110.993 44.576C111.665 43.4187 112.58 42.5133 113.737 41.86C114.913 41.2067 116.248 40.88 117.741 40.88C119.197 40.88 120.495 41.1973 121.633 41.832C122.772 42.4667 123.668 43.3627 124.321 44.52C124.975 45.6773 125.301 47.04 125.301 48.608C125.301 48.7573 125.292 48.9253 125.273 49.112C125.273 49.2987 125.264 49.476 125.245 49.644H112.785V47.32H123.397L122.025 48.048C122.044 47.1893 121.867 46.4333 121.493 45.78C121.12 45.1267 120.607 44.6133 119.953 44.24C119.319 43.8667 118.581 43.68 117.741 43.68C116.883 43.68 116.127 43.8667 115.473 44.24C114.839 44.6133 114.335 45.136 113.961 45.808C113.607 46.4613 113.429 47.236 113.429 48.132V48.692C113.429 49.588 113.635 50.3813 114.045 51.072C114.456 51.7627 115.035 52.2947 115.781 52.668C116.528 53.0413 117.387 53.228 118.357 53.228C119.197 53.228 119.953 53.0973 120.625 52.836C121.297 52.5747 121.895 52.164 122.417 51.604L124.293 53.76C123.621 54.544 122.772 55.1507 121.745 55.58C120.737 55.9907 119.58 56.196 118.273 56.196ZM143.121 56.196C141.591 56.196 140.228 55.8693 139.033 55.216C137.839 54.544 136.896 53.6293 136.205 52.472C135.515 51.3147 135.169 49.9987 135.169 48.524C135.169 47.0307 135.515 45.7147 136.205 44.576C136.896 43.4187 137.839 42.5133 139.033 41.86C140.228 41.2067 141.591 40.88 143.121 40.88C144.671 40.88 146.043 41.2067 147.237 41.86C148.451 42.5133 149.393 43.4093 150.065 44.548C150.756 45.6867 151.101 47.012 151.101 48.524C151.101 49.9987 150.756 51.3147 150.065 52.472C149.393 53.6293 148.451 54.544 147.237 55.216C146.043 55.8693 144.671 56.196 143.121 56.196ZM143.121 53.2C143.98 53.2 144.745 53.0133 145.417 52.64C146.089 52.2667 146.612 51.7253 146.985 51.016C147.377 50.3067 147.573 49.476 147.573 48.524C147.573 47.5533 147.377 46.7227 146.985 46.032C146.612 45.3227 146.089 44.7813 145.417 44.408C144.745 44.0347 143.989 43.848 143.149 43.848C142.291 43.848 141.525 44.0347 140.853 44.408C140.2 44.7813 139.677 45.3227 139.285 46.032C138.893 46.7227 138.697 47.5533 138.697 48.524C138.697 49.476 138.893 50.3067 139.285 51.016C139.677 51.7253 140.2 52.2667 140.853 52.64C141.525 53.0133 142.281 53.2 143.121 53.2ZM154.924 56V40.208C154.924 38.64 155.382 37.3893 156.296 36.456C157.23 35.504 158.555 35.028 160.272 35.028C160.888 35.028 161.467 35.0933 162.008 35.224C162.568 35.3547 163.035 35.56 163.408 35.84L162.456 38.472C162.195 38.2667 161.896 38.1173 161.56 38.024C161.224 37.912 160.879 37.856 160.524 37.856C159.796 37.856 159.246 38.0613 158.872 38.472C158.499 38.864 158.312 39.4613 158.312 40.264V41.944L158.424 43.512V56H154.924ZM152.46 43.96V41.16H162.428V43.96H152.46ZM165.342 56V40.208C165.342 38.64 165.8 37.3893 166.714 36.456C167.648 35.504 168.973 35.028 170.69 35.028C171.306 35.028 171.885 35.0933 172.426 35.224C172.986 35.3547 173.453 35.56 173.826 35.84L172.874 38.472C172.613 38.2667 172.314 38.1173 171.978 38.024C171.642 37.912 171.297 37.856 170.942 37.856C170.214 37.856 169.664 38.0613 169.29 38.472C168.917 38.864 168.73 39.4613 168.73 40.264V41.944L168.842 43.512V56H165.342ZM162.878 43.96V41.16H172.846V43.96H162.878ZM182.012 56.196C180.35 56.196 178.894 55.8693 177.644 55.216C176.412 54.544 175.45 53.6293 174.76 52.472C174.088 51.3147 173.752 49.9987 173.752 48.524C173.752 47.0307 174.078 45.7147 174.732 44.576C175.404 43.4187 176.318 42.5133 177.476 41.86C178.652 41.2067 179.986 40.88 181.48 40.88C182.936 40.88 184.233 41.1973 185.372 41.832C186.51 42.4667 187.406 43.3627 188.06 44.52C188.713 45.6773 189.04 47.04 189.04 48.608C189.04 48.7573 189.03 48.9253 189.012 49.112C189.012 49.2987 189.002 49.476 188.984 49.644H176.524V47.32H187.136L185.764 48.048C185.782 47.1893 185.605 46.4333 185.232 45.78C184.858 45.1267 184.345 44.6133 183.692 44.24C183.057 43.8667 182.32 43.68 181.48 43.68C180.621 43.68 179.865 43.8667 179.212 44.24C178.577 44.6133 178.073 45.136 177.7 45.808C177.345 46.4613 177.168 47.236 177.168 48.132V48.692C177.168 49.588 177.373 50.3813 177.784 51.072C178.194 51.7627 178.773 52.2947 179.52 52.668C180.266 53.0413 181.125 53.228 182.096 53.228C182.936 53.228 183.692 53.0973 184.364 52.836C185.036 52.5747 185.633 52.164 186.156 51.604L188.032 53.76C187.36 54.544 186.51 55.1507 185.484 55.58C184.476 55.9907 183.318 56.196 182.012 56.196ZM192.401 56V41.048H195.733V45.164L195.341 43.96C195.789 42.952 196.489 42.1867 197.441 41.664C198.412 41.1413 199.616 40.88 201.053 40.88V44.212C200.904 44.1747 200.764 44.156 200.633 44.156C200.503 44.1373 200.372 44.128 200.241 44.128C198.916 44.128 197.861 44.52 197.077 45.304C196.293 46.0693 195.901 47.2173 195.901 48.748V56H192.401ZM208.779 56.196C207.529 56.196 206.325 56.0373 205.167 55.72C204.029 55.384 203.123 54.9827 202.451 54.516L203.795 51.856C204.467 52.2853 205.27 52.64 206.203 52.92C207.137 53.2 208.07 53.34 209.003 53.34C210.105 53.34 210.898 53.1907 211.383 52.892C211.887 52.5933 212.139 52.192 212.139 51.688C212.139 51.2773 211.971 50.9693 211.635 50.764C211.299 50.54 210.861 50.372 210.319 50.26C209.778 50.148 209.171 50.0453 208.499 49.952C207.846 49.8587 207.183 49.7373 206.511 49.588C205.858 49.42 205.261 49.1867 204.719 48.888C204.178 48.5707 203.739 48.1507 203.403 47.628C203.067 47.1053 202.899 46.4147 202.899 45.556C202.899 44.604 203.17 43.7827 203.711 43.092C204.253 42.3827 205.009 41.8413 205.979 41.468C206.969 41.076 208.135 40.88 209.479 40.88C210.487 40.88 211.505 40.992 212.531 41.216C213.558 41.44 214.407 41.7573 215.079 42.168L213.735 44.828C213.026 44.3987 212.307 44.1093 211.579 43.96C210.87 43.792 210.161 43.708 209.451 43.708C208.387 43.708 207.594 43.8667 207.071 44.184C206.567 44.5013 206.315 44.9027 206.315 45.388C206.315 45.836 206.483 46.172 206.819 46.396C207.155 46.62 207.594 46.7973 208.135 46.928C208.677 47.0587 209.274 47.1707 209.927 47.264C210.599 47.3387 211.262 47.46 211.915 47.628C212.569 47.796 213.166 48.0293 213.707 48.328C214.267 48.608 214.715 49.0093 215.051 49.532C215.387 50.0547 215.555 50.736 215.555 51.576C215.555 52.5093 215.275 53.3213 214.715 54.012C214.174 54.7027 213.399 55.244 212.391 55.636C211.383 56.0093 210.179 56.196 208.779 56.196Z" fill="black"/>
</svg>
