<svg width="57" height="52" viewBox="0 0 57 52" fill="none" xmlns="http://www.w3.org/2000/svg">
<path d="M23.3182 52C22.631 52 21.972 51.7261 21.4861 51.2385C21.0002 50.7509 20.7273 50.0896 20.7273 49.4C20.7273 48.7104 21.0002 48.0491 21.4861 47.5615C21.972 47.0739 22.631 46.8 23.3182 46.8H44.9091C46.7415 46.8 48.4988 46.0695 49.7946 44.7693C51.0903 43.469 51.8182 41.7055 51.8182 39.8667V12.1333C51.8182 10.2945 51.0903 8.53098 49.7946 7.23073C48.4988 5.93047 46.7415 5.2 44.9091 5.2H23.3182C22.631 5.2 21.972 4.92607 21.4861 4.43848C21.0002 3.95088 20.7273 3.28956 20.7273 2.6C20.7273 1.91044 21.0002 1.24912 21.4861 0.761522C21.972 0.273927 22.631 0 23.3182 0H44.9091C48.1158 0 51.1912 1.27833 53.4587 3.55377C55.7261 5.82921 57 8.91537 57 12.1333V39.8667C57 43.0846 55.7261 46.1708 53.4587 48.4462C51.1912 50.7217 48.1158 52 44.9091 52H23.3182ZM23.2871 12.8232C23.537 12.5914 23.83 12.4113 24.1493 12.2932C24.4686 12.1751 24.808 12.1213 25.1481 12.1348C25.4881 12.1483 25.8222 12.2289 26.1312 12.372C26.4402 12.5151 26.718 12.7179 26.9489 12.9688L37.3125 24.2355C37.7549 24.7159 38.0006 25.3459 38.0006 26C38.0006 26.6541 37.7549 27.2841 37.3125 27.7645L26.9489 39.0312C26.7178 39.2818 26.4397 39.4843 26.1306 39.6271C25.8215 39.7698 25.4874 39.8501 25.1473 39.8633C24.8073 39.8765 24.468 39.8224 24.1488 39.704C23.8296 39.5856 23.5368 39.4053 23.2871 39.1733C23.0374 38.9414 22.8356 38.6623 22.6933 38.3521C22.551 38.0419 22.471 37.7067 22.4579 37.3654C22.4313 36.6763 22.6786 36.0048 23.1455 35.4987L29.4949 28.5965H2.59091C1.90376 28.5965 1.24475 28.3226 0.75886 27.835C0.27297 27.3474 0 26.6861 0 25.9965C0 25.307 0.27297 24.6457 0.75886 24.1581C1.24475 23.6705 1.90376 23.3965 2.59091 23.3965H29.4915L23.142 16.4979C22.911 16.247 22.7316 15.953 22.6139 15.6326C22.4962 15.3122 22.4425 14.9716 22.456 14.6304C22.4695 14.2891 22.5498 13.9539 22.6924 13.6438C22.835 13.3337 23.0371 13.0549 23.2871 12.8232Z" fill="#3131C6"/>
</svg>
