<svg width="63" height="63" viewBox="0 0 63 63" fill="none" xmlns="http://www.w3.org/2000/svg">
<path d="M0 7.875C0 5.78642 0.829685 3.78338 2.30653 2.30653C3.78338 0.829685 5.78642 0 7.875 0H47.25C49.3386 0 51.3416 0.829685 52.8185 2.30653C54.2953 3.78338 55.125 5.78642 55.125 7.875V47.25C55.125 49.3386 54.2953 51.3416 52.8185 52.8185C51.3416 54.2953 49.3386 55.125 47.25 55.125H7.875C5.78642 55.125 3.78338 54.2953 2.30653 52.8185C0.829685 51.3416 0 49.3386 0 47.25V7.875ZM7.875 3.9375C6.83071 3.9375 5.82919 4.35234 5.09077 5.09077C4.35234 5.82919 3.9375 6.83071 3.9375 7.875V47.25C3.9375 48.2943 4.35234 49.2958 5.09077 50.0342C5.82919 50.7727 6.83071 51.1875 7.875 51.1875H47.25C48.2943 51.1875 49.2958 50.7727 50.0342 50.0342C50.7727 49.2958 51.1875 48.2943 51.1875 47.25V7.875C51.1875 6.83071 50.7727 5.82919 50.0342 5.09077C49.2958 4.35234 48.2943 3.9375 47.25 3.9375H7.875ZM15.75 63C14.3677 63 13.0097 62.6361 11.8126 61.9449C10.6155 61.2537 9.62141 60.2596 8.93025 59.0625H47.25C50.3829 59.0625 53.3874 57.818 55.6027 55.6027C57.818 53.3874 59.0625 50.3829 59.0625 47.25V8.93025C60.2596 9.62141 61.2537 10.6155 61.9449 11.8126C62.6361 13.0097 63 14.3677 63 15.75V47.25C63 51.4272 61.3406 55.4332 58.3869 58.3869C55.4332 61.3406 51.4272 63 47.25 63H15.75ZM40.8555 20.9869C41.0261 20.7925 41.1568 20.5663 41.2401 20.3214C41.3233 20.0765 41.3575 19.8176 41.3407 19.5594C41.3238 19.3013 41.2564 19.049 41.142 18.8169C41.0277 18.5849 40.8688 18.3776 40.6744 18.207C40.48 18.0364 40.2538 17.9057 40.0089 17.8224C39.764 17.7392 39.5051 17.705 39.2469 17.7218C38.9888 17.7386 38.7365 17.8061 38.5044 17.9205C38.2724 18.0348 38.0651 18.1937 37.8945 18.3881L25.4992 32.5552L19.1126 26.1686C18.9296 25.9856 18.7123 25.8404 18.4731 25.7413C18.2339 25.6423 17.9776 25.5913 17.7188 25.5913C17.4599 25.5913 17.2036 25.6423 16.9644 25.7413C16.7252 25.8404 16.5079 25.9856 16.3249 26.1686C16.1418 26.3517 15.9966 26.569 15.8976 26.8081C15.7985 27.0473 15.7475 27.3036 15.7475 27.5625C15.7475 27.8214 15.7985 28.0777 15.8976 28.3169C15.9966 28.556 16.1418 28.7733 16.3249 28.9564L24.1999 36.8314C24.3907 37.0219 24.6186 37.1712 24.8695 37.2701C25.1204 37.3689 25.3889 37.4151 25.6584 37.4059C25.9279 37.3967 26.1927 37.3322 26.4362 37.2164C26.6798 37.1007 26.8969 36.9361 27.0743 36.7329L40.8555 20.9829V20.9869Z" fill="#3131C6"/>
</svg>
