<svg width="370" height="370" viewBox="0 0 370 370" fill="none" xmlns="http://www.w3.org/2000/svg">
<path d="M21.2632 368H267.446V267.446H368V21.2632C368 16.1543 365.971 11.2546 362.358 7.64205C358.745 4.0295 353.846 2.00002 348.737 2.00002H21.2632C16.1543 2.00002 11.2546 4.0295 7.64205 7.64205C4.0295 11.2546 2 16.1543 2 21.2632L2 348.737C2 353.846 4.0295 358.745 7.64205 362.358C11.2546 365.971 16.1543 368 21.2632 368ZM267.446 368L368 267.446Z" fill="white"/>
<path d="M267.446 368H21.2632C16.1543 368 11.2546 365.971 7.64205 362.358C4.0295 358.745 2 353.846 2 348.737L2 21.2632C2 16.1543 4.0295 11.2546 7.64205 7.64205C11.2546 4.0295 16.1543 2.00002 21.2632 2.00002H348.737C353.846 2.00002 358.745 4.0295 362.358 7.64205C365.971 11.2546 368 16.1543 368 21.2632V267.446M267.446 368V267.446H368M267.446 368L368 267.446" stroke="#1E1E1E" stroke-width="3" stroke-linecap="round" stroke-linejoin="round"/>
<path d="M39.608 176V159.48H33.112V156.4H49.744V159.48H43.248V176H39.608ZM60.6238 160.88C61.8184 160.88 62.8824 161.113 63.8158 161.58C64.7678 162.047 65.5144 162.765 66.0558 163.736C66.5971 164.688 66.8678 165.92 66.8678 167.432V176H63.3678V167.88C63.3678 166.555 63.0504 165.565 62.4158 164.912C61.7998 164.259 60.9318 163.932 59.8118 163.932C58.9904 163.932 58.2624 164.1 57.6278 164.436C56.9931 164.772 56.4984 165.276 56.1438 165.948C55.8078 166.601 55.6398 167.432 55.6398 168.44V176H52.1398V155.224H55.6398V165.08L54.8838 163.848C55.4064 162.896 56.1624 162.168 57.1518 161.664C58.1598 161.141 59.3171 160.88 60.6238 160.88ZM78.3631 176.196C76.7017 176.196 75.2457 175.869 73.9951 175.216C72.7631 174.544 71.8017 173.629 71.1111 172.472C70.4391 171.315 70.1031 169.999 70.1031 168.524C70.1031 167.031 70.4297 165.715 71.0831 164.576C71.7551 163.419 72.6697 162.513 73.8271 161.86C75.0031 161.207 76.3377 160.88 77.8311 160.88C79.2871 160.88 80.5844 161.197 81.7231 161.832C82.8617 162.467 83.7577 163.363 84.4111 164.52C85.0644 165.677 85.3911 167.04 85.3911 168.608C85.3911 168.757 85.3817 168.925 85.3631 169.112C85.3631 169.299 85.3537 169.476 85.3351 169.644H72.8751V167.32H83.4871L82.1151 168.048C82.1337 167.189 81.9564 166.433 81.5831 165.78C81.2097 165.127 80.6964 164.613 80.0431 164.24C79.4084 163.867 78.6711 163.68 77.8311 163.68C76.9724 163.68 76.2164 163.867 75.5631 164.24C74.9284 164.613 74.4244 165.136 74.0511 165.808C73.6964 166.461 73.5191 167.236 73.5191 168.132V168.692C73.5191 169.588 73.7244 170.381 74.1351 171.072C74.5457 171.763 75.1244 172.295 75.8711 172.668C76.6177 173.041 77.4764 173.228 78.4471 173.228C79.2871 173.228 80.0431 173.097 80.7151 172.836C81.3871 172.575 81.9844 172.164 82.5071 171.604L84.3831 173.76C83.7111 174.544 82.8617 175.151 81.8351 175.58C80.8271 175.991 79.6697 176.196 78.3631 176.196ZM103.351 176.196C101.783 176.196 100.383 175.869 99.1513 175.216C97.938 174.544 96.986 173.629 96.2953 172.472C95.6046 171.315 95.2593 169.999 95.2593 168.524C95.2593 167.031 95.6046 165.715 96.2953 164.576C96.986 163.419 97.938 162.513 99.1513 161.86C100.383 161.207 101.783 160.88 103.351 160.88C104.807 160.88 106.086 161.179 107.187 161.776C108.307 162.355 109.157 163.213 109.735 164.352L107.047 165.92C106.599 165.211 106.049 164.688 105.395 164.352C104.761 164.016 104.07 163.848 103.323 163.848C102.465 163.848 101.69 164.035 100.999 164.408C100.309 164.781 99.7673 165.323 99.3753 166.032C98.9833 166.723 98.7873 167.553 98.7873 168.524C98.7873 169.495 98.9833 170.335 99.3753 171.044C99.7673 171.735 100.309 172.267 100.999 172.64C101.69 173.013 102.465 173.2 103.323 173.2C104.07 173.2 104.761 173.032 105.395 172.696C106.049 172.36 106.599 171.837 107.047 171.128L109.735 172.696C109.157 173.816 108.307 174.684 107.187 175.3C106.086 175.897 104.807 176.196 103.351 176.196ZM119.262 176.196C117.731 176.196 116.369 175.869 115.174 175.216C113.979 174.544 113.037 173.629 112.346 172.472C111.655 171.315 111.31 169.999 111.31 168.524C111.31 167.031 111.655 165.715 112.346 164.576C113.037 163.419 113.979 162.513 115.174 161.86C116.369 161.207 117.731 160.88 119.262 160.88C120.811 160.88 122.183 161.207 123.378 161.86C124.591 162.513 125.534 163.409 126.206 164.548C126.897 165.687 127.242 167.012 127.242 168.524C127.242 169.999 126.897 171.315 126.206 172.472C125.534 173.629 124.591 174.544 123.378 175.216C122.183 175.869 120.811 176.196 119.262 176.196ZM119.262 173.2C120.121 173.2 120.886 173.013 121.558 172.64C122.23 172.267 122.753 171.725 123.126 171.016C123.518 170.307 123.714 169.476 123.714 168.524C123.714 167.553 123.518 166.723 123.126 166.032C122.753 165.323 122.23 164.781 121.558 164.408C120.886 164.035 120.13 163.848 119.29 163.848C118.431 163.848 117.666 164.035 116.994 164.408C116.341 164.781 115.818 165.323 115.426 166.032C115.034 166.723 114.838 167.553 114.838 168.524C114.838 169.476 115.034 170.307 115.426 171.016C115.818 171.725 116.341 172.267 116.994 172.64C117.666 173.013 118.422 173.2 119.262 173.2ZM149.461 160.88C150.656 160.88 151.71 161.113 152.625 161.58C153.558 162.047 154.286 162.765 154.809 163.736C155.332 164.688 155.593 165.92 155.593 167.432V176H152.093V167.88C152.093 166.555 151.804 165.565 151.225 164.912C150.646 164.259 149.816 163.932 148.733 163.932C147.968 163.932 147.286 164.1 146.689 164.436C146.11 164.772 145.653 165.267 145.317 165.92C145 166.573 144.841 167.404 144.841 168.412V176H141.341V167.88C141.341 166.555 141.052 165.565 140.473 164.912C139.894 164.259 139.064 163.932 137.981 163.932C137.216 163.932 136.534 164.1 135.937 164.436C135.358 164.772 134.901 165.267 134.565 165.92C134.248 166.573 134.089 167.404 134.089 168.412V176H130.589V161.048H133.921V165.024L133.333 163.848C133.837 162.877 134.565 162.14 135.517 161.636C136.488 161.132 137.589 160.88 138.821 160.88C140.221 160.88 141.434 161.225 142.461 161.916C143.506 162.607 144.197 163.652 144.533 165.052L143.161 164.576C143.646 163.456 144.449 162.56 145.569 161.888C146.689 161.216 147.986 160.88 149.461 160.88ZM178.938 160.88C180.132 160.88 181.187 161.113 182.102 161.58C183.035 162.047 183.763 162.765 184.286 163.736C184.808 164.688 185.07 165.92 185.07 167.432V176H181.57V167.88C181.57 166.555 181.28 165.565 180.702 164.912C180.123 164.259 179.292 163.932 178.21 163.932C177.444 163.932 176.763 164.1 176.166 164.436C175.587 164.772 175.13 165.267 174.794 165.92C174.476 166.573 174.318 167.404 174.318 168.412V176H170.818V167.88C170.818 166.555 170.528 165.565 169.95 164.912C169.371 164.259 168.54 163.932 167.458 163.932C166.692 163.932 166.011 164.1 165.414 164.436C164.835 164.772 164.378 165.267 164.042 165.92C163.724 166.573 163.566 167.404 163.566 168.412V176H160.066V161.048H163.398V165.024L162.81 163.848C163.314 162.877 164.042 162.14 164.994 161.636C165.964 161.132 167.066 160.88 168.298 160.88C169.698 160.88 170.911 161.225 171.938 161.916C172.983 162.607 173.674 163.652 174.01 165.052L172.638 164.576C173.123 163.456 173.926 162.56 175.046 161.888C176.166 161.216 177.463 160.88 178.938 160.88ZM189.542 176V161.048H193.042V176H189.542ZM191.306 158.584C190.653 158.584 190.111 158.379 189.682 157.968C189.271 157.557 189.066 157.063 189.066 156.484C189.066 155.887 189.271 155.392 189.682 155C190.111 154.589 190.653 154.384 191.306 154.384C191.959 154.384 192.491 154.58 192.902 154.972C193.331 155.345 193.546 155.821 193.546 156.4C193.546 157.016 193.341 157.539 192.93 157.968C192.519 158.379 191.978 158.584 191.306 158.584ZM202.256 176.196C201.005 176.196 199.801 176.037 198.644 175.72C197.505 175.384 196.6 174.983 195.928 174.516L197.272 171.856C197.944 172.285 198.747 172.64 199.68 172.92C200.613 173.2 201.547 173.34 202.48 173.34C203.581 173.34 204.375 173.191 204.86 172.892C205.364 172.593 205.616 172.192 205.616 171.688C205.616 171.277 205.448 170.969 205.112 170.764C204.776 170.54 204.337 170.372 203.796 170.26C203.255 170.148 202.648 170.045 201.976 169.952C201.323 169.859 200.66 169.737 199.988 169.588C199.335 169.42 198.737 169.187 198.196 168.888C197.655 168.571 197.216 168.151 196.88 167.628C196.544 167.105 196.376 166.415 196.376 165.556C196.376 164.604 196.647 163.783 197.188 163.092C197.729 162.383 198.485 161.841 199.456 161.468C200.445 161.076 201.612 160.88 202.956 160.88C203.964 160.88 204.981 160.992 206.008 161.216C207.035 161.44 207.884 161.757 208.556 162.168L207.212 164.828C206.503 164.399 205.784 164.109 205.056 163.96C204.347 163.792 203.637 163.708 202.928 163.708C201.864 163.708 201.071 163.867 200.548 164.184C200.044 164.501 199.792 164.903 199.792 165.388C199.792 165.836 199.96 166.172 200.296 166.396C200.632 166.62 201.071 166.797 201.612 166.928C202.153 167.059 202.751 167.171 203.404 167.264C204.076 167.339 204.739 167.46 205.392 167.628C206.045 167.796 206.643 168.029 207.184 168.328C207.744 168.608 208.192 169.009 208.528 169.532C208.864 170.055 209.032 170.736 209.032 171.576C209.032 172.509 208.752 173.321 208.192 174.012C207.651 174.703 206.876 175.244 205.868 175.636C204.86 176.009 203.656 176.196 202.256 176.196ZM216.666 176.196C215.415 176.196 214.211 176.037 213.054 175.72C211.915 175.384 211.01 174.983 210.338 174.516L211.682 171.856C212.354 172.285 213.157 172.64 214.09 172.92C215.023 173.2 215.957 173.34 216.89 173.34C217.991 173.34 218.785 173.191 219.27 172.892C219.774 172.593 220.026 172.192 220.026 171.688C220.026 171.277 219.858 170.969 219.522 170.764C219.186 170.54 218.747 170.372 218.206 170.26C217.665 170.148 217.058 170.045 216.386 169.952C215.733 169.859 215.07 169.737 214.398 169.588C213.745 169.42 213.147 169.187 212.606 168.888C212.065 168.571 211.626 168.151 211.29 167.628C210.954 167.105 210.786 166.415 210.786 165.556C210.786 164.604 211.057 163.783 211.598 163.092C212.139 162.383 212.895 161.841 213.866 161.468C214.855 161.076 216.022 160.88 217.366 160.88C218.374 160.88 219.391 160.992 220.418 161.216C221.445 161.44 222.294 161.757 222.966 162.168L221.622 164.828C220.913 164.399 220.194 164.109 219.466 163.96C218.757 163.792 218.047 163.708 217.338 163.708C216.274 163.708 215.481 163.867 214.958 164.184C214.454 164.501 214.202 164.903 214.202 165.388C214.202 165.836 214.37 166.172 214.706 166.396C215.042 166.62 215.481 166.797 216.022 166.928C216.563 167.059 217.161 167.171 217.814 167.264C218.486 167.339 219.149 167.46 219.802 167.628C220.455 167.796 221.053 168.029 221.594 168.328C222.154 168.608 222.602 169.009 222.938 169.532C223.274 170.055 223.442 170.736 223.442 171.576C223.442 172.509 223.162 173.321 222.602 174.012C222.061 174.703 221.286 175.244 220.278 175.636C219.27 176.009 218.066 176.196 216.666 176.196ZM226.456 176V161.048H229.956V176H226.456ZM228.22 158.584C227.567 158.584 227.025 158.379 226.596 157.968C226.185 157.557 225.98 157.063 225.98 156.484C225.98 155.887 226.185 155.392 226.596 155C227.025 154.589 227.567 154.384 228.22 154.384C228.873 154.384 229.405 154.58 229.816 154.972C230.245 155.345 230.46 155.821 230.46 156.4C230.46 157.016 230.255 157.539 229.844 157.968C229.433 158.379 228.892 158.584 228.22 158.584ZM241.27 176.196C239.739 176.196 238.377 175.869 237.182 175.216C235.987 174.544 235.045 173.629 234.354 172.472C233.663 171.315 233.318 169.999 233.318 168.524C233.318 167.031 233.663 165.715 234.354 164.576C235.045 163.419 235.987 162.513 237.182 161.86C238.377 161.207 239.739 160.88 241.27 160.88C242.819 160.88 244.191 161.207 245.386 161.86C246.599 162.513 247.542 163.409 248.214 164.548C248.905 165.687 249.25 167.012 249.25 168.524C249.25 169.999 248.905 171.315 248.214 172.472C247.542 173.629 246.599 174.544 245.386 175.216C244.191 175.869 242.819 176.196 241.27 176.196ZM241.27 173.2C242.129 173.2 242.894 173.013 243.566 172.64C244.238 172.267 244.761 171.725 245.134 171.016C245.526 170.307 245.722 169.476 245.722 168.524C245.722 167.553 245.526 166.723 245.134 166.032C244.761 165.323 244.238 164.781 243.566 164.408C242.894 164.035 242.138 163.848 241.298 163.848C240.439 163.848 239.674 164.035 239.002 164.408C238.349 164.781 237.826 165.323 237.434 166.032C237.042 166.723 236.846 167.553 236.846 168.524C236.846 169.476 237.042 170.307 237.434 171.016C237.826 171.725 238.349 172.267 239.002 172.64C239.674 173.013 240.43 173.2 241.27 173.2ZM261.081 160.88C262.275 160.88 263.339 161.113 264.273 161.58C265.225 162.047 265.971 162.765 266.513 163.736C267.054 164.688 267.325 165.92 267.325 167.432V176H263.825V167.88C263.825 166.555 263.507 165.565 262.873 164.912C262.257 164.259 261.389 163.932 260.269 163.932C259.447 163.932 258.719 164.1 258.085 164.436C257.45 164.772 256.955 165.276 256.601 165.948C256.265 166.601 256.097 167.432 256.097 168.44V176H252.597V161.048H255.929V165.08L255.341 163.848C255.863 162.896 256.619 162.168 257.609 161.664C258.617 161.141 259.774 160.88 261.081 160.88ZM287.791 176.196C286.578 176.196 285.467 175.916 284.459 175.356C283.47 174.796 282.676 173.956 282.079 172.836C281.5 171.697 281.211 170.26 281.211 168.524C281.211 166.769 281.491 165.332 282.051 164.212C282.63 163.092 283.414 162.261 284.403 161.72C285.392 161.16 286.522 160.88 287.791 160.88C289.266 160.88 290.563 161.197 291.683 161.832C292.822 162.467 293.718 163.353 294.371 164.492C295.043 165.631 295.379 166.975 295.379 168.524C295.379 170.073 295.043 171.427 294.371 172.584C293.718 173.723 292.822 174.609 291.683 175.244C290.563 175.879 289.266 176.196 287.791 176.196ZM279.503 181.432V161.048H282.835V164.576L282.723 168.552L283.003 172.528V181.432H279.503ZM287.399 173.2C288.239 173.2 288.986 173.013 289.639 172.64C290.311 172.267 290.843 171.725 291.235 171.016C291.627 170.307 291.823 169.476 291.823 168.524C291.823 167.553 291.627 166.723 291.235 166.032C290.843 165.323 290.311 164.781 289.639 164.408C288.986 164.035 288.239 163.848 287.399 163.848C286.559 163.848 285.803 164.035 285.131 164.408C284.459 164.781 283.927 165.323 283.535 166.032C283.143 166.723 282.947 167.553 282.947 168.524C282.947 169.476 283.143 170.307 283.535 171.016C283.927 171.725 284.459 172.267 285.131 172.64C285.803 173.013 286.559 173.2 287.399 173.2ZM305.726 176.196C304.065 176.196 302.609 175.869 301.358 175.216C300.126 174.544 299.165 173.629 298.474 172.472C297.802 171.315 297.466 169.999 297.466 168.524C297.466 167.031 297.793 165.715 298.446 164.576C299.118 163.419 300.033 162.513 301.19 161.86C302.366 161.207 303.701 160.88 305.194 160.88C306.65 160.88 307.948 161.197 309.086 161.832C310.225 162.467 311.121 163.363 311.774 164.52C312.428 165.677 312.754 167.04 312.754 168.608C312.754 168.757 312.745 168.925 312.726 169.112C312.726 169.299 312.717 169.476 312.698 169.644H300.238V167.32H310.85L309.478 168.048C309.497 167.189 309.32 166.433 308.946 165.78C308.573 165.127 308.06 164.613 307.406 164.24C306.772 163.867 306.034 163.68 305.194 163.68C304.336 163.68 303.58 163.867 302.926 164.24C302.292 164.613 301.788 165.136 301.414 165.808C301.06 166.461 300.882 167.236 300.882 168.132V168.692C300.882 169.588 301.088 170.381 301.498 171.072C301.909 171.763 302.488 172.295 303.234 172.668C303.981 173.041 304.84 173.228 305.81 173.228C306.65 173.228 307.406 173.097 308.078 172.836C308.75 172.575 309.348 172.164 309.87 171.604L311.746 173.76C311.074 174.544 310.225 175.151 309.198 175.58C308.19 175.991 307.033 176.196 305.726 176.196ZM316.116 176V161.048H319.448V165.164L319.056 163.96C319.504 162.952 320.204 162.187 321.156 161.664C322.127 161.141 323.331 160.88 324.768 160.88V164.212C324.619 164.175 324.479 164.156 324.348 164.156C324.218 164.137 324.087 164.128 323.956 164.128C322.631 164.128 321.576 164.52 320.792 165.304C320.008 166.069 319.616 167.217 319.616 168.748V176H316.116ZM42.324 210.196C40.6627 210.196 39.2067 209.869 37.956 209.216C36.724 208.544 35.7627 207.629 35.072 206.472C34.4 205.315 34.064 203.999 34.064 202.524C34.064 201.031 34.3907 199.715 35.044 198.576C35.716 197.419 36.6307 196.513 37.788 195.86C38.964 195.207 40.2987 194.88 41.792 194.88C43.248 194.88 44.5453 195.197 45.684 195.832C46.8227 196.467 47.7187 197.363 48.372 198.52C49.0253 199.677 49.352 201.04 49.352 202.608C49.352 202.757 49.3427 202.925 49.324 203.112C49.324 203.299 49.3147 203.476 49.296 203.644H36.836V201.32H47.448L46.076 202.048C46.0947 201.189 45.9173 200.433 45.544 199.78C45.1707 199.127 44.6573 198.613 44.004 198.24C43.3693 197.867 42.632 197.68 41.792 197.68C40.9333 197.68 40.1773 197.867 39.524 198.24C38.8893 198.613 38.3853 199.136 38.012 199.808C37.6573 200.461 37.48 201.236 37.48 202.132V202.692C37.48 203.588 37.6853 204.381 38.096 205.072C38.5067 205.763 39.0853 206.295 39.832 206.668C40.5787 207.041 41.4373 207.228 42.408 207.228C43.248 207.228 44.004 207.097 44.676 206.836C45.348 206.575 45.9453 206.164 46.468 205.604L48.344 207.76C47.672 208.544 46.8227 209.151 45.796 209.58C44.788 209.991 43.6307 210.196 42.324 210.196ZM61.198 194.88C62.3926 194.88 63.4566 195.113 64.39 195.58C65.342 196.047 66.0886 196.765 66.63 197.736C67.1713 198.688 67.442 199.92 67.442 201.432V210H63.942V201.88C63.942 200.555 63.6246 199.565 62.99 198.912C62.374 198.259 61.506 197.932 60.386 197.932C59.5646 197.932 58.8366 198.1 58.202 198.436C57.5673 198.772 57.0726 199.276 56.718 199.948C56.382 200.601 56.214 201.432 56.214 202.44V210H52.714V195.048H56.046V199.08L55.458 197.848C55.9806 196.896 56.7366 196.168 57.726 195.664C58.734 195.141 59.8913 194.88 61.198 194.88ZM78.6853 215.628C77.3039 215.628 75.9506 215.441 74.6253 215.068C73.3186 214.713 72.2453 214.191 71.4053 213.5L72.9733 210.868C73.6266 211.409 74.4479 211.839 75.4373 212.156C76.4453 212.492 77.4626 212.66 78.4893 212.66C80.1319 212.66 81.3359 212.277 82.1013 211.512C82.8666 210.765 83.2493 209.636 83.2493 208.124V205.464L83.5293 202.076L83.4173 198.688V195.048H86.7493V207.732C86.7493 210.439 86.0586 212.427 84.6773 213.696C83.2959 214.984 81.2986 215.628 78.6853 215.628ZM78.2373 209.328C76.8186 209.328 75.5306 209.029 74.3733 208.432C73.2346 207.816 72.3293 206.967 71.6573 205.884C71.0039 204.801 70.6773 203.532 70.6773 202.076C70.6773 200.639 71.0039 199.379 71.6573 198.296C72.3293 197.213 73.2346 196.373 74.3733 195.776C75.5306 195.179 76.8186 194.88 78.2373 194.88C79.5066 194.88 80.6453 195.132 81.6533 195.636C82.6613 196.14 83.4639 196.924 84.0613 197.988C84.6773 199.052 84.9853 200.415 84.9853 202.076C84.9853 203.737 84.6773 205.109 84.0613 206.192C83.4639 207.256 82.6613 208.049 81.6533 208.572C80.6453 209.076 79.5066 209.328 78.2373 209.328ZM78.7693 206.36C79.6466 206.36 80.4306 206.183 81.1213 205.828C81.8119 205.455 82.3439 204.951 82.7173 204.316C83.1093 203.663 83.3053 202.916 83.3053 202.076C83.3053 201.236 83.1093 200.499 82.7173 199.864C82.3439 199.211 81.8119 198.716 81.1213 198.38C80.4306 198.025 79.6466 197.848 78.7693 197.848C77.8919 197.848 77.0986 198.025 76.3893 198.38C75.6986 198.716 75.1573 199.211 74.7653 199.864C74.3919 200.499 74.2053 201.236 74.2053 202.076C74.2053 202.916 74.3919 203.663 74.7653 204.316C75.1573 204.951 75.6986 205.455 76.3893 205.828C77.0986 206.183 77.8919 206.36 78.7693 206.36ZM100.563 210V206.976L100.367 206.332V201.04C100.367 200.013 100.059 199.22 99.4427 198.66C98.8267 198.081 97.8934 197.792 96.6427 197.792C95.8027 197.792 94.972 197.923 94.1507 198.184C93.348 198.445 92.6667 198.809 92.1067 199.276L90.7347 196.728C91.5374 196.112 92.4894 195.655 93.5907 195.356C94.7107 195.039 95.868 194.88 97.0627 194.88C99.228 194.88 100.899 195.403 102.075 196.448C103.269 197.475 103.867 199.071 103.867 201.236V210H100.563ZM95.8587 210.196C94.7387 210.196 93.7587 210.009 92.9187 209.636C92.0787 209.244 91.4254 208.712 90.9587 208.04C90.5107 207.349 90.2867 206.575 90.2867 205.716C90.2867 204.876 90.4827 204.12 90.8747 203.448C91.2854 202.776 91.948 202.244 92.8627 201.852C93.7774 201.46 94.9907 201.264 96.5027 201.264H100.843V203.588H96.7547C95.56 203.588 94.7574 203.784 94.3467 204.176C93.936 204.549 93.7307 205.016 93.7307 205.576C93.7307 206.211 93.9827 206.715 94.4867 207.088C94.9907 207.461 95.6907 207.648 96.5867 207.648C97.4454 207.648 98.2107 207.452 98.8827 207.06C99.5734 206.668 100.068 206.089 100.367 205.324L100.955 207.424C100.619 208.301 100.012 208.983 99.1347 209.468C98.276 209.953 97.184 210.196 95.8587 210.196ZM115.162 215.628C113.781 215.628 112.427 215.441 111.102 215.068C109.795 214.713 108.722 214.191 107.882 213.5L109.45 210.868C110.103 211.409 110.925 211.839 111.914 212.156C112.922 212.492 113.939 212.66 114.966 212.66C116.609 212.66 117.813 212.277 118.578 211.512C119.343 210.765 119.726 209.636 119.726 208.124V205.464L120.006 202.076L119.894 198.688V195.048H123.226V207.732C123.226 210.439 122.535 212.427 121.154 213.696C119.773 214.984 117.775 215.628 115.162 215.628ZM114.714 209.328C113.295 209.328 112.007 209.029 110.85 208.432C109.711 207.816 108.806 206.967 108.134 205.884C107.481 204.801 107.154 203.532 107.154 202.076C107.154 200.639 107.481 199.379 108.134 198.296C108.806 197.213 109.711 196.373 110.85 195.776C112.007 195.179 113.295 194.88 114.714 194.88C115.983 194.88 117.122 195.132 118.13 195.636C119.138 196.14 119.941 196.924 120.538 197.988C121.154 199.052 121.462 200.415 121.462 202.076C121.462 203.737 121.154 205.109 120.538 206.192C119.941 207.256 119.138 208.049 118.13 208.572C117.122 209.076 115.983 209.328 114.714 209.328ZM115.246 206.36C116.123 206.36 116.907 206.183 117.598 205.828C118.289 205.455 118.821 204.951 119.194 204.316C119.586 203.663 119.782 202.916 119.782 202.076C119.782 201.236 119.586 200.499 119.194 199.864C118.821 199.211 118.289 198.716 117.598 198.38C116.907 198.025 116.123 197.848 115.246 197.848C114.369 197.848 113.575 198.025 112.866 198.38C112.175 198.716 111.634 199.211 111.242 199.864C110.869 200.499 110.682 201.236 110.682 202.076C110.682 202.916 110.869 203.663 111.242 204.316C111.634 204.951 112.175 205.455 112.866 205.828C113.575 206.183 114.369 206.36 115.246 206.36ZM134.855 210.196C133.194 210.196 131.738 209.869 130.487 209.216C129.255 208.544 128.294 207.629 127.603 206.472C126.931 205.315 126.595 203.999 126.595 202.524C126.595 201.031 126.922 199.715 127.575 198.576C128.247 197.419 129.162 196.513 130.319 195.86C131.495 195.207 132.83 194.88 134.323 194.88C135.779 194.88 137.077 195.197 138.215 195.832C139.354 196.467 140.25 197.363 140.903 198.52C141.557 199.677 141.883 201.04 141.883 202.608C141.883 202.757 141.874 202.925 141.855 203.112C141.855 203.299 141.846 203.476 141.827 203.644H129.367V201.32H139.979L138.607 202.048C138.626 201.189 138.449 200.433 138.075 199.78C137.702 199.127 137.189 198.613 136.535 198.24C135.901 197.867 135.163 197.68 134.323 197.68C133.465 197.68 132.709 197.867 132.055 198.24C131.421 198.613 130.917 199.136 130.543 199.808C130.189 200.461 130.011 201.236 130.011 202.132V202.692C130.011 203.588 130.217 204.381 130.627 205.072C131.038 205.763 131.617 206.295 132.363 206.668C133.11 207.041 133.969 207.228 134.939 207.228C135.779 207.228 136.535 207.097 137.207 206.836C137.879 206.575 138.477 206.164 138.999 205.604L140.875 207.76C140.203 208.544 139.354 209.151 138.327 209.58C137.319 209.991 136.162 210.196 134.855 210.196ZM164.117 194.88C165.312 194.88 166.367 195.113 167.281 195.58C168.215 196.047 168.943 196.765 169.465 197.736C169.988 198.688 170.249 199.92 170.249 201.432V210H166.749V201.88C166.749 200.555 166.46 199.565 165.881 198.912C165.303 198.259 164.472 197.932 163.389 197.932C162.624 197.932 161.943 198.1 161.345 198.436C160.767 198.772 160.309 199.267 159.973 199.92C159.656 200.573 159.497 201.404 159.497 202.412V210H155.997V201.88C155.997 200.555 155.708 199.565 155.129 198.912C154.551 198.259 153.72 197.932 152.637 197.932C151.872 197.932 151.191 198.1 150.593 198.436C150.015 198.772 149.557 199.267 149.221 199.92C148.904 200.573 148.745 201.404 148.745 202.412V210H145.245V195.048H148.577V199.024L147.989 197.848C148.493 196.877 149.221 196.14 150.173 195.636C151.144 195.132 152.245 194.88 153.477 194.88C154.877 194.88 156.091 195.225 157.117 195.916C158.163 196.607 158.853 197.652 159.189 199.052L157.817 198.576C158.303 197.456 159.105 196.56 160.225 195.888C161.345 195.216 162.643 194.88 164.117 194.88ZM181.777 210.196C180.116 210.196 178.66 209.869 177.409 209.216C176.177 208.544 175.216 207.629 174.525 206.472C173.853 205.315 173.517 203.999 173.517 202.524C173.517 201.031 173.844 199.715 174.497 198.576C175.169 197.419 176.084 196.513 177.241 195.86C178.417 195.207 179.752 194.88 181.245 194.88C182.701 194.88 183.998 195.197 185.137 195.832C186.276 196.467 187.172 197.363 187.825 198.52C188.478 199.677 188.805 201.04 188.805 202.608C188.805 202.757 188.796 202.925 188.777 203.112C188.777 203.299 188.768 203.476 188.749 203.644H176.289V201.32H186.901L185.529 202.048C185.548 201.189 185.37 200.433 184.997 199.78C184.624 199.127 184.11 198.613 183.457 198.24C182.822 197.867 182.085 197.68 181.245 197.68C180.386 197.68 179.63 197.867 178.977 198.24C178.342 198.613 177.838 199.136 177.465 199.808C177.11 200.461 176.933 201.236 176.933 202.132V202.692C176.933 203.588 177.138 204.381 177.549 205.072C177.96 205.763 178.538 206.295 179.285 206.668C180.032 207.041 180.89 207.228 181.861 207.228C182.701 207.228 183.457 207.097 184.129 206.836C184.801 206.575 185.398 206.164 185.921 205.604L187.797 207.76C187.125 208.544 186.276 209.151 185.249 209.58C184.241 209.991 183.084 210.196 181.777 210.196ZM200.651 194.88C201.846 194.88 202.91 195.113 203.843 195.58C204.795 196.047 205.542 196.765 206.083 197.736C206.624 198.688 206.895 199.92 206.895 201.432V210H203.395V201.88C203.395 200.555 203.078 199.565 202.443 198.912C201.827 198.259 200.959 197.932 199.839 197.932C199.018 197.932 198.29 198.1 197.655 198.436C197.02 198.772 196.526 199.276 196.171 199.948C195.835 200.601 195.667 201.432 195.667 202.44V210H192.167V195.048H195.499V199.08L194.911 197.848C195.434 196.896 196.19 196.168 197.179 195.664C198.187 195.141 199.344 194.88 200.651 194.88ZM216.963 210.196C215.32 210.196 214.051 209.776 213.155 208.936C212.259 208.077 211.811 206.817 211.811 205.156V191.744H215.311V205.072C215.311 205.781 215.488 206.332 215.843 206.724C216.216 207.116 216.73 207.312 217.383 207.312C218.167 207.312 218.82 207.107 219.343 206.696L220.323 209.188C219.912 209.524 219.408 209.776 218.811 209.944C218.214 210.112 217.598 210.196 216.963 210.196ZM209.347 197.96V195.16H219.315V197.96H209.347ZM230.941 210V195.048H234.441V210H230.941ZM232.705 192.584C232.051 192.584 231.51 192.379 231.081 191.968C230.67 191.557 230.465 191.063 230.465 190.484C230.465 189.887 230.67 189.392 231.081 189C231.51 188.589 232.051 188.384 232.705 188.384C233.358 188.384 233.89 188.58 234.301 188.972C234.73 189.345 234.945 189.821 234.945 190.4C234.945 191.016 234.739 191.539 234.329 191.968C233.918 192.379 233.377 192.584 232.705 192.584ZM243.654 210.196C242.404 210.196 241.2 210.037 240.042 209.72C238.904 209.384 237.998 208.983 237.326 208.516L238.67 205.856C239.342 206.285 240.145 206.64 241.078 206.92C242.012 207.2 242.945 207.34 243.878 207.34C244.98 207.34 245.773 207.191 246.258 206.892C246.762 206.593 247.014 206.192 247.014 205.688C247.014 205.277 246.846 204.969 246.51 204.764C246.174 204.54 245.736 204.372 245.194 204.26C244.653 204.148 244.046 204.045 243.374 203.952C242.721 203.859 242.058 203.737 241.386 203.588C240.733 203.42 240.136 203.187 239.594 202.888C239.053 202.571 238.614 202.151 238.278 201.628C237.942 201.105 237.774 200.415 237.774 199.556C237.774 198.604 238.045 197.783 238.586 197.092C239.128 196.383 239.884 195.841 240.854 195.468C241.844 195.076 243.01 194.88 244.354 194.88C245.362 194.88 246.38 194.992 247.406 195.216C248.433 195.44 249.282 195.757 249.954 196.168L248.61 198.828C247.901 198.399 247.182 198.109 246.454 197.96C245.745 197.792 245.036 197.708 244.326 197.708C243.262 197.708 242.469 197.867 241.946 198.184C241.442 198.501 241.19 198.903 241.19 199.388C241.19 199.836 241.358 200.172 241.694 200.396C242.03 200.62 242.469 200.797 243.01 200.928C243.552 201.059 244.149 201.171 244.802 201.264C245.474 201.339 246.137 201.46 246.79 201.628C247.444 201.796 248.041 202.029 248.582 202.328C249.142 202.608 249.59 203.009 249.926 203.532C250.262 204.055 250.43 204.736 250.43 205.576C250.43 206.509 250.15 207.321 249.59 208.012C249.049 208.703 248.274 209.244 247.266 209.636C246.258 210.009 245.054 210.196 243.654 210.196ZM261.183 210V189.224H264.683V210H261.183ZM269.276 210V195.048H272.776V210H269.276ZM271.04 192.584C270.387 192.584 269.846 192.379 269.416 191.968C269.006 191.557 268.8 191.063 268.8 190.484C268.8 189.887 269.006 189.392 269.416 189C269.846 188.589 270.387 188.384 271.04 188.384C271.694 188.384 272.226 188.58 272.636 188.972C273.066 189.345 273.28 189.821 273.28 190.4C273.28 191.016 273.075 191.539 272.664 191.968C272.254 192.379 271.712 192.584 271.04 192.584ZM281.99 210.196C280.74 210.196 279.536 210.037 278.378 209.72C277.24 209.384 276.334 208.983 275.662 208.516L277.006 205.856C277.678 206.285 278.481 206.64 279.414 206.92C280.348 207.2 281.281 207.34 282.214 207.34C283.316 207.34 284.109 207.191 284.594 206.892C285.098 206.593 285.35 206.192 285.35 205.688C285.35 205.277 285.182 204.969 284.846 204.764C284.51 204.54 284.072 204.372 283.53 204.26C282.989 204.148 282.382 204.045 281.71 203.952C281.057 203.859 280.394 203.737 279.722 203.588C279.069 203.42 278.472 203.187 277.93 202.888C277.389 202.571 276.95 202.151 276.614 201.628C276.278 201.105 276.11 200.415 276.11 199.556C276.11 198.604 276.381 197.783 276.922 197.092C277.464 196.383 278.22 195.841 279.19 195.468C280.18 195.076 281.346 194.88 282.69 194.88C283.698 194.88 284.716 194.992 285.742 195.216C286.769 195.44 287.618 195.757 288.29 196.168L286.946 198.828C286.237 198.399 285.518 198.109 284.79 197.96C284.081 197.792 283.372 197.708 282.662 197.708C281.598 197.708 280.805 197.867 280.282 198.184C279.778 198.501 279.526 198.903 279.526 199.388C279.526 199.836 279.694 200.172 280.03 200.396C280.366 200.62 280.805 200.797 281.346 200.928C281.888 201.059 282.485 201.171 283.138 201.264C283.81 201.339 284.473 201.46 285.126 201.628C285.78 201.796 286.377 202.029 286.918 202.328C287.478 202.608 287.926 203.009 288.262 203.532C288.598 204.055 288.766 204.736 288.766 205.576C288.766 206.509 288.486 207.321 287.926 208.012C287.385 208.703 286.61 209.244 285.602 209.636C284.594 210.009 283.39 210.196 281.99 210.196ZM297.408 210.196C295.766 210.196 294.496 209.776 293.6 208.936C292.704 208.077 292.256 206.817 292.256 205.156V191.744H295.756V205.072C295.756 205.781 295.934 206.332 296.288 206.724C296.662 207.116 297.175 207.312 297.828 207.312C298.612 207.312 299.266 207.107 299.788 206.696L300.768 209.188C300.358 209.524 299.854 209.776 299.256 209.944C298.659 210.112 298.043 210.196 297.408 210.196ZM289.792 197.96V195.16H299.76V197.96H289.792ZM310.183 210.196C308.522 210.196 307.066 209.869 305.815 209.216C304.583 208.544 303.622 207.629 302.931 206.472C302.259 205.315 301.923 203.999 301.923 202.524C301.923 201.031 302.25 199.715 302.903 198.576C303.575 197.419 304.49 196.513 305.647 195.86C306.823 195.207 308.158 194.88 309.651 194.88C311.107 194.88 312.405 195.197 313.543 195.832C314.682 196.467 315.578 197.363 316.231 198.52C316.885 199.677 317.211 201.04 317.211 202.608C317.211 202.757 317.202 202.925 317.183 203.112C317.183 203.299 317.174 203.476 317.155 203.644H304.695V201.32H315.307L313.935 202.048C313.954 201.189 313.777 200.433 313.403 199.78C313.03 199.127 312.517 198.613 311.863 198.24C311.229 197.867 310.491 197.68 309.651 197.68C308.793 197.68 308.037 197.867 307.383 198.24C306.749 198.613 306.245 199.136 305.871 199.808C305.517 200.461 305.339 201.236 305.339 202.132V202.692C305.339 203.588 305.545 204.381 305.955 205.072C306.366 205.763 306.945 206.295 307.691 206.668C308.438 207.041 309.297 207.228 310.267 207.228C311.107 207.228 311.863 207.097 312.535 206.836C313.207 206.575 313.805 206.164 314.327 205.604L316.203 207.76C315.531 208.544 314.682 209.151 313.655 209.58C312.647 209.991 311.49 210.196 310.183 210.196ZM326.901 210.196C325.464 210.196 324.167 209.879 323.009 209.244C321.871 208.591 320.975 207.695 320.321 206.556C319.668 205.417 319.341 204.073 319.341 202.524C319.341 200.975 319.668 199.631 320.321 198.492C320.975 197.353 321.871 196.467 323.009 195.832C324.167 195.197 325.464 194.88 326.901 194.88C328.152 194.88 329.272 195.16 330.261 195.72C331.251 196.261 332.035 197.092 332.613 198.212C333.192 199.332 333.481 200.769 333.481 202.524C333.481 204.26 333.201 205.697 332.641 206.836C332.081 207.956 331.307 208.796 330.317 209.356C329.328 209.916 328.189 210.196 326.901 210.196ZM327.321 207.2C328.161 207.2 328.908 207.013 329.561 206.64C330.233 206.267 330.765 205.725 331.157 205.016C331.568 204.307 331.773 203.476 331.773 202.524C331.773 201.553 331.568 200.723 331.157 200.032C330.765 199.323 330.233 198.781 329.561 198.408C328.908 198.035 328.161 197.848 327.321 197.848C326.481 197.848 325.725 198.035 325.053 198.408C324.4 198.781 323.868 199.323 323.457 200.032C323.065 200.723 322.869 201.553 322.869 202.524C322.869 203.476 323.065 204.307 323.457 205.016C323.868 205.725 324.4 206.267 325.053 206.64C325.725 207.013 326.481 207.2 327.321 207.2ZM331.857 210V206.472L331.997 202.496L331.717 198.52V189.224H335.189V210H331.857ZM41.624 244.196C40.3547 244.196 39.2347 243.963 38.264 243.496C37.2933 243.011 36.5373 242.283 35.996 241.312C35.4547 240.323 35.184 239.081 35.184 237.588V229.048H38.684V237.112C38.684 238.456 38.9827 239.464 39.58 240.136C40.196 240.789 41.064 241.116 42.184 241.116C43.0053 241.116 43.7147 240.948 44.312 240.612C44.928 240.276 45.404 239.772 45.74 239.1C46.0947 238.428 46.272 237.597 46.272 236.608V229.048H49.772V244H46.44V239.968L47.028 241.2C46.524 242.171 45.7867 242.917 44.816 243.44C43.8453 243.944 42.7813 244.196 41.624 244.196ZM62.8386 228.88C64.0333 228.88 65.0973 229.113 66.0306 229.58C66.9826 230.047 67.7293 230.765 68.2706 231.736C68.8119 232.688 69.0826 233.92 69.0826 235.432V244H65.5826V235.88C65.5826 234.555 65.2653 233.565 64.6306 232.912C64.0146 232.259 63.1466 231.932 62.0266 231.932C61.2053 231.932 60.4773 232.1 59.8426 232.436C59.2079 232.772 58.7133 233.276 58.3586 233.948C58.0226 234.601 57.8546 235.432 57.8546 236.44V244H54.3546V229.048H57.6866V233.08L57.0986 231.848C57.6213 230.896 58.3773 230.168 59.3666 229.664C60.3746 229.141 61.5319 228.88 62.8386 228.88ZM79.8779 244.196C78.4406 244.196 77.1432 243.879 75.9859 243.244C74.8472 242.591 73.9512 241.695 73.2979 240.556C72.6446 239.417 72.3179 238.073 72.3179 236.524C72.3179 234.975 72.6446 233.631 73.2979 232.492C73.9512 231.353 74.8472 230.467 75.9859 229.832C77.1432 229.197 78.4406 228.88 79.8779 228.88C81.1286 228.88 82.2486 229.16 83.2379 229.72C84.2272 230.261 85.0112 231.092 85.5899 232.212C86.1686 233.332 86.4579 234.769 86.4579 236.524C86.4579 238.26 86.1779 239.697 85.6179 240.836C85.0579 241.956 84.2832 242.796 83.2939 243.356C82.3046 243.916 81.1659 244.196 79.8779 244.196ZM80.2979 241.2C81.1379 241.2 81.8846 241.013 82.5379 240.64C83.2099 240.267 83.7419 239.725 84.1339 239.016C84.5446 238.307 84.7499 237.476 84.7499 236.524C84.7499 235.553 84.5446 234.723 84.1339 234.032C83.7419 233.323 83.2099 232.781 82.5379 232.408C81.8846 232.035 81.1379 231.848 80.2979 231.848C79.4579 231.848 78.7019 232.035 78.0299 232.408C77.3766 232.781 76.8446 233.323 76.4339 234.032C76.0419 234.723 75.8459 235.553 75.8459 236.524C75.8459 237.476 76.0419 238.307 76.4339 239.016C76.8446 239.725 77.3766 240.267 78.0299 240.64C78.7019 241.013 79.4579 241.2 80.2979 241.2ZM84.8339 244V240.472L84.9739 236.496L84.6939 232.52V223.224H88.1659V244H84.8339ZM99.8006 244.196C98.1392 244.196 96.6832 243.869 95.4326 243.216C94.2006 242.544 93.2392 241.629 92.5486 240.472C91.8766 239.315 91.5406 237.999 91.5406 236.524C91.5406 235.031 91.8672 233.715 92.5206 232.576C93.1926 231.419 94.1072 230.513 95.2646 229.86C96.4406 229.207 97.7752 228.88 99.2686 228.88C100.725 228.88 102.022 229.197 103.161 229.832C104.299 230.467 105.195 231.363 105.849 232.52C106.502 233.677 106.829 235.04 106.829 236.608C106.829 236.757 106.819 236.925 106.801 237.112C106.801 237.299 106.791 237.476 106.773 237.644H94.3126V235.32H104.925L103.553 236.048C103.571 235.189 103.394 234.433 103.021 233.78C102.647 233.127 102.134 232.613 101.481 232.24C100.846 231.867 100.109 231.68 99.2686 231.68C98.4099 231.68 97.6539 231.867 97.0006 232.24C96.3659 232.613 95.8619 233.136 95.4886 233.808C95.1339 234.461 94.9566 235.236 94.9566 236.132V236.692C94.9566 237.588 95.1619 238.381 95.5726 239.072C95.9832 239.763 96.5619 240.295 97.3086 240.668C98.0552 241.041 98.9139 241.228 99.8846 241.228C100.725 241.228 101.481 241.097 102.153 240.836C102.825 240.575 103.422 240.164 103.945 239.604L105.821 241.76C105.149 242.544 104.299 243.151 103.273 243.58C102.265 243.991 101.107 244.196 99.8006 244.196ZM110.191 244V229.048H113.523V233.164L113.131 231.96C113.579 230.952 114.279 230.187 115.231 229.664C116.201 229.141 117.405 228.88 118.843 228.88V232.212C118.693 232.175 118.553 232.156 118.423 232.156C118.292 232.137 118.161 232.128 118.031 232.128C116.705 232.128 115.651 232.52 114.867 233.304C114.083 234.069 113.691 235.217 113.691 236.748V244H110.191ZM136.715 244.196C135.053 244.196 133.597 243.869 132.347 243.216C131.115 242.544 130.153 241.629 129.463 240.472C128.791 239.315 128.455 237.999 128.455 236.524C128.455 235.031 128.781 233.715 129.435 232.576C130.107 231.419 131.021 230.513 132.179 229.86C133.355 229.207 134.689 228.88 136.183 228.88C137.639 228.88 138.936 229.197 140.075 229.832C141.213 230.467 142.109 231.363 142.763 232.52C143.416 233.677 143.743 235.04 143.743 236.608C143.743 236.757 143.733 236.925 143.715 237.112C143.715 237.299 143.705 237.476 143.687 237.644H131.227V235.32H141.839L140.467 236.048C140.485 235.189 140.308 234.433 139.935 233.78C139.561 233.127 139.048 232.613 138.395 232.24C137.76 231.867 137.023 231.68 136.183 231.68C135.324 231.68 134.568 231.867 133.915 232.24C133.28 232.613 132.776 233.136 132.403 233.808C132.048 234.461 131.871 235.236 131.871 236.132V236.692C131.871 237.588 132.076 238.381 132.487 239.072C132.897 239.763 133.476 240.295 134.223 240.668C134.969 241.041 135.828 241.228 136.799 241.228C137.639 241.228 138.395 241.097 139.067 240.836C139.739 240.575 140.336 240.164 140.859 239.604L142.735 241.76C142.063 242.544 141.213 243.151 140.187 243.58C139.179 243.991 138.021 244.196 136.715 244.196ZM155.906 244V240.976L155.71 240.332V235.04C155.71 234.013 155.402 233.22 154.786 232.66C154.17 232.081 153.237 231.792 151.986 231.792C151.146 231.792 150.316 231.923 149.494 232.184C148.692 232.445 148.01 232.809 147.45 233.276L146.078 230.728C146.881 230.112 147.833 229.655 148.934 229.356C150.054 229.039 151.212 228.88 152.406 228.88C154.572 228.88 156.242 229.403 157.418 230.448C158.613 231.475 159.21 233.071 159.21 235.236V244H155.906ZM151.202 244.196C150.082 244.196 149.102 244.009 148.262 243.636C147.422 243.244 146.769 242.712 146.302 242.04C145.854 241.349 145.63 240.575 145.63 239.716C145.63 238.876 145.826 238.12 146.218 237.448C146.629 236.776 147.292 236.244 148.206 235.852C149.121 235.46 150.334 235.264 151.846 235.264H156.186V237.588H152.098C150.904 237.588 150.101 237.784 149.69 238.176C149.28 238.549 149.074 239.016 149.074 239.576C149.074 240.211 149.326 240.715 149.83 241.088C150.334 241.461 151.034 241.648 151.93 241.648C152.789 241.648 153.554 241.452 154.226 241.06C154.917 240.668 155.412 240.089 155.71 239.324L156.298 241.424C155.962 242.301 155.356 242.983 154.478 243.468C153.62 243.953 152.528 244.196 151.202 244.196ZM170.59 244.196C169.022 244.196 167.622 243.869 166.39 243.216C165.176 242.544 164.224 241.629 163.534 240.472C162.843 239.315 162.498 237.999 162.498 236.524C162.498 235.031 162.843 233.715 163.534 232.576C164.224 231.419 165.176 230.513 166.39 229.86C167.622 229.207 169.022 228.88 170.59 228.88C172.046 228.88 173.324 229.179 174.426 229.776C175.546 230.355 176.395 231.213 176.974 232.352L174.286 233.92C173.838 233.211 173.287 232.688 172.634 232.352C171.999 232.016 171.308 231.848 170.562 231.848C169.703 231.848 168.928 232.035 168.238 232.408C167.547 232.781 167.006 233.323 166.614 234.032C166.222 234.723 166.026 235.553 166.026 236.524C166.026 237.495 166.222 238.335 166.614 239.044C167.006 239.735 167.547 240.267 168.238 240.64C168.928 241.013 169.703 241.2 170.562 241.2C171.308 241.2 171.999 241.032 172.634 240.696C173.287 240.36 173.838 239.837 174.286 239.128L176.974 240.696C176.395 241.816 175.546 242.684 174.426 243.3C173.324 243.897 172.046 244.196 170.59 244.196ZM188.346 228.88C189.541 228.88 190.605 229.113 191.538 229.58C192.49 230.047 193.237 230.765 193.778 231.736C194.32 232.688 194.59 233.92 194.59 235.432V244H191.09V235.88C191.09 234.555 190.773 233.565 190.138 232.912C189.522 232.259 188.654 231.932 187.534 231.932C186.713 231.932 185.985 232.1 185.35 232.436C184.716 232.772 184.221 233.276 183.866 233.948C183.53 234.601 183.362 235.432 183.362 236.44V244H179.862V223.224H183.362V233.08L182.606 231.848C183.129 230.896 183.885 230.168 184.874 229.664C185.882 229.141 187.04 228.88 188.346 228.88ZM213.489 244.196C211.958 244.196 210.595 243.869 209.401 243.216C208.206 242.544 207.263 241.629 206.573 240.472C205.882 239.315 205.537 237.999 205.537 236.524C205.537 235.031 205.882 233.715 206.573 232.576C207.263 231.419 208.206 230.513 209.401 229.86C210.595 229.207 211.958 228.88 213.489 228.88C215.038 228.88 216.41 229.207 217.605 229.86C218.818 230.513 219.761 231.409 220.433 232.548C221.123 233.687 221.469 235.012 221.469 236.524C221.469 237.999 221.123 239.315 220.433 240.472C219.761 241.629 218.818 242.544 217.605 243.216C216.41 243.869 215.038 244.196 213.489 244.196ZM213.489 241.2C214.347 241.2 215.113 241.013 215.785 240.64C216.457 240.267 216.979 239.725 217.353 239.016C217.745 238.307 217.941 237.476 217.941 236.524C217.941 235.553 217.745 234.723 217.353 234.032C216.979 233.323 216.457 232.781 215.785 232.408C215.113 232.035 214.357 231.848 213.517 231.848C212.658 231.848 211.893 232.035 211.221 232.408C210.567 232.781 210.045 233.323 209.653 234.032C209.261 234.723 209.065 235.553 209.065 236.524C209.065 237.476 209.261 238.307 209.653 239.016C210.045 239.725 210.567 240.267 211.221 240.64C211.893 241.013 212.649 241.2 213.489 241.2ZM225.292 244V228.208C225.292 226.64 225.749 225.389 226.664 224.456C227.597 223.504 228.922 223.028 230.64 223.028C231.256 223.028 231.834 223.093 232.376 223.224C232.936 223.355 233.402 223.56 233.776 223.84L232.824 226.472C232.562 226.267 232.264 226.117 231.928 226.024C231.592 225.912 231.246 225.856 230.892 225.856C230.164 225.856 229.613 226.061 229.24 226.472C228.866 226.864 228.68 227.461 228.68 228.264V229.944L228.792 231.512V244H225.292ZM222.828 231.96V229.16H232.796V231.96H222.828ZM235.71 244V228.208C235.71 226.64 236.167 225.389 237.082 224.456C238.015 223.504 239.34 223.028 241.058 223.028C241.674 223.028 242.252 223.093 242.794 223.224C243.354 223.355 243.82 223.56 244.194 223.84L243.242 226.472C242.98 226.267 242.682 226.117 242.346 226.024C242.01 225.912 241.664 225.856 241.31 225.856C240.582 225.856 240.031 226.061 239.658 226.472C239.284 226.864 239.098 227.461 239.098 228.264V229.944L239.21 231.512V244H235.71ZM233.246 231.96V229.16H243.214V231.96H233.246ZM252.379 244.196C250.717 244.196 249.261 243.869 248.011 243.216C246.779 242.544 245.817 241.629 245.127 240.472C244.455 239.315 244.119 237.999 244.119 236.524C244.119 235.031 244.445 233.715 245.099 232.576C245.771 231.419 246.685 230.513 247.843 229.86C249.019 229.207 250.353 228.88 251.847 228.88C253.303 228.88 254.6 229.197 255.739 229.832C256.877 230.467 257.773 231.363 258.427 232.52C259.08 233.677 259.407 235.04 259.407 236.608C259.407 236.757 259.397 236.925 259.379 237.112C259.379 237.299 259.369 237.476 259.351 237.644H246.891V235.32H257.503L256.131 236.048C256.149 235.189 255.972 234.433 255.599 233.78C255.225 233.127 254.712 232.613 254.059 232.24C253.424 231.867 252.687 231.68 251.847 231.68C250.988 231.68 250.232 231.867 249.579 232.24C248.944 232.613 248.44 233.136 248.067 233.808C247.712 234.461 247.535 235.236 247.535 236.132V236.692C247.535 237.588 247.74 238.381 248.151 239.072C248.561 239.763 249.14 240.295 249.887 240.668C250.633 241.041 251.492 241.228 252.463 241.228C253.303 241.228 254.059 241.097 254.731 240.836C255.403 240.575 256 240.164 256.523 239.604L258.399 241.76C257.727 242.544 256.877 243.151 255.851 243.58C254.843 243.991 253.685 244.196 252.379 244.196ZM262.769 244V229.048H266.101V233.164L265.709 231.96C266.157 230.952 266.857 230.187 267.809 229.664C268.779 229.141 269.983 228.88 271.421 228.88V232.212C271.271 232.175 271.131 232.156 271.001 232.156C270.87 232.137 270.739 232.128 270.609 232.128C269.283 232.128 268.229 232.52 267.445 233.304C266.661 234.069 266.269 235.217 266.269 236.748V244H262.769ZM275.373 244.196C274.738 244.196 274.197 243.981 273.749 243.552C273.301 243.104 273.077 242.544 273.077 241.872C273.077 241.163 273.301 240.603 273.749 240.192C274.197 239.763 274.738 239.548 275.373 239.548C276.008 239.548 276.549 239.763 276.997 240.192C277.445 240.603 277.669 241.163 277.669 241.872C277.669 242.544 277.445 243.104 276.997 243.552C276.549 243.981 276.008 244.196 275.373 244.196Z" fill="black"/>
<circle cx="67.5" cy="68.5" r="40.5" fill="#3131C6"/>
<path d="M59.752 90C58.0453 90 56.552 89.6373 55.272 88.912C53.992 88.144 52.9893 87.1413 52.264 85.904C51.5813 84.6667 51.24 83.28 51.24 81.744C51.24 80.2933 51.6027 78.8853 52.328 77.52C53.096 76.1547 54.0773 75.0453 55.272 74.192L69.032 64.336C69.9707 63.6533 70.6747 62.8427 71.144 61.904C71.6133 60.9653 71.848 59.984 71.848 58.96C71.848 57.7653 71.592 56.7627 71.08 55.952C70.568 55.0987 69.8427 54.4373 68.904 53.968C67.9653 53.4987 66.8347 53.264 65.512 53.264H53.672V45.2H66.6C69.544 45.2 72.0827 45.8187 74.216 47.056C76.3493 48.2933 77.992 49.9573 79.144 52.048C80.3387 54.096 80.936 56.4 80.936 58.96C80.936 61.52 80.424 63.7813 79.4 65.744C78.4187 67.664 76.7973 69.392 74.536 70.928L60.776 80.272C60.6907 80.3147 60.584 80.4213 60.456 80.592C60.328 80.72 60.264 80.8907 60.264 81.104C60.264 81.4027 60.3493 81.616 60.52 81.744C60.6907 81.872 60.9253 81.936 61.224 81.936H82.28V90H59.752Z" fill="white"/>
</svg>
