<svg width="370" height="370" viewBox="0 0 370 370" fill="none" xmlns="http://www.w3.org/2000/svg">
<path d="M21.2632 368H267.446V267.446H368V21.2631C368 16.1542 365.971 11.2546 362.358 7.64202C358.745 4.02947 353.846 1.99999 348.737 1.99999H21.2632C16.1543 1.99999 11.2546 4.02947 7.64205 7.64202C4.0295 11.2546 2 16.1542 2 21.2631L2 348.737C2 353.846 4.0295 358.745 7.64205 362.358C11.2546 365.97 16.1543 368 21.2632 368ZM267.446 368L368 267.446Z" fill="white"/>
<path d="M267.446 368H21.2632C16.1543 368 11.2546 365.97 7.64205 362.358C4.0295 358.745 2 353.846 2 348.737L2 21.2631C2 16.1542 4.0295 11.2546 7.64205 7.64202C11.2546 4.02947 16.1543 1.99999 21.2632 1.99999H348.737C353.846 1.99999 358.745 4.02947 362.358 7.64202C365.971 11.2546 368 16.1542 368 21.2631V267.446M267.446 368V267.446H368M267.446 368L368 267.446" stroke="#1E1E1E" stroke-width="3" stroke-linecap="round" stroke-linejoin="round"/>
<path d="M38.88 170.38L38.684 166.068L48.96 155.4H53.048L44.508 164.472L42.492 166.684L38.88 170.38ZM35.632 175V155.4H39.272V175H35.632ZM49.296 175L41.792 166.068L44.2 163.408L53.552 175H49.296ZM63.905 159.88C65.0997 159.88 66.1637 160.113 67.097 160.58C68.049 161.047 68.7957 161.765 69.337 162.736C69.8783 163.688 70.149 164.92 70.149 166.432V175H66.649V166.88C66.649 165.555 66.3317 164.565 65.697 163.912C65.081 163.259 64.213 162.932 63.093 162.932C62.2717 162.932 61.5437 163.1 60.909 163.436C60.2743 163.772 59.7797 164.276 59.425 164.948C59.089 165.601 58.921 166.432 58.921 167.44V175H55.421V160.048H58.753V164.08L58.165 162.848C58.6877 161.896 59.4437 161.168 60.433 160.664C61.441 160.141 62.5983 159.88 63.905 159.88ZM81.3363 175.196C79.8056 175.196 78.443 174.869 77.2483 174.216C76.0536 173.544 75.111 172.629 74.4203 171.472C73.7296 170.315 73.3843 168.999 73.3843 167.524C73.3843 166.031 73.7296 164.715 74.4203 163.576C75.111 162.419 76.0536 161.513 77.2483 160.86C78.443 160.207 79.8056 159.88 81.3363 159.88C82.8856 159.88 84.2576 160.207 85.4523 160.86C86.6656 161.513 87.6083 162.409 88.2803 163.548C88.971 164.687 89.3163 166.012 89.3163 167.524C89.3163 168.999 88.971 170.315 88.2803 171.472C87.6083 172.629 86.6656 173.544 85.4523 174.216C84.2576 174.869 82.8856 175.196 81.3363 175.196ZM81.3363 172.2C82.195 172.2 82.9603 172.013 83.6323 171.64C84.3043 171.267 84.827 170.725 85.2003 170.016C85.5923 169.307 85.7883 168.476 85.7883 167.524C85.7883 166.553 85.5923 165.723 85.2003 165.032C84.827 164.323 84.3043 163.781 83.6323 163.408C82.9603 163.035 82.2043 162.848 81.3643 162.848C80.5056 162.848 79.7403 163.035 79.0683 163.408C78.415 163.781 77.8923 164.323 77.5003 165.032C77.1083 165.723 76.9123 166.553 76.9123 167.524C76.9123 168.476 77.1083 169.307 77.5003 170.016C77.8923 170.725 78.415 171.267 79.0683 171.64C79.7403 172.013 80.4963 172.2 81.3363 172.2ZM95.557 175L90.069 160.048H93.373L98.077 173.236H96.509L101.437 160.048H104.377L109.165 173.236H107.625L112.469 160.048H115.577L110.061 175H106.701L102.333 163.324H103.369L98.917 175H95.557ZM132.05 175.196C130.78 175.196 129.66 174.963 128.69 174.496C127.719 174.011 126.963 173.283 126.422 172.312C125.88 171.323 125.61 170.081 125.61 168.588V160.048H129.11V168.112C129.11 169.456 129.408 170.464 130.006 171.136C130.622 171.789 131.49 172.116 132.61 172.116C133.431 172.116 134.14 171.948 134.738 171.612C135.354 171.276 135.83 170.772 136.166 170.1C136.52 169.428 136.698 168.597 136.698 167.608V160.048H140.198V175H136.866V170.968L137.454 172.2C136.95 173.171 136.212 173.917 135.242 174.44C134.271 174.944 133.207 175.196 132.05 175.196ZM153.068 175.196C151.855 175.196 150.744 174.916 149.736 174.356C148.747 173.796 147.954 172.956 147.356 171.836C146.778 170.697 146.488 169.26 146.488 167.524C146.488 165.769 146.768 164.332 147.328 163.212C147.907 162.092 148.691 161.261 149.68 160.72C150.67 160.16 151.799 159.88 153.068 159.88C154.543 159.88 155.84 160.197 156.96 160.832C158.099 161.467 158.995 162.353 159.648 163.492C160.32 164.631 160.656 165.975 160.656 167.524C160.656 169.073 160.32 170.427 159.648 171.584C158.995 172.723 158.099 173.609 156.96 174.244C155.84 174.879 154.543 175.196 153.068 175.196ZM144.78 180.432V160.048H148.112V163.576L148 167.552L148.28 171.528V180.432H144.78ZM152.676 172.2C153.516 172.2 154.263 172.013 154.916 171.64C155.588 171.267 156.12 170.725 156.512 170.016C156.904 169.307 157.1 168.476 157.1 167.524C157.1 166.553 156.904 165.723 156.512 165.032C156.12 164.323 155.588 163.781 154.916 163.408C154.263 163.035 153.516 162.848 152.676 162.848C151.836 162.848 151.08 163.035 150.408 163.408C149.736 163.781 149.204 164.323 148.812 165.032C148.42 165.723 148.224 166.553 148.224 167.524C148.224 168.476 148.42 169.307 148.812 170.016C149.204 170.725 149.736 171.267 150.408 171.64C151.08 172.013 151.836 172.2 152.676 172.2ZM164.452 175V159.208C164.452 157.64 164.909 156.389 165.824 155.456C166.757 154.504 168.082 154.028 169.8 154.028C170.416 154.028 170.994 154.093 171.536 154.224C172.096 154.355 172.562 154.56 172.936 154.84L171.984 157.472C171.722 157.267 171.424 157.117 171.088 157.024C170.752 156.912 170.406 156.856 170.052 156.856C169.324 156.856 168.773 157.061 168.4 157.472C168.026 157.864 167.84 158.461 167.84 159.264V160.944L167.952 162.512V175H164.452ZM161.988 162.96V160.16H171.956V162.96H161.988ZM174.339 175V160.048H177.671V164.164L177.279 162.96C177.727 161.952 178.427 161.187 179.379 160.664C180.35 160.141 181.554 159.88 182.991 159.88V163.212C182.842 163.175 182.702 163.156 182.571 163.156C182.44 163.137 182.31 163.128 182.179 163.128C180.854 163.128 179.799 163.52 179.015 164.304C178.231 165.069 177.839 166.217 177.839 167.748V175H174.339ZM192.543 175.196C191.013 175.196 189.65 174.869 188.455 174.216C187.261 173.544 186.318 172.629 185.627 171.472C184.937 170.315 184.591 168.999 184.591 167.524C184.591 166.031 184.937 164.715 185.627 163.576C186.318 162.419 187.261 161.513 188.455 160.86C189.65 160.207 191.013 159.88 192.543 159.88C194.093 159.88 195.465 160.207 196.659 160.86C197.873 161.513 198.815 162.409 199.487 163.548C200.178 164.687 200.523 166.012 200.523 167.524C200.523 168.999 200.178 170.315 199.487 171.472C198.815 172.629 197.873 173.544 196.659 174.216C195.465 174.869 194.093 175.196 192.543 175.196ZM192.543 172.2C193.402 172.2 194.167 172.013 194.839 171.64C195.511 171.267 196.034 170.725 196.407 170.016C196.799 169.307 196.995 168.476 196.995 167.524C196.995 166.553 196.799 165.723 196.407 165.032C196.034 164.323 195.511 163.781 194.839 163.408C194.167 163.035 193.411 162.848 192.571 162.848C191.713 162.848 190.947 163.035 190.275 163.408C189.622 163.781 189.099 164.323 188.707 165.032C188.315 165.723 188.119 166.553 188.119 167.524C188.119 168.476 188.315 169.307 188.707 170.016C189.099 170.725 189.622 171.267 190.275 171.64C190.947 172.013 191.703 172.2 192.543 172.2ZM212.354 159.88C213.549 159.88 214.613 160.113 215.546 160.58C216.498 161.047 217.245 161.765 217.786 162.736C218.328 163.688 218.598 164.92 218.598 166.432V175H215.098V166.88C215.098 165.555 214.781 164.565 214.146 163.912C213.53 163.259 212.662 162.932 211.542 162.932C210.721 162.932 209.993 163.1 209.358 163.436C208.724 163.772 208.229 164.276 207.874 164.948C207.538 165.601 207.37 166.432 207.37 167.44V175H203.87V160.048H207.202V164.08L206.614 162.848C207.137 161.896 207.893 161.168 208.882 160.664C209.89 160.141 211.048 159.88 212.354 159.88ZM228.666 175.196C227.024 175.196 225.754 174.776 224.858 173.936C223.962 173.077 223.514 171.817 223.514 170.156V156.744H227.014V170.072C227.014 170.781 227.192 171.332 227.546 171.724C227.92 172.116 228.433 172.312 229.086 172.312C229.87 172.312 230.524 172.107 231.046 171.696L232.026 174.188C231.616 174.524 231.112 174.776 230.514 174.944C229.917 175.112 229.301 175.196 228.666 175.196ZM221.05 162.96V160.16H231.018V162.96H221.05ZM251.128 159.88C252.322 159.88 253.386 160.113 254.32 160.58C255.272 161.047 256.018 161.765 256.56 162.736C257.101 163.688 257.372 164.92 257.372 166.432V175H253.872V166.88C253.872 165.555 253.554 164.565 252.92 163.912C252.304 163.259 251.436 162.932 250.316 162.932C249.494 162.932 248.766 163.1 248.132 163.436C247.497 163.772 247.002 164.276 246.648 164.948C246.312 165.601 246.144 166.432 246.144 167.44V175H242.644V154.224H246.144V164.08L245.388 162.848C245.91 161.896 246.666 161.168 247.656 160.664C248.664 160.141 249.821 159.88 251.128 159.88ZM268.559 175.196C267.028 175.196 265.666 174.869 264.471 174.216C263.276 173.544 262.334 172.629 261.643 171.472C260.952 170.315 260.607 168.999 260.607 167.524C260.607 166.031 260.952 164.715 261.643 163.576C262.334 162.419 263.276 161.513 264.471 160.86C265.666 160.207 267.028 159.88 268.559 159.88C270.108 159.88 271.48 160.207 272.675 160.86C273.888 161.513 274.831 162.409 275.503 163.548C276.194 164.687 276.539 166.012 276.539 167.524C276.539 168.999 276.194 170.315 275.503 171.472C274.831 172.629 273.888 173.544 272.675 174.216C271.48 174.869 270.108 175.196 268.559 175.196ZM268.559 172.2C269.418 172.2 270.183 172.013 270.855 171.64C271.527 171.267 272.05 170.725 272.423 170.016C272.815 169.307 273.011 168.476 273.011 167.524C273.011 166.553 272.815 165.723 272.423 165.032C272.05 164.323 271.527 163.781 270.855 163.408C270.183 163.035 269.427 162.848 268.587 162.848C267.728 162.848 266.963 163.035 266.291 163.408C265.638 163.781 265.115 164.323 264.723 165.032C264.331 165.723 264.135 166.553 264.135 167.524C264.135 168.476 264.331 169.307 264.723 170.016C265.115 170.725 265.638 171.267 266.291 171.64C266.963 172.013 267.719 172.2 268.559 172.2ZM282.78 175L277.292 160.048H280.596L285.3 173.236H283.732L288.66 160.048H291.6L296.388 173.236H294.848L299.692 160.048H302.8L297.284 175H293.924L289.556 163.324H290.592L286.14 175H282.78ZM54.168 193.88C55.3627 193.88 56.4173 194.113 57.332 194.58C58.2653 195.047 58.9933 195.765 59.516 196.736C60.0387 197.688 60.3 198.92 60.3 200.432V209H56.8V200.88C56.8 199.555 56.5107 198.565 55.932 197.912C55.3533 197.259 54.5227 196.932 53.44 196.932C52.6747 196.932 51.9933 197.1 51.396 197.436C50.8173 197.772 50.36 198.267 50.024 198.92C49.7067 199.573 49.548 200.404 49.548 201.412V209H46.048V200.88C46.048 199.555 45.7587 198.565 45.18 197.912C44.6013 197.259 43.7707 196.932 42.688 196.932C41.9227 196.932 41.2413 197.1 40.644 197.436C40.0653 197.772 39.608 198.267 39.272 198.92C38.9547 199.573 38.796 200.404 38.796 201.412V209H35.296V194.048H38.628V198.024L38.04 196.848C38.544 195.877 39.272 195.14 40.224 194.636C41.1947 194.132 42.296 193.88 43.528 193.88C44.928 193.88 46.1413 194.225 47.168 194.916C48.2133 195.607 48.904 196.652 49.24 198.052L47.868 197.576C48.3533 196.456 49.156 195.56 50.276 194.888C51.396 194.216 52.6933 193.88 54.168 193.88ZM71.1006 209.196C69.8312 209.196 68.7112 208.963 67.7406 208.496C66.7699 208.011 66.0139 207.283 65.4726 206.312C64.9312 205.323 64.6606 204.081 64.6606 202.588V194.048H68.1606V202.112C68.1606 203.456 68.4592 204.464 69.0566 205.136C69.6726 205.789 70.5406 206.116 71.6606 206.116C72.4819 206.116 73.1912 205.948 73.7886 205.612C74.4046 205.276 74.8806 204.772 75.2166 204.1C75.5712 203.428 75.7486 202.597 75.7486 201.608V194.048H79.2486V209H75.9166V204.968L76.5046 206.2C76.0006 207.171 75.2632 207.917 74.2926 208.44C73.3219 208.944 72.2579 209.196 71.1006 209.196ZM90.6912 209.196C89.1232 209.196 87.7232 208.869 86.4912 208.216C85.2778 207.544 84.3258 206.629 83.6352 205.472C82.9445 204.315 82.5992 202.999 82.5992 201.524C82.5992 200.031 82.9445 198.715 83.6352 197.576C84.3258 196.419 85.2778 195.513 86.4912 194.86C87.7232 194.207 89.1232 193.88 90.6912 193.88C92.1472 193.88 93.4258 194.179 94.5272 194.776C95.6472 195.355 96.4965 196.213 97.0752 197.352L94.3872 198.92C93.9392 198.211 93.3885 197.688 92.7352 197.352C92.1005 197.016 91.4098 196.848 90.6632 196.848C89.8045 196.848 89.0298 197.035 88.3392 197.408C87.6485 197.781 87.1072 198.323 86.7152 199.032C86.3232 199.723 86.1272 200.553 86.1272 201.524C86.1272 202.495 86.3232 203.335 86.7152 204.044C87.1072 204.735 87.6485 205.267 88.3392 205.64C89.0298 206.013 89.8045 206.2 90.6632 206.2C91.4098 206.2 92.1005 206.032 92.7352 205.696C93.3885 205.36 93.9392 204.837 94.3872 204.128L97.0752 205.696C96.4965 206.816 95.6472 207.684 94.5272 208.3C93.4258 208.897 92.1472 209.196 90.6912 209.196ZM108.448 193.88C109.643 193.88 110.707 194.113 111.64 194.58C112.592 195.047 113.339 195.765 113.88 196.736C114.421 197.688 114.692 198.92 114.692 200.432V209H111.192V200.88C111.192 199.555 110.875 198.565 110.24 197.912C109.624 197.259 108.756 196.932 107.636 196.932C106.815 196.932 106.087 197.1 105.452 197.436C104.817 197.772 104.323 198.276 103.968 198.948C103.632 199.601 103.464 200.432 103.464 201.44V209H99.964V188.224H103.464V198.08L102.708 196.848C103.231 195.896 103.987 195.168 104.976 194.664C105.984 194.141 107.141 193.88 108.448 193.88ZM128.102 214.628C127.374 214.628 126.646 214.507 125.918 214.264C125.19 214.021 124.584 213.685 124.098 213.256L125.498 210.68C125.853 210.997 126.254 211.249 126.702 211.436C127.15 211.623 127.608 211.716 128.074 211.716C128.709 211.716 129.222 211.557 129.614 211.24C130.006 210.923 130.37 210.391 130.706 209.644L131.574 207.684L131.854 207.264L137.51 194.048H140.87L133.87 210.204C133.404 211.324 132.881 212.211 132.302 212.864C131.742 213.517 131.108 213.975 130.398 214.236C129.708 214.497 128.942 214.628 128.102 214.628ZM131.182 209.532L124.434 194.048H128.074L133.562 206.956L131.182 209.532ZM149.368 209.196C147.837 209.196 146.474 208.869 145.28 208.216C144.085 207.544 143.142 206.629 142.452 205.472C141.761 204.315 141.416 202.999 141.416 201.524C141.416 200.031 141.761 198.715 142.452 197.576C143.142 196.419 144.085 195.513 145.28 194.86C146.474 194.207 147.837 193.88 149.368 193.88C150.917 193.88 152.289 194.207 153.484 194.86C154.697 195.513 155.64 196.409 156.312 197.548C157.002 198.687 157.348 200.012 157.348 201.524C157.348 202.999 157.002 204.315 156.312 205.472C155.64 206.629 154.697 207.544 153.484 208.216C152.289 208.869 150.917 209.196 149.368 209.196ZM149.368 206.2C150.226 206.2 150.992 206.013 151.664 205.64C152.336 205.267 152.858 204.725 153.232 204.016C153.624 203.307 153.82 202.476 153.82 201.524C153.82 200.553 153.624 199.723 153.232 199.032C152.858 198.323 152.336 197.781 151.664 197.408C150.992 197.035 150.236 196.848 149.396 196.848C148.537 196.848 147.772 197.035 147.1 197.408C146.446 197.781 145.924 198.323 145.532 199.032C145.14 199.723 144.944 200.553 144.944 201.524C144.944 202.476 145.14 203.307 145.532 204.016C145.924 204.725 146.446 205.267 147.1 205.64C147.772 206.013 148.528 206.2 149.368 206.2ZM167.022 209.196C165.753 209.196 164.633 208.963 163.662 208.496C162.692 208.011 161.936 207.283 161.394 206.312C160.853 205.323 160.582 204.081 160.582 202.588V194.048H164.082V202.112C164.082 203.456 164.381 204.464 164.978 205.136C165.594 205.789 166.462 206.116 167.582 206.116C168.404 206.116 169.113 205.948 169.71 205.612C170.326 205.276 170.802 204.772 171.138 204.1C171.493 203.428 171.67 202.597 171.67 201.608V194.048H175.17V209H171.838V204.968L172.426 206.2C171.922 207.171 171.185 207.917 170.214 208.44C169.244 208.944 168.18 209.196 167.022 209.196ZM178.829 196.708L180.453 190.492L180.929 192.592C180.276 192.592 179.725 192.387 179.277 191.976C178.848 191.565 178.633 191.015 178.633 190.324C178.633 189.633 178.848 189.083 179.277 188.672C179.725 188.243 180.266 188.028 180.901 188.028C181.554 188.028 182.096 188.243 182.525 188.672C182.954 189.101 183.169 189.652 183.169 190.324C183.169 190.529 183.15 190.744 183.113 190.968C183.094 191.173 183.038 191.416 182.945 191.696C182.87 191.957 182.74 192.303 182.553 192.732L181.097 196.708H178.829ZM186.589 209V188.224H190.089V209H186.589ZM194.683 209V188.224H198.183V209H194.683ZM217.375 209.196C215.807 209.196 214.407 208.869 213.175 208.216C211.961 207.544 211.009 206.629 210.319 205.472C209.628 204.315 209.283 202.999 209.283 201.524C209.283 200.031 209.628 198.715 210.319 197.576C211.009 196.419 211.961 195.513 213.175 194.86C214.407 194.207 215.807 193.88 217.375 193.88C218.831 193.88 220.109 194.179 221.211 194.776C222.331 195.355 223.18 196.213 223.759 197.352L221.071 198.92C220.623 198.211 220.072 197.688 219.419 197.352C218.784 197.016 218.093 196.848 217.347 196.848C216.488 196.848 215.713 197.035 215.023 197.408C214.332 197.781 213.791 198.323 213.399 199.032C213.007 199.723 212.811 200.553 212.811 201.524C212.811 202.495 213.007 203.335 213.399 204.044C213.791 204.735 214.332 205.267 215.023 205.64C215.713 206.013 216.488 206.2 217.347 206.2C218.093 206.2 218.784 206.032 219.419 205.696C220.072 205.36 220.623 204.837 221.071 204.128L223.759 205.696C223.18 206.816 222.331 207.684 221.211 208.3C220.109 208.897 218.831 209.196 217.375 209.196ZM235.996 209V205.976L235.8 205.332V200.04C235.8 199.013 235.492 198.22 234.876 197.66C234.26 197.081 233.327 196.792 232.076 196.792C231.236 196.792 230.406 196.923 229.584 197.184C228.782 197.445 228.1 197.809 227.54 198.276L226.168 195.728C226.971 195.112 227.923 194.655 229.024 194.356C230.144 194.039 231.302 193.88 232.496 193.88C234.662 193.88 236.332 194.403 237.508 195.448C238.703 196.475 239.3 198.071 239.3 200.236V209H235.996ZM231.292 209.196C230.172 209.196 229.192 209.009 228.352 208.636C227.512 208.244 226.859 207.712 226.392 207.04C225.944 206.349 225.72 205.575 225.72 204.716C225.72 203.876 225.916 203.12 226.308 202.448C226.719 201.776 227.382 201.244 228.296 200.852C229.211 200.46 230.424 200.264 231.936 200.264H236.276V202.588H232.188C230.994 202.588 230.191 202.784 229.78 203.176C229.37 203.549 229.164 204.016 229.164 204.576C229.164 205.211 229.416 205.715 229.92 206.088C230.424 206.461 231.124 206.648 232.02 206.648C232.879 206.648 233.644 206.452 234.316 206.06C235.007 205.668 235.502 205.089 235.8 204.324L236.388 206.424C236.052 207.301 235.446 207.983 234.568 208.468C233.71 208.953 232.618 209.196 231.292 209.196ZM252.276 193.88C253.471 193.88 254.535 194.113 255.468 194.58C256.42 195.047 257.167 195.765 257.708 196.736C258.249 197.688 258.52 198.92 258.52 200.432V209H255.02V200.88C255.02 199.555 254.703 198.565 254.068 197.912C253.452 197.259 252.584 196.932 251.464 196.932C250.643 196.932 249.915 197.1 249.28 197.436C248.645 197.772 248.151 198.276 247.796 198.948C247.46 199.601 247.292 200.432 247.292 201.44V209H243.792V194.048H247.124V198.08L246.536 196.848C247.059 195.896 247.815 195.168 248.804 194.664C249.812 194.141 250.969 193.88 252.276 193.88ZM42.324 243.196C40.6627 243.196 39.2067 242.869 37.956 242.216C36.724 241.544 35.7627 240.629 35.072 239.472C34.4 238.315 34.064 236.999 34.064 235.524C34.064 234.031 34.3907 232.715 35.044 231.576C35.716 230.419 36.6307 229.513 37.788 228.86C38.964 228.207 40.2987 227.88 41.792 227.88C43.248 227.88 44.5453 228.197 45.684 228.832C46.8227 229.467 47.7187 230.363 48.372 231.52C49.0253 232.677 49.352 234.04 49.352 235.608C49.352 235.757 49.3427 235.925 49.324 236.112C49.324 236.299 49.3147 236.476 49.296 236.644H36.836V234.32H47.448L46.076 235.048C46.0947 234.189 45.9173 233.433 45.544 232.78C45.1707 232.127 44.6573 231.613 44.004 231.24C43.3693 230.867 42.632 230.68 41.792 230.68C40.9333 230.68 40.1773 230.867 39.524 231.24C38.8893 231.613 38.3853 232.136 38.012 232.808C37.6573 233.461 37.48 234.236 37.48 235.132V235.692C37.48 236.588 37.6853 237.381 38.096 238.072C38.5067 238.763 39.0853 239.295 39.832 239.668C40.5787 240.041 41.4373 240.228 42.408 240.228C43.248 240.228 44.004 240.097 44.676 239.836C45.348 239.575 45.9453 239.164 46.468 238.604L48.344 240.76C47.672 241.544 46.8227 242.151 45.796 242.58C44.788 242.991 43.6307 243.196 42.324 243.196ZM61.5158 243V239.976L61.3198 239.332V234.04C61.3198 233.013 61.0118 232.22 60.3958 231.66C59.7798 231.081 58.8465 230.792 57.5958 230.792C56.7558 230.792 55.9251 230.923 55.1038 231.184C54.3011 231.445 53.6198 231.809 53.0598 232.276L51.6878 229.728C52.4905 229.112 53.4425 228.655 54.5438 228.356C55.6638 228.039 56.8211 227.88 58.0158 227.88C60.1811 227.88 61.8518 228.403 63.0278 229.448C64.2225 230.475 64.8198 232.071 64.8198 234.236V243H61.5158ZM56.8118 243.196C55.6918 243.196 54.7118 243.009 53.8718 242.636C53.0318 242.244 52.3785 241.712 51.9118 241.04C51.4638 240.349 51.2398 239.575 51.2398 238.716C51.2398 237.876 51.4358 237.12 51.8278 236.448C52.2385 235.776 52.9011 235.244 53.8158 234.852C54.7305 234.46 55.9438 234.264 57.4558 234.264H61.7958V236.588H57.7078C56.5131 236.588 55.7105 236.784 55.2998 237.176C54.8891 237.549 54.6838 238.016 54.6838 238.576C54.6838 239.211 54.9358 239.715 55.4398 240.088C55.9438 240.461 56.6438 240.648 57.5398 240.648C58.3985 240.648 59.1638 240.452 59.8358 240.06C60.5265 239.668 61.0211 239.089 61.3198 238.324L61.9078 240.424C61.5718 241.301 60.9651 241.983 60.0878 242.468C59.2291 242.953 58.1371 243.196 56.8118 243.196ZM69.3116 243V228.048H72.6436V232.164L72.2516 230.96C72.6996 229.952 73.3996 229.187 74.3516 228.664C75.3223 228.141 76.5263 227.88 77.9636 227.88V231.212C77.8143 231.175 77.6743 231.156 77.5436 231.156C77.413 231.137 77.2823 231.128 77.1516 231.128C75.8263 231.128 74.7716 231.52 73.9876 232.304C73.2036 233.069 72.8116 234.217 72.8116 235.748V243H69.3116ZM89.4167 227.88C90.6114 227.88 91.6754 228.113 92.6087 228.58C93.5607 229.047 94.3074 229.765 94.8487 230.736C95.3901 231.688 95.6607 232.92 95.6607 234.432V243H92.1607V234.88C92.1607 233.555 91.8434 232.565 91.2087 231.912C90.5927 231.259 89.7247 230.932 88.6047 230.932C87.7834 230.932 87.0554 231.1 86.4207 231.436C85.7861 231.772 85.2914 232.276 84.9367 232.948C84.6007 233.601 84.4327 234.432 84.4327 235.44V243H80.9327V228.048H84.2647V232.08L83.6767 230.848C84.1994 229.896 84.9554 229.168 85.9447 228.664C86.9527 228.141 88.1101 227.88 89.4167 227.88ZM101.221 243.196C100.586 243.196 100.045 242.981 99.5967 242.552C99.1487 242.104 98.9247 241.544 98.9247 240.872C98.9247 240.163 99.1487 239.603 99.5967 239.192C100.045 238.763 100.586 238.548 101.221 238.548C101.855 238.548 102.397 238.763 102.845 239.192C103.293 239.603 103.517 240.163 103.517 240.872C103.517 241.544 103.293 242.104 102.845 242.552C102.397 242.981 101.855 243.196 101.221 243.196Z" fill="black"/>
<circle cx="73.5" cy="68.5" r="40.5" fill="#3131C6"/>
<path d="M61.2 90V81.936H76.496C77.4773 81.936 78.3733 81.7013 79.184 81.232C79.9947 80.7627 80.6347 80.1227 81.104 79.312C81.5733 78.5013 81.808 77.6053 81.808 76.624C81.808 75.6427 81.5733 74.7467 81.104 73.936C80.6347 73.1253 79.9947 72.4853 79.184 72.016C78.3733 71.504 77.4773 71.248 76.496 71.248H63.376V63.184H76.88C77.8187 63.184 78.6507 62.9707 79.376 62.544C80.1013 62.0747 80.6773 61.4773 81.104 60.752C81.5733 59.984 81.808 59.152 81.808 58.256C81.808 57.3173 81.5733 56.4853 81.104 55.76C80.6773 54.992 80.1013 54.3947 79.376 53.968C78.6507 53.4987 77.8187 53.264 76.88 53.264H61.2V45.2H77.904C80.336 45.2 82.5333 45.7973 84.496 46.992C86.4587 48.144 88.016 49.7013 89.168 51.664C90.3627 53.6267 90.96 55.824 90.96 58.256C90.96 60.0053 90.576 61.6693 89.808 63.248C89.04 64.8267 87.9947 66.2133 86.672 67.408C87.568 68.176 88.336 69.0507 88.976 70.032C89.616 71.0133 90.1067 72.0587 90.448 73.168C90.7893 74.2773 90.96 75.4293 90.96 76.624C90.96 79.0987 90.3627 81.36 89.168 83.408C87.9733 85.4133 86.352 87.0133 84.304 88.208C82.2987 89.4027 80.0587 90 77.584 90H61.2Z" fill="white"/>
</svg>
