<svg width="370" height="370" viewBox="0 0 370 370" fill="none" xmlns="http://www.w3.org/2000/svg">
<path d="M21.2632 368H267.446V267.446H368V21.2631C368 16.1542 365.971 11.2546 362.358 7.64201C358.745 4.02947 353.846 1.99998 348.737 1.99998H21.2632C16.1543 1.99998 11.2546 4.02947 7.64205 7.64201C4.0295 11.2546 2 16.1542 2 21.2631L2 348.737C2 353.846 4.0295 358.745 7.64205 362.358C11.2546 365.97 16.1543 368 21.2632 368V368ZM267.446 368L368 267.446Z" fill="white"/>
<path d="M267.446 368L368 267.446M21.2632 368H267.446V267.446H368V21.2631C368 16.1542 365.971 11.2546 362.358 7.64201C358.745 4.02947 353.846 1.99998 348.737 1.99998H21.2632C16.1543 1.99998 11.2546 4.02947 7.64205 7.64201C4.0295 11.2546 2 16.1542 2 21.2631L2 348.737C2 353.846 4.0295 358.745 7.64205 362.358C11.2546 365.97 16.1543 368 21.2632 368V368Z" stroke="#1E1E1E" stroke-width="3" stroke-linecap="round" stroke-linejoin="round"/>
<path d="M37.704 182.28C36.2107 182.28 34.82 182.037 33.532 181.552C32.2627 181.048 31.152 180.348 30.2 179.452C29.2667 178.537 28.5387 177.464 28.016 176.232C27.4933 175 27.232 173.656 27.232 172.2C27.232 170.744 27.4933 169.4 28.016 168.168C28.5387 166.936 29.276 165.872 30.228 164.976C31.18 164.061 32.2907 163.361 33.56 162.876C34.8293 162.372 36.22 162.12 37.732 162.12C39.3373 162.12 40.8027 162.4 42.128 162.96C43.4533 163.501 44.5733 164.313 45.488 165.396L43.136 167.608C42.4267 166.843 41.6333 166.273 40.756 165.9C39.8787 165.508 38.9267 165.312 37.9 165.312C36.8733 165.312 35.9307 165.48 35.072 165.816C34.232 166.152 33.4947 166.628 32.86 167.244C32.244 167.86 31.7587 168.588 31.404 169.428C31.068 170.268 30.9 171.192 30.9 172.2C30.9 173.208 31.068 174.132 31.404 174.972C31.7587 175.812 32.244 176.54 32.86 177.156C33.4947 177.772 34.232 178.248 35.072 178.584C35.9307 178.92 36.8733 179.088 37.9 179.088C38.9267 179.088 39.8787 178.901 40.756 178.528C41.6333 178.136 42.4267 177.548 43.136 176.764L45.488 179.004C44.5733 180.068 43.4533 180.88 42.128 181.44C40.8027 182 39.328 182.28 37.704 182.28ZM57.1238 166.88C58.3184 166.88 59.3824 167.113 60.3158 167.58C61.2678 168.047 62.0144 168.765 62.5558 169.736C63.0971 170.688 63.3678 171.92 63.3678 173.432V182H59.8678V173.88C59.8678 172.555 59.5504 171.565 58.9158 170.912C58.2998 170.259 57.4318 169.932 56.3118 169.932C55.4904 169.932 54.7624 170.1 54.1278 170.436C53.4931 170.772 52.9984 171.276 52.6438 171.948C52.3078 172.601 52.1398 173.432 52.1398 174.44V182H48.6398V161.224H52.1398V171.08L51.3838 169.848C51.9064 168.896 52.6624 168.168 53.6518 167.664C54.6598 167.141 55.8171 166.88 57.1238 166.88ZM74.5551 182.196C73.0244 182.196 71.6617 181.869 70.4671 181.216C69.2724 180.544 68.3297 179.629 67.6391 178.472C66.9484 177.315 66.6031 175.999 66.6031 174.524C66.6031 173.031 66.9484 171.715 67.6391 170.576C68.3297 169.419 69.2724 168.513 70.4671 167.86C71.6617 167.207 73.0244 166.88 74.5551 166.88C76.1044 166.88 77.4764 167.207 78.6711 167.86C79.8844 168.513 80.8271 169.409 81.4991 170.548C82.1897 171.687 82.5351 173.012 82.5351 174.524C82.5351 175.999 82.1897 177.315 81.4991 178.472C80.8271 179.629 79.8844 180.544 78.6711 181.216C77.4764 181.869 76.1044 182.196 74.5551 182.196ZM74.5551 179.2C75.4137 179.2 76.1791 179.013 76.8511 178.64C77.5231 178.267 78.0457 177.725 78.4191 177.016C78.8111 176.307 79.0071 175.476 79.0071 174.524C79.0071 173.553 78.8111 172.723 78.4191 172.032C78.0457 171.323 77.5231 170.781 76.8511 170.408C76.1791 170.035 75.4231 169.848 74.5831 169.848C73.7244 169.848 72.9591 170.035 72.2871 170.408C71.6337 170.781 71.1111 171.323 70.7191 172.032C70.3271 172.723 70.1311 173.553 70.1311 174.524C70.1311 175.476 70.3271 176.307 70.7191 177.016C71.1111 177.725 71.6337 178.267 72.2871 178.64C72.9591 179.013 73.7151 179.2 74.5551 179.2ZM92.6019 182.196C91.0713 182.196 89.7086 181.869 88.5139 181.216C87.3193 180.544 86.3766 179.629 85.6859 178.472C84.9953 177.315 84.6499 175.999 84.6499 174.524C84.6499 173.031 84.9953 171.715 85.6859 170.576C86.3766 169.419 87.3193 168.513 88.5139 167.86C89.7086 167.207 91.0713 166.88 92.6019 166.88C94.1513 166.88 95.5233 167.207 96.7179 167.86C97.9313 168.513 98.8739 169.409 99.5459 170.548C100.237 171.687 100.582 173.012 100.582 174.524C100.582 175.999 100.237 177.315 99.5459 178.472C98.8739 179.629 97.9313 180.544 96.7179 181.216C95.5233 181.869 94.1513 182.196 92.6019 182.196ZM92.6019 179.2C93.4606 179.2 94.2259 179.013 94.8979 178.64C95.5699 178.267 96.0926 177.725 96.4659 177.016C96.8579 176.307 97.0539 175.476 97.0539 174.524C97.0539 173.553 96.8579 172.723 96.4659 172.032C96.0926 171.323 95.5699 170.781 94.8979 170.408C94.2259 170.035 93.4699 169.848 92.6299 169.848C91.7713 169.848 91.0059 170.035 90.3339 170.408C89.6806 170.781 89.1579 171.323 88.7659 172.032C88.3739 172.723 88.1779 173.553 88.1779 174.524C88.1779 175.476 88.3739 176.307 88.7659 177.016C89.1579 177.725 89.6806 178.267 90.3339 178.64C91.0059 179.013 91.7619 179.2 92.6019 179.2ZM108.549 182.196C107.298 182.196 106.094 182.037 104.937 181.72C103.798 181.384 102.893 180.983 102.221 180.516L103.565 177.856C104.237 178.285 105.039 178.64 105.973 178.92C106.906 179.2 107.839 179.34 108.773 179.34C109.874 179.34 110.667 179.191 111.153 178.892C111.657 178.593 111.909 178.192 111.909 177.688C111.909 177.277 111.741 176.969 111.405 176.764C111.069 176.54 110.63 176.372 110.089 176.26C109.547 176.148 108.941 176.045 108.269 175.952C107.615 175.859 106.953 175.737 106.281 175.588C105.627 175.42 105.03 175.187 104.489 174.888C103.947 174.571 103.509 174.151 103.173 173.628C102.837 173.105 102.669 172.415 102.669 171.556C102.669 170.604 102.939 169.783 103.481 169.092C104.022 168.383 104.778 167.841 105.749 167.468C106.738 167.076 107.905 166.88 109.249 166.88C110.257 166.88 111.274 166.992 112.301 167.216C113.327 167.44 114.177 167.757 114.849 168.168L113.505 170.828C112.795 170.399 112.077 170.109 111.349 169.96C110.639 169.792 109.93 169.708 109.221 169.708C108.157 169.708 107.363 169.867 106.841 170.184C106.337 170.501 106.085 170.903 106.085 171.388C106.085 171.836 106.253 172.172 106.589 172.396C106.925 172.62 107.363 172.797 107.905 172.928C108.446 173.059 109.043 173.171 109.697 173.264C110.369 173.339 111.031 173.46 111.685 173.628C112.338 173.796 112.935 174.029 113.477 174.328C114.037 174.608 114.485 175.009 114.821 175.532C115.157 176.055 115.325 176.736 115.325 177.576C115.325 178.509 115.045 179.321 114.485 180.012C113.943 180.703 113.169 181.244 112.161 181.636C111.153 182.009 109.949 182.196 108.549 182.196ZM125.367 182.196C123.706 182.196 122.25 181.869 120.999 181.216C119.767 180.544 118.806 179.629 118.115 178.472C117.443 177.315 117.107 175.999 117.107 174.524C117.107 173.031 117.434 171.715 118.087 170.576C118.759 169.419 119.674 168.513 120.831 167.86C122.007 167.207 123.342 166.88 124.835 166.88C126.291 166.88 127.588 167.197 128.727 167.832C129.866 168.467 130.762 169.363 131.415 170.52C132.068 171.677 132.395 173.04 132.395 174.608C132.395 174.757 132.386 174.925 132.367 175.112C132.367 175.299 132.358 175.476 132.339 175.644H119.879V173.32H130.491L129.119 174.048C129.138 173.189 128.96 172.433 128.587 171.78C128.214 171.127 127.7 170.613 127.047 170.24C126.412 169.867 125.675 169.68 124.835 169.68C123.976 169.68 123.22 169.867 122.567 170.24C121.932 170.613 121.428 171.136 121.055 171.808C120.7 172.461 120.523 173.236 120.523 174.132V174.692C120.523 175.588 120.728 176.381 121.139 177.072C121.55 177.763 122.128 178.295 122.875 178.668C123.622 179.041 124.48 179.228 125.451 179.228C126.291 179.228 127.047 179.097 127.719 178.836C128.391 178.575 128.988 178.164 129.511 177.604L131.387 179.76C130.715 180.544 129.866 181.151 128.839 181.58C127.831 181.991 126.674 182.196 125.367 182.196ZM143.971 182V166.208C143.971 164.64 144.429 163.389 145.343 162.456C146.277 161.504 147.602 161.028 149.319 161.028C149.935 161.028 150.514 161.093 151.055 161.224C151.615 161.355 152.082 161.56 152.455 161.84L151.503 164.472C151.242 164.267 150.943 164.117 150.607 164.024C150.271 163.912 149.926 163.856 149.571 163.856C148.843 163.856 148.293 164.061 147.919 164.472C147.546 164.864 147.359 165.461 147.359 166.264V167.944L147.471 169.512V182H143.971ZM141.507 169.96V167.16H151.475V169.96H141.507ZM153.859 182V167.048H157.191V171.164L156.799 169.96C157.247 168.952 157.947 168.187 158.899 167.664C159.869 167.141 161.073 166.88 162.511 166.88V170.212C162.361 170.175 162.221 170.156 162.091 170.156C161.96 170.137 161.829 170.128 161.699 170.128C160.373 170.128 159.319 170.52 158.535 171.304C157.751 172.069 157.359 173.217 157.359 174.748V182H153.859ZM172.063 182.196C170.532 182.196 169.17 181.869 167.975 181.216C166.78 180.544 165.838 179.629 165.147 178.472C164.456 177.315 164.111 175.999 164.111 174.524C164.111 173.031 164.456 171.715 165.147 170.576C165.838 169.419 166.78 168.513 167.975 167.86C169.17 167.207 170.532 166.88 172.063 166.88C173.612 166.88 174.984 167.207 176.179 167.86C177.392 168.513 178.335 169.409 179.007 170.548C179.698 171.687 180.043 173.012 180.043 174.524C180.043 175.999 179.698 177.315 179.007 178.472C178.335 179.629 177.392 180.544 176.179 181.216C174.984 181.869 173.612 182.196 172.063 182.196ZM172.063 179.2C172.922 179.2 173.687 179.013 174.359 178.64C175.031 178.267 175.554 177.725 175.927 177.016C176.319 176.307 176.515 175.476 176.515 174.524C176.515 173.553 176.319 172.723 175.927 172.032C175.554 171.323 175.031 170.781 174.359 170.408C173.687 170.035 172.931 169.848 172.091 169.848C171.232 169.848 170.467 170.035 169.795 170.408C169.142 170.781 168.619 171.323 168.227 172.032C167.835 172.723 167.639 173.553 167.639 174.524C167.639 175.476 167.835 176.307 168.227 177.016C168.619 177.725 169.142 178.267 169.795 178.64C170.467 179.013 171.223 179.2 172.063 179.2ZM202.262 166.88C203.456 166.88 204.511 167.113 205.426 167.58C206.359 168.047 207.087 168.765 207.61 169.736C208.132 170.688 208.394 171.92 208.394 173.432V182H204.894V173.88C204.894 172.555 204.604 171.565 204.026 170.912C203.447 170.259 202.616 169.932 201.534 169.932C200.768 169.932 200.087 170.1 199.49 170.436C198.911 170.772 198.454 171.267 198.118 171.92C197.8 172.573 197.642 173.404 197.642 174.412V182H194.142V173.88C194.142 172.555 193.852 171.565 193.274 170.912C192.695 170.259 191.864 169.932 190.782 169.932C190.016 169.932 189.335 170.1 188.738 170.436C188.159 170.772 187.702 171.267 187.366 171.92C187.048 172.573 186.89 173.404 186.89 174.412V182H183.39V167.048H186.722V171.024L186.134 169.848C186.638 168.877 187.366 168.14 188.318 167.636C189.288 167.132 190.39 166.88 191.622 166.88C193.022 166.88 194.235 167.225 195.262 167.916C196.307 168.607 196.998 169.652 197.334 171.052L195.962 170.576C196.447 169.456 197.25 168.56 198.37 167.888C199.49 167.216 200.787 166.88 202.262 166.88ZM229.817 182V178.976L229.621 178.332V173.04C229.621 172.013 229.313 171.22 228.697 170.66C228.081 170.081 227.147 169.792 225.897 169.792C225.057 169.792 224.226 169.923 223.405 170.184C222.602 170.445 221.921 170.809 221.361 171.276L219.989 168.728C220.791 168.112 221.743 167.655 222.845 167.356C223.965 167.039 225.122 166.88 226.317 166.88C228.482 166.88 230.153 167.403 231.329 168.448C232.523 169.475 233.121 171.071 233.121 173.236V182H229.817ZM225.113 182.196C223.993 182.196 223.013 182.009 222.173 181.636C221.333 181.244 220.679 180.712 220.213 180.04C219.765 179.349 219.541 178.575 219.541 177.716C219.541 176.876 219.737 176.12 220.129 175.448C220.539 174.776 221.202 174.244 222.117 173.852C223.031 173.46 224.245 173.264 225.757 173.264H230.097V175.588H226.009C224.814 175.588 224.011 175.784 223.601 176.176C223.19 176.549 222.985 177.016 222.985 177.576C222.985 178.211 223.237 178.715 223.741 179.088C224.245 179.461 224.945 179.648 225.841 179.648C226.699 179.648 227.465 179.452 228.137 179.06C228.827 178.668 229.322 178.089 229.621 177.324L230.209 179.424C229.873 180.301 229.266 180.983 228.389 181.468C227.53 181.953 226.438 182.196 225.113 182.196ZM245.351 182V161.224H248.851V182H245.351ZM253.444 182V167.048H256.944V182H253.444ZM255.208 164.584C254.555 164.584 254.014 164.379 253.584 163.968C253.174 163.557 252.968 163.063 252.968 162.484C252.968 161.887 253.174 161.392 253.584 161C254.014 160.589 254.555 160.384 255.208 160.384C255.862 160.384 256.394 160.58 256.804 160.972C257.234 161.345 257.448 161.821 257.448 162.4C257.448 163.016 257.243 163.539 256.832 163.968C256.422 164.379 255.88 164.584 255.208 164.584ZM266.158 182.196C264.908 182.196 263.704 182.037 262.546 181.72C261.408 181.384 260.502 180.983 259.83 180.516L261.174 177.856C261.846 178.285 262.649 178.64 263.582 178.92C264.516 179.2 265.449 179.34 266.382 179.34C267.484 179.34 268.277 179.191 268.762 178.892C269.266 178.593 269.518 178.192 269.518 177.688C269.518 177.277 269.35 176.969 269.014 176.764C268.678 176.54 268.24 176.372 267.698 176.26C267.157 176.148 266.55 176.045 265.878 175.952C265.225 175.859 264.562 175.737 263.89 175.588C263.237 175.42 262.64 175.187 262.098 174.888C261.557 174.571 261.118 174.151 260.782 173.628C260.446 173.105 260.278 172.415 260.278 171.556C260.278 170.604 260.549 169.783 261.09 169.092C261.632 168.383 262.388 167.841 263.358 167.468C264.348 167.076 265.514 166.88 266.858 166.88C267.866 166.88 268.884 166.992 269.91 167.216C270.937 167.44 271.786 167.757 272.458 168.168L271.114 170.828C270.405 170.399 269.686 170.109 268.958 169.96C268.249 169.792 267.54 169.708 266.83 169.708C265.766 169.708 264.973 169.867 264.45 170.184C263.946 170.501 263.694 170.903 263.694 171.388C263.694 171.836 263.862 172.172 264.198 172.396C264.534 172.62 264.973 172.797 265.514 172.928C266.056 173.059 266.653 173.171 267.306 173.264C267.978 173.339 268.641 173.46 269.294 173.628C269.948 173.796 270.545 174.029 271.086 174.328C271.646 174.608 272.094 175.009 272.43 175.532C272.766 176.055 272.934 176.736 272.934 177.576C272.934 178.509 272.654 179.321 272.094 180.012C271.553 180.703 270.778 181.244 269.77 181.636C268.762 182.009 267.558 182.196 266.158 182.196ZM281.576 182.196C279.934 182.196 278.664 181.776 277.768 180.936C276.872 180.077 276.424 178.817 276.424 177.156V163.744H279.924V177.072C279.924 177.781 280.102 178.332 280.456 178.724C280.83 179.116 281.343 179.312 281.996 179.312C282.78 179.312 283.434 179.107 283.956 178.696L284.936 181.188C284.526 181.524 284.022 181.776 283.424 181.944C282.827 182.112 282.211 182.196 281.576 182.196ZM273.96 169.96V167.16H283.928V169.96H273.96ZM302.274 182.196C300.743 182.196 299.38 181.869 298.186 181.216C296.991 180.544 296.048 179.629 295.358 178.472C294.667 177.315 294.322 175.999 294.322 174.524C294.322 173.031 294.667 171.715 295.358 170.576C296.048 169.419 296.991 168.513 298.186 167.86C299.38 167.207 300.743 166.88 302.274 166.88C303.823 166.88 305.195 167.207 306.39 167.86C307.603 168.513 308.546 169.409 309.218 170.548C309.908 171.687 310.254 173.012 310.254 174.524C310.254 175.999 309.908 177.315 309.218 178.472C308.546 179.629 307.603 180.544 306.39 181.216C305.195 181.869 303.823 182.196 302.274 182.196ZM302.274 179.2C303.132 179.2 303.898 179.013 304.57 178.64C305.242 178.267 305.764 177.725 306.138 177.016C306.53 176.307 306.726 175.476 306.726 174.524C306.726 173.553 306.53 172.723 306.138 172.032C305.764 171.323 305.242 170.781 304.57 170.408C303.898 170.035 303.142 169.848 302.302 169.848C301.443 169.848 300.678 170.035 300.006 170.408C299.352 170.781 298.83 171.323 298.438 172.032C298.046 172.723 297.85 173.553 297.85 174.524C297.85 175.476 298.046 176.307 298.438 177.016C298.83 177.725 299.352 178.267 300.006 178.64C300.678 179.013 301.434 179.2 302.274 179.2ZM314.077 182V166.208C314.077 164.64 314.534 163.389 315.449 162.456C316.382 161.504 317.707 161.028 319.425 161.028C320.041 161.028 320.619 161.093 321.161 161.224C321.721 161.355 322.187 161.56 322.561 161.84L321.609 164.472C321.347 164.267 321.049 164.117 320.713 164.024C320.377 163.912 320.031 163.856 319.677 163.856C318.949 163.856 318.398 164.061 318.025 164.472C317.651 164.864 317.465 165.461 317.465 166.264V167.944L317.577 169.512V182H314.077ZM311.613 169.96V167.16H321.581V169.96H311.613ZM37.508 216V212.976L37.312 212.332V207.04C37.312 206.013 37.004 205.22 36.388 204.66C35.772 204.081 34.8387 203.792 33.588 203.792C32.748 203.792 31.9173 203.923 31.096 204.184C30.2933 204.445 29.612 204.809 29.052 205.276L27.68 202.728C28.4827 202.112 29.4347 201.655 30.536 201.356C31.656 201.039 32.8133 200.88 34.008 200.88C36.1733 200.88 37.844 201.403 39.02 202.448C40.2147 203.475 40.812 205.071 40.812 207.236V216H37.508ZM32.804 216.196C31.684 216.196 30.704 216.009 29.864 215.636C29.024 215.244 28.3707 214.712 27.904 214.04C27.456 213.349 27.232 212.575 27.232 211.716C27.232 210.876 27.428 210.12 27.82 209.448C28.2307 208.776 28.8933 208.244 29.808 207.852C30.7227 207.46 31.936 207.264 33.448 207.264H37.788V209.588H33.7C32.5053 209.588 31.7027 209.784 31.292 210.176C30.8813 210.549 30.676 211.016 30.676 211.576C30.676 212.211 30.928 212.715 31.432 213.088C31.936 213.461 32.636 213.648 33.532 213.648C34.3907 213.648 35.156 213.452 35.828 213.06C36.5187 212.668 37.0133 212.089 37.312 211.324L37.9 213.424C37.564 214.301 36.9573 214.983 36.08 215.468C35.2213 215.953 34.1293 216.196 32.804 216.196ZM49.0064 216L42.5944 201.048H46.2344L51.7504 214.236H49.9584L55.6704 201.048H59.0304L52.6184 216H49.0064ZM69.965 216V212.976L69.769 212.332V207.04C69.769 206.013 69.461 205.22 68.845 204.66C68.229 204.081 67.2957 203.792 66.045 203.792C65.205 203.792 64.3744 203.923 63.553 204.184C62.7504 204.445 62.069 204.809 61.509 205.276L60.137 202.728C60.9397 202.112 61.8917 201.655 62.993 201.356C64.113 201.039 65.2704 200.88 66.465 200.88C68.6304 200.88 70.301 201.403 71.477 202.448C72.6717 203.475 73.269 205.071 73.269 207.236V216H69.965ZM65.261 216.196C64.141 216.196 63.161 216.009 62.321 215.636C61.481 215.244 60.8277 214.712 60.361 214.04C59.913 213.349 59.689 212.575 59.689 211.716C59.689 210.876 59.885 210.12 60.277 209.448C60.6877 208.776 61.3504 208.244 62.265 207.852C63.1797 207.46 64.393 207.264 65.905 207.264H70.245V209.588H66.157C64.9624 209.588 64.1597 209.784 63.749 210.176C63.3384 210.549 63.133 211.016 63.133 211.576C63.133 212.211 63.385 212.715 63.889 213.088C64.393 213.461 65.093 213.648 65.989 213.648C66.8477 213.648 67.613 213.452 68.285 213.06C68.9757 212.668 69.4704 212.089 69.769 211.324L70.357 213.424C70.021 214.301 69.4144 214.983 68.537 215.468C67.6784 215.953 66.5864 216.196 65.261 216.196ZM77.7608 216V201.048H81.2608V216H77.7608ZM79.5248 198.584C78.8715 198.584 78.3302 198.379 77.9008 197.968C77.4902 197.557 77.2848 197.063 77.2848 196.484C77.2848 195.887 77.4902 195.392 77.9008 195C78.3302 194.589 78.8715 194.384 79.5248 194.384C80.1782 194.384 80.7102 194.58 81.1208 194.972C81.5502 195.345 81.7648 195.821 81.7648 196.4C81.7648 197.016 81.5595 197.539 81.1488 197.968C80.7382 198.379 80.1968 198.584 79.5248 198.584ZM85.8546 216V195.224H89.3546V216H85.8546ZM103.16 216V212.976L102.964 212.332V207.04C102.964 206.013 102.656 205.22 102.04 204.66C101.424 204.081 100.491 203.792 99.2403 203.792C98.4003 203.792 97.5697 203.923 96.7483 204.184C95.9457 204.445 95.2643 204.809 94.7043 205.276L93.3323 202.728C94.135 202.112 95.087 201.655 96.1883 201.356C97.3083 201.039 98.4657 200.88 99.6603 200.88C101.826 200.88 103.496 201.403 104.672 202.448C105.867 203.475 106.464 205.071 106.464 207.236V216H103.16ZM98.4563 216.196C97.3363 216.196 96.3563 216.009 95.5163 215.636C94.6763 215.244 94.023 214.712 93.5563 214.04C93.1083 213.349 92.8843 212.575 92.8843 211.716C92.8843 210.876 93.0803 210.12 93.4723 209.448C93.883 208.776 94.5457 208.244 95.4603 207.852C96.375 207.46 97.5883 207.264 99.1003 207.264H103.44V209.588H99.3523C98.1577 209.588 97.355 209.784 96.9443 210.176C96.5337 210.549 96.3283 211.016 96.3283 211.576C96.3283 212.211 96.5803 212.715 97.0843 213.088C97.5883 213.461 98.2883 213.648 99.1843 213.648C100.043 213.648 100.808 213.452 101.48 213.06C102.171 212.668 102.666 212.089 102.964 211.324L103.552 213.424C103.216 214.301 102.61 214.983 101.732 215.468C100.874 215.953 99.7817 216.196 98.4563 216.196ZM119.244 216.196C117.975 216.196 116.845 215.916 115.856 215.356C114.867 214.796 114.083 213.956 113.504 212.836C112.944 211.697 112.664 210.26 112.664 208.524C112.664 206.769 112.953 205.332 113.532 204.212C114.129 203.092 114.923 202.261 115.912 201.72C116.92 201.16 118.031 200.88 119.244 200.88C120.719 200.88 122.016 201.197 123.136 201.832C124.275 202.467 125.171 203.353 125.824 204.492C126.496 205.631 126.832 206.975 126.832 208.524C126.832 210.073 126.496 211.417 125.824 212.556C125.171 213.695 124.275 214.591 123.136 215.244C122.016 215.879 120.719 216.196 119.244 216.196ZM110.956 216V195.224H114.456V204.52L114.176 208.496L114.288 212.472V216H110.956ZM118.852 213.2C119.692 213.2 120.439 213.013 121.092 212.64C121.764 212.267 122.296 211.725 122.688 211.016C123.08 210.307 123.276 209.476 123.276 208.524C123.276 207.553 123.08 206.723 122.688 206.032C122.296 205.323 121.764 204.781 121.092 204.408C120.439 204.035 119.692 203.848 118.852 203.848C118.012 203.848 117.256 204.035 116.584 204.408C115.912 204.781 115.38 205.323 114.988 206.032C114.596 206.723 114.4 207.553 114.4 208.524C114.4 209.476 114.596 210.307 114.988 211.016C115.38 211.725 115.912 212.267 116.584 212.64C117.256 213.013 118.012 213.2 118.852 213.2ZM130.151 216V195.224H133.651V216H130.151ZM145.273 216.196C143.612 216.196 142.156 215.869 140.905 215.216C139.673 214.544 138.712 213.629 138.021 212.472C137.349 211.315 137.013 209.999 137.013 208.524C137.013 207.031 137.34 205.715 137.993 204.576C138.665 203.419 139.58 202.513 140.737 201.86C141.913 201.207 143.248 200.88 144.741 200.88C146.197 200.88 147.495 201.197 148.633 201.832C149.772 202.467 150.668 203.363 151.321 204.52C151.975 205.677 152.301 207.04 152.301 208.608C152.301 208.757 152.292 208.925 152.273 209.112C152.273 209.299 152.264 209.476 152.245 209.644H139.785V207.32H150.397L149.025 208.048C149.044 207.189 148.867 206.433 148.493 205.78C148.12 205.127 147.607 204.613 146.953 204.24C146.319 203.867 145.581 203.68 144.741 203.68C143.883 203.68 143.127 203.867 142.473 204.24C141.839 204.613 141.335 205.136 140.961 205.808C140.607 206.461 140.429 207.236 140.429 208.132V208.692C140.429 209.588 140.635 210.381 141.045 211.072C141.456 211.763 142.035 212.295 142.781 212.668C143.528 213.041 144.387 213.228 145.357 213.228C146.197 213.228 146.953 213.097 147.625 212.836C148.297 212.575 148.895 212.164 149.417 211.604L151.293 213.76C150.621 214.544 149.772 215.151 148.745 215.58C147.737 215.991 146.58 216.196 145.273 216.196ZM170.121 216.196C168.591 216.196 167.228 215.869 166.033 215.216C164.839 214.544 163.896 213.629 163.205 212.472C162.515 211.315 162.169 209.999 162.169 208.524C162.169 207.031 162.515 205.715 163.205 204.576C163.896 203.419 164.839 202.513 166.033 201.86C167.228 201.207 168.591 200.88 170.121 200.88C171.671 200.88 173.043 201.207 174.237 201.86C175.451 202.513 176.393 203.409 177.065 204.548C177.756 205.687 178.101 207.012 178.101 208.524C178.101 209.999 177.756 211.315 177.065 212.472C176.393 213.629 175.451 214.544 174.237 215.216C173.043 215.869 171.671 216.196 170.121 216.196ZM170.121 213.2C170.98 213.2 171.745 213.013 172.417 212.64C173.089 212.267 173.612 211.725 173.985 211.016C174.377 210.307 174.573 209.476 174.573 208.524C174.573 207.553 174.377 206.723 173.985 206.032C173.612 205.323 173.089 204.781 172.417 204.408C171.745 204.035 170.989 203.848 170.149 203.848C169.291 203.848 168.525 204.035 167.853 204.408C167.2 204.781 166.677 205.323 166.285 206.032C165.893 206.723 165.697 207.553 165.697 208.524C165.697 209.476 165.893 210.307 166.285 211.016C166.677 211.725 167.2 212.267 167.853 212.64C168.525 213.013 169.281 213.2 170.121 213.2ZM181.924 216V200.208C181.924 198.64 182.382 197.389 183.296 196.456C184.23 195.504 185.555 195.028 187.272 195.028C187.888 195.028 188.467 195.093 189.008 195.224C189.568 195.355 190.035 195.56 190.408 195.84L189.456 198.472C189.195 198.267 188.896 198.117 188.56 198.024C188.224 197.912 187.879 197.856 187.524 197.856C186.796 197.856 186.246 198.061 185.872 198.472C185.499 198.864 185.312 199.461 185.312 200.264V201.944L185.424 203.512V216H181.924ZM179.46 203.96V201.16H189.428V203.96H179.46ZM192.342 216V200.208C192.342 198.64 192.8 197.389 193.714 196.456C194.648 195.504 195.973 195.028 197.69 195.028C198.306 195.028 198.885 195.093 199.426 195.224C199.986 195.355 200.453 195.56 200.826 195.84L199.874 198.472C199.613 198.267 199.314 198.117 198.978 198.024C198.642 197.912 198.297 197.856 197.942 197.856C197.214 197.856 196.664 198.061 196.29 198.472C195.917 198.864 195.73 199.461 195.73 200.264V201.944L195.842 203.512V216H192.342ZM189.878 203.96V201.16H199.846V203.96H189.878ZM209.012 216.196C207.35 216.196 205.894 215.869 204.644 215.216C203.412 214.544 202.45 213.629 201.76 212.472C201.088 211.315 200.752 209.999 200.752 208.524C200.752 207.031 201.078 205.715 201.732 204.576C202.404 203.419 203.318 202.513 204.476 201.86C205.652 201.207 206.986 200.88 208.48 200.88C209.936 200.88 211.233 201.197 212.372 201.832C213.51 202.467 214.406 203.363 215.06 204.52C215.713 205.677 216.04 207.04 216.04 208.608C216.04 208.757 216.03 208.925 216.012 209.112C216.012 209.299 216.002 209.476 215.984 209.644H203.524V207.32H214.136L212.764 208.048C212.782 207.189 212.605 206.433 212.232 205.78C211.858 205.127 211.345 204.613 210.692 204.24C210.057 203.867 209.32 203.68 208.48 203.68C207.621 203.68 206.865 203.867 206.212 204.24C205.577 204.613 205.073 205.136 204.7 205.808C204.345 206.461 204.168 207.236 204.168 208.132V208.692C204.168 209.588 204.373 210.381 204.784 211.072C205.194 211.763 205.773 212.295 206.52 212.668C207.266 213.041 208.125 213.228 209.096 213.228C209.936 213.228 210.692 213.097 211.364 212.836C212.036 212.575 212.633 212.164 213.156 211.604L215.032 213.76C214.36 214.544 213.51 215.151 212.484 215.58C211.476 215.991 210.318 216.196 209.012 216.196ZM219.401 216V201.048H222.733V205.164L222.341 203.96C222.789 202.952 223.489 202.187 224.441 201.664C225.412 201.141 226.616 200.88 228.053 200.88V204.212C227.904 204.175 227.764 204.156 227.633 204.156C227.503 204.137 227.372 204.128 227.241 204.128C225.916 204.128 224.861 204.52 224.077 205.304C223.293 206.069 222.901 207.217 222.901 208.748V216H219.401ZM235.779 216.196C234.529 216.196 233.325 216.037 232.167 215.72C231.029 215.384 230.123 214.983 229.451 214.516L230.795 211.856C231.467 212.285 232.27 212.64 233.203 212.92C234.137 213.2 235.07 213.34 236.003 213.34C237.105 213.34 237.898 213.191 238.383 212.892C238.887 212.593 239.139 212.192 239.139 211.688C239.139 211.277 238.971 210.969 238.635 210.764C238.299 210.54 237.861 210.372 237.319 210.26C236.778 210.148 236.171 210.045 235.499 209.952C234.846 209.859 234.183 209.737 233.511 209.588C232.858 209.42 232.261 209.187 231.719 208.888C231.178 208.571 230.739 208.151 230.403 207.628C230.067 207.105 229.899 206.415 229.899 205.556C229.899 204.604 230.17 203.783 230.711 203.092C231.253 202.383 232.009 201.841 232.979 201.468C233.969 201.076 235.135 200.88 236.479 200.88C237.487 200.88 238.505 200.992 239.531 201.216C240.558 201.44 241.407 201.757 242.079 202.168L240.735 204.828C240.026 204.399 239.307 204.109 238.579 203.96C237.87 203.792 237.161 203.708 236.451 203.708C235.387 203.708 234.594 203.867 234.071 204.184C233.567 204.501 233.315 204.903 233.315 205.388C233.315 205.836 233.483 206.172 233.819 206.396C234.155 206.62 234.594 206.797 235.135 206.928C235.677 207.059 236.274 207.171 236.927 207.264C237.599 207.339 238.262 207.46 238.915 207.628C239.569 207.796 240.166 208.029 240.707 208.328C241.267 208.608 241.715 209.009 242.051 209.532C242.387 210.055 242.555 210.736 242.555 211.576C242.555 212.509 242.275 213.321 241.715 214.012C241.174 214.703 240.399 215.244 239.391 215.636C238.383 216.009 237.179 216.196 235.779 216.196Z" fill="black"/>
<circle cx="66.5" cy="68.5" r="40.5" fill="#3131C6"/>
<path d="M57.2 90V81.936H65.648V53.264H57.904V45.2H74.928V81.936H82.48V90H57.2Z" fill="white"/>
</svg>
