<svg width="60" height="60" viewBox="0 0 60 60" fill="none" xmlns="http://www.w3.org/2000/svg">
<path d="M34.2185 24.7829C31.7157 22.2811 28.3218 20.8757 24.783 20.8757C21.2442 20.8757 17.8503 22.2811 15.3475 24.7829L5.90894 34.2184C3.40609 36.7212 2 40.1158 2 43.6554C2 47.195 3.40609 50.5896 5.90894 53.0924C8.4118 55.5953 11.8064 57.0014 15.346 57.0014C18.8855 57.0014 22.2801 55.5953 24.783 53.0924L29.5007 48.3747" stroke="#3131C6" stroke-width="4" stroke-linecap="round" stroke-linejoin="round"/>
<path d="M24.783 34.2185C27.2858 36.7203 30.6797 38.1257 34.2185 38.1257C37.7573 38.1257 41.1512 36.7203 43.654 34.2185L53.0926 24.783C55.5954 22.2801 57.0015 18.8855 57.0015 15.346C57.0015 11.8064 55.5954 8.4118 53.0926 5.90894C50.5897 3.40609 47.1951 2 43.6555 2C40.1159 2 36.7213 3.40609 34.2185 5.90894L29.5007 10.6267" stroke="#3131C6" stroke-width="4" stroke-linecap="round" stroke-linejoin="round"/>
</svg>
