<svg width="40" height="40" viewBox="0 0 40 40" fill="none" xmlns="http://www.w3.org/2000/svg">
<rect width="40" height="40" fill="#6C63FF"/>
<path d="M19.9992 16.1475C18.9772 16.1475 17.9971 16.5534 17.2745 17.2761C16.5518 17.9987 16.1458 18.9788 16.1458 20.0008C16.1458 21.0228 16.5518 22.0029 17.2745 22.7255C17.9971 23.4482 18.9772 23.8541 19.9992 23.8541C21.0211 23.8541 22.0013 23.4482 22.7239 22.7255C23.4465 22.0029 23.8525 21.0228 23.8525 20.0008C23.8525 18.9788 23.4465 17.9987 22.7239 17.2761C22.0013 16.5534 21.0211 16.1475 19.9992 16.1475ZM19.9992 22.5033C19.3353 22.5033 18.6985 22.2395 18.2291 21.7701C17.7596 21.3006 17.4958 20.6639 17.4958 20C17.4958 19.336 17.7596 18.6993 18.2291 18.2298C18.6985 17.7604 19.3353 17.4966 19.9992 17.4966C20.6631 17.4966 21.2998 17.7604 21.7693 18.2298C22.2388 18.6993 22.5025 19.336 22.5025 20C22.5025 20.6639 22.2388 21.3006 21.7693 21.7701C21.2998 22.2395 20.6631 22.5033 19.9992 22.5033Z" fill="white"/>
<path d="M24.005 16.9041C24.5011 16.9041 24.9033 16.5019 24.9033 16.0058C24.9033 15.5096 24.5011 15.1074 24.005 15.1074C23.5089 15.1074 23.1067 15.5096 23.1067 16.0058C23.1067 16.5019 23.5089 16.9041 24.005 16.9041Z" fill="white"/>
<path d="M27.1108 15.0927C26.9179 14.5945 26.6231 14.1421 26.2453 13.7644C25.8675 13.3868 25.4149 13.0921 24.9167 12.8994C24.3336 12.6805 23.7177 12.5622 23.095 12.5494C22.2925 12.5144 22.0383 12.5044 20.0033 12.5044C17.9683 12.5044 17.7075 12.5044 16.9117 12.5494C16.2895 12.5615 15.674 12.6799 15.0917 12.8994C14.5933 13.0919 14.1406 13.3865 13.7628 13.7642C13.3849 14.1419 13.0902 14.5944 12.8975 15.0927C12.6786 15.6757 12.5605 16.2918 12.5483 16.9144C12.5125 17.7161 12.5017 17.9702 12.5017 20.0061C12.5017 22.0411 12.5017 22.3002 12.5483 23.0977C12.5608 23.7211 12.6783 24.3361 12.8975 24.9202C13.0907 25.4184 13.3858 25.8707 13.7637 26.2484C14.1417 26.626 14.5942 26.9207 15.0925 27.1136C15.6737 27.3412 16.2895 27.468 16.9133 27.4886C17.7158 27.5236 17.97 27.5344 20.005 27.5344C22.04 27.5344 22.3008 27.5344 23.0967 27.4886C23.7193 27.4759 24.3352 27.3578 24.9183 27.1394C25.4165 26.9462 25.8689 26.6513 26.2467 26.2735C26.6244 25.8957 26.9193 25.4434 27.1125 24.9452C27.3317 24.3619 27.4492 23.7469 27.4617 23.1236C27.4975 22.3219 27.5083 22.0677 27.5083 20.0319C27.5083 17.9961 27.5083 17.7377 27.4617 16.9402C27.452 16.3088 27.3333 15.6838 27.1108 15.0927ZM26.0958 23.0361C26.0905 23.5163 26.0028 23.9921 25.8367 24.4427C25.7115 24.7668 25.5199 25.0611 25.2742 25.3066C25.0285 25.5522 24.7341 25.7436 24.41 25.8686C23.9644 26.0339 23.4936 26.1216 23.0183 26.1277C22.2267 26.1644 22.0033 26.1736 19.9733 26.1736C17.9417 26.1736 17.7342 26.1736 16.9275 26.1277C16.4525 26.1219 15.982 26.0342 15.5367 25.8686C15.2114 25.7444 14.9158 25.5533 14.6691 25.3077C14.4223 25.0621 14.2299 24.7674 14.1042 24.4427C13.9404 23.9969 13.8528 23.5268 13.845 23.0519C13.8092 22.2602 13.8008 22.0369 13.8008 20.0069C13.8008 17.9761 13.8008 17.7686 13.845 16.9611C13.8504 16.4811 13.9381 16.0056 14.1042 15.5552C14.3583 14.8977 14.8792 14.3802 15.5367 14.1286C15.9822 13.9637 16.4525 13.876 16.9275 13.8694C17.72 13.8336 17.9425 13.8236 19.9733 13.8236C22.0042 13.8236 22.2125 13.8236 23.0183 13.8694C23.4937 13.8751 23.9645 13.9628 24.41 14.1286C24.7341 14.2538 25.0285 14.4454 25.2742 14.6911C25.5198 14.9368 25.7115 15.2311 25.8367 15.5552C26.0005 16.001 26.0881 16.4712 26.0958 16.9461C26.1317 17.7386 26.1408 17.9611 26.1408 19.9919C26.1408 22.0219 26.1408 22.2402 26.105 23.0369H26.0958V23.0361Z" fill="white"/>
</svg>
