<svg width="40" height="40" viewBox="0 0 40 40" fill="none" xmlns="http://www.w3.org/2000/svg">
<rect width="40" height="40" fill="#6C63FF"/>
<path fill-rule="evenodd" clip-rule="evenodd" d="M17.8575 17.474H20.9525V19.0157C21.3983 18.129 22.5417 17.3323 24.2592 17.3323C27.5517 17.3323 28.3333 19.0973 28.3333 22.3357V28.3332H25V23.0732C25 21.229 24.5542 20.189 23.4192 20.189C21.845 20.189 21.1908 21.3098 21.1908 23.0723V28.3332H17.8575V17.474ZM12.1417 28.1915H15.475V17.3323H12.1417V28.1915ZM15.9525 13.7915C15.9526 14.0709 15.8972 14.3475 15.7895 14.6053C15.6818 14.8631 15.5239 15.0969 15.325 15.2932C14.922 15.6937 14.3765 15.9179 13.8083 15.9165C13.2411 15.9161 12.6969 15.6925 12.2933 15.294C12.0952 15.0971 11.9378 14.863 11.8303 14.6052C11.7227 14.3474 11.6671 14.0709 11.6667 13.7915C11.6667 13.2273 11.8917 12.6873 12.2942 12.289C12.6974 11.89 13.2419 11.6663 13.8092 11.6665C14.3775 11.6665 14.9225 11.8907 15.325 12.289C15.7267 12.6873 15.9525 13.2273 15.9525 13.7915Z" fill="white"/>
</svg>
