<svg width="581" height="378" viewBox="0 0 581 378" fill="none" xmlns="http://www.w3.org/2000/svg">
<g clip-path="url(#clip0_12_108)">
<path d="M18.4137 290.114C21.2931 260.625 38.6958 231.189 66.3856 220.893C56.1537 251.435 57.0185 284.624 68.8271 314.588C73.4229 326.128 79.732 338.482 75.999 350.331C73.6763 357.703 67.6751 363.454 60.8954 367.13C54.1152 370.805 46.5331 372.67 39.0456 374.5L37.5957 375.769C24.9383 348.999 15.5344 319.602 18.4137 290.114Z" fill="#F0F0F0"/>
<path d="M66.6773 221.441C51.0432 239.956 41.2032 263.603 39.4827 287.845C39.1108 293.086 39.1881 298.435 40.4609 303.558C41.7398 308.542 44.3255 313.092 47.9495 316.734C51.2604 320.198 55.047 323.357 57.4611 327.568C60.0056 332.007 60.2318 337.121 58.6942 341.947C56.8129 347.852 52.9292 352.726 48.9662 357.36C44.566 362.506 39.9143 367.781 38.1616 374.495C37.9492 375.309 36.7034 374.931 36.9155 374.119C39.965 362.436 51.0119 355.556 56.0904 344.972C58.4601 340.034 59.3609 334.349 56.8869 329.266C54.7236 324.821 50.8216 321.561 47.439 318.082C43.8871 314.43 41.1317 310.393 39.6384 305.473C38.1108 300.44 37.8249 295.083 38.0617 289.855C38.6868 278.005 41.1649 266.327 45.4054 255.25C50.1751 242.58 57.0697 230.822 65.791 220.485C66.3311 219.845 67.2139 220.806 66.6774 221.441L66.6773 221.441Z" fill="white"/>
<path d="M39.6276 279.936C35.5818 279.061 31.9774 276.773 29.4581 273.478C26.9388 270.184 25.6687 266.098 25.8746 261.951C25.8846 261.781 25.9595 261.623 26.0837 261.508C26.2079 261.394 26.3716 261.332 26.5404 261.336C26.7091 261.34 26.8697 261.409 26.9883 261.53C27.1069 261.65 27.1742 261.812 27.1761 261.982C26.9773 265.843 28.1607 269.649 30.5129 272.712C32.8651 275.775 36.2311 277.894 40.0033 278.685C40.8229 278.858 40.4425 280.108 39.6276 279.936Z" fill="white"/>
<path d="M46.0401 315.199C53.1884 310.659 58.3685 303.582 60.5476 295.38C60.7628 294.567 62.0086 294.945 61.7937 295.757C59.5102 304.288 54.1046 311.642 46.6556 316.35C45.9453 316.798 45.3337 315.645 46.0401 315.199Z" fill="white"/>
<path d="M51.4142 243.785C52.9094 244.45 54.5459 244.733 56.1768 244.607C57.8077 244.481 59.3818 243.951 60.758 243.063C61.4623 242.606 62.0731 243.76 61.3734 244.214C59.8485 245.187 58.1093 245.771 56.3077 245.914C54.5061 246.057 52.697 245.755 51.0385 245.035C50.8765 244.98 50.7413 244.866 50.6605 244.715C50.5796 244.563 50.5592 244.387 50.6033 244.221C50.6538 244.056 50.7674 243.917 50.9192 243.836C51.0711 243.754 51.2489 243.736 51.4142 243.785H51.4142Z" fill="white"/>
<path d="M152.91 271.165C152.478 271.463 152.047 271.761 151.615 272.07C145.832 276.106 140.385 280.607 135.328 285.528C134.931 285.902 134.535 286.287 134.149 286.672C122.093 298.658 112.359 312.786 105.443 328.338C102.696 334.529 100.423 340.92 98.6434 347.457C96.1857 356.485 94.2367 366.47 89.1013 373.936C88.5742 374.721 87.9992 375.472 87.3796 376.186L39.2505 377.445C39.1397 377.393 39.0286 377.352 38.9173 377.299L36.9979 377.438C37.0663 377.094 37.1445 376.739 37.2128 376.396C37.2516 376.196 37.3012 375.997 37.34 375.797C37.3693 375.664 37.3991 375.531 37.4179 375.409C37.4275 375.365 37.4376 375.321 37.4475 375.287C37.4663 375.165 37.4967 375.054 37.5158 374.944C37.9476 372.959 38.3941 370.974 38.8553 368.988C38.855 368.977 38.855 368.977 38.8654 368.966C42.4177 353.845 47.2592 338.89 54.2092 325.147C54.4184 324.733 54.6269 324.309 54.8581 323.895C58.0251 317.718 61.69 311.811 65.8161 306.232C68.0853 303.185 70.5067 300.255 73.0711 297.454C79.711 290.228 87.4424 284.095 95.9817 279.28C113.006 269.684 132.9 265.658 151.493 270.761C151.969 270.892 152.434 271.023 152.91 271.165Z" fill="#F0F0F0"/>
<path d="M152.818 271.781C129.225 277.12 107.179 290.056 91.2587 308.372C87.8169 312.332 84.6688 316.65 82.6111 321.509C80.6415 326.261 79.9762 331.456 80.6841 336.553C81.2491 341.319 82.3771 346.129 81.7775 350.95C81.1455 356.031 78.2579 360.251 74.1343 363.175C69.089 366.753 63.0632 368.299 57.1181 369.605C50.5172 371.056 43.638 372.457 38.2093 376.76C37.5515 377.281 36.7838 376.227 37.4405 375.706C46.8856 368.22 59.8341 369.401 70.2397 364.018C75.0951 361.506 79.2256 357.512 80.3003 351.959C81.24 347.103 80.0811 342.142 79.4675 337.321C78.8232 332.259 79.0457 327.371 80.8054 322.541C82.6055 317.6 85.5919 313.15 88.9178 309.119C96.5275 300.035 105.513 292.208 115.546 285.924C126.957 278.69 139.518 273.467 152.684 270.482C153.499 270.297 153.627 271.597 152.818 271.781H152.818Z" fill="white"/>
<path d="M96.1204 302.145C93.4146 299.003 91.91 294.998 91.8754 290.845C91.8407 286.693 93.2783 282.664 95.9313 279.476C96.4703 278.833 97.4915 279.644 96.9518 280.288C94.4758 283.251 93.1371 287.004 93.1773 290.871C93.2174 294.738 94.6337 298.463 97.1706 301.373C97.7212 302.007 96.6678 302.774 96.1204 302.145Z" fill="white"/>
<path d="M80.0805 334.174C88.5123 334.868 96.8947 332.346 103.556 327.114C104.216 326.595 104.984 327.649 104.325 328.168C97.3827 333.6 88.6542 336.206 79.8814 335.465C79.0453 335.394 79.2488 334.104 80.0804 334.174H80.0805Z" fill="white"/>
<path d="M127.224 280.4C128.018 281.835 129.155 283.049 130.533 283.934C131.911 284.819 133.486 285.346 135.117 285.469C135.954 285.53 135.749 286.82 134.918 286.76C133.116 286.615 131.378 286.031 129.853 285.057C128.329 284.082 127.065 282.749 126.173 281.172C126.077 281.03 126.038 280.857 126.064 280.688C126.09 280.518 126.179 280.365 126.314 280.259C126.454 280.158 126.628 280.116 126.798 280.142C126.968 280.169 127.121 280.261 127.224 280.4Z" fill="white"/>
<path d="M435.385 25.873C434.666 23.744 425.655 16.507 431.177 15.2906L435.705 21.349L456.525 0.45993L458.619 2.56089L435.385 25.873Z" fill="#6C63FF"/>
<path d="M435.385 96.9046C434.666 94.7756 425.655 87.5386 431.177 86.3222L435.705 92.3806L456.525 71.4915L458.619 73.5925L435.385 96.9046Z" fill="#6C63FF"/>
<path d="M435.385 168.951C434.666 166.822 425.655 159.585 431.177 158.369L435.705 164.427L456.525 143.538L458.619 145.639L435.385 168.951Z" fill="#6C63FF"/>
<path d="M416.214 110.703C419.762 110.703 422.638 107.817 422.638 104.257C422.638 100.697 419.762 97.8113 416.214 97.8113C412.666 97.8113 409.789 100.697 409.789 104.257C409.789 107.817 412.666 110.703 416.214 110.703Z" fill="#3F3D56"/>
<path d="M416.214 40.4414C419.762 40.4414 422.638 37.5554 422.638 33.9954C422.638 30.4353 419.762 27.5493 416.214 27.5493C412.666 27.5493 409.789 30.4353 409.789 33.9954C409.789 37.5554 412.666 40.4414 416.214 40.4414Z" fill="#3F3D56"/>
<path d="M581 19.1694L477.567 19.1694V20.4586L581 20.4586V19.1694Z" fill="#3F3D56"/>
<path d="M419.426 185.603C422.974 185.603 425.85 182.717 425.85 179.157C425.85 175.596 422.974 172.71 419.426 172.71C415.878 172.71 413.002 175.596 413.002 179.157C413.002 182.717 415.878 185.603 419.426 185.603Z" fill="#3F3D56"/>
<path d="M581 90.2009H477.567V91.4901H581V90.2009Z" fill="#3F3D56"/>
<path d="M581 162.247H477.567V163.536H581V162.247Z" fill="#3F3D56"/>
<path d="M451.611 178.556H419.489V145.681H441.332V146.97L420.774 146.97V177.266H450.326V162.44H451.611V178.556Z" fill="#3F3D56"/>
<path d="M451.611 106.36H419.489V73.485H441.332V74.7742H420.774V105.071H450.326V90.2447H451.611V106.36Z" fill="#3F3D56"/>
<path d="M451.611 32.8749H419.489V0L441.332 0V1.28921L420.774 1.28921V31.5856H450.326V16.7597L451.611 16.7597V32.8749Z" fill="#3F3D56"/>
<path d="M241.883 117.171C241.883 117.171 233.298 153.54 243.79 153.54C254.283 153.54 279.084 112.385 279.084 112.385L270.499 101.857L255.09 123.323L254.283 112.385L241.883 117.171Z" fill="#A0616A"/>
<path d="M276.796 113.967C281.409 113.967 285.148 110.215 285.148 105.587C285.148 100.959 281.409 97.2068 276.796 97.2068C272.184 97.2068 268.444 100.959 268.444 105.587C268.444 110.215 272.184 113.967 276.796 113.967Z" fill="#A0616A"/>
<path d="M234.604 364.877L245.72 364.877L251.009 321.852L234.601 321.853L234.604 364.877Z" fill="#A0616A"/>
<path d="M234.212 376.514L268.398 376.512V376.078C268.398 372.538 266.996 369.142 264.501 366.638C262.005 364.134 258.621 362.728 255.092 362.728H255.091L248.847 357.974L237.196 362.728L234.211 362.728L234.212 376.514Z" fill="#2F2E41"/>
<path d="M115.022 350.961L124.968 355.941L148.849 319.814L134.168 312.463L115.022 350.961Z" fill="#A0616A"/>
<path d="M109.492 361.197L140.081 376.514L140.274 376.125C141.85 372.957 142.107 369.291 140.988 365.932C139.87 362.574 137.468 359.799 134.31 358.218L134.309 358.217L130.838 351.166L118.297 350.2L115.627 348.862L109.492 361.197Z" fill="#2F2E41"/>
<path d="M366.096 376.556H0L0 378L366.096 378V376.556Z" fill="#CCCCCC"/>
<path d="M162.729 183.15C162.729 183.15 158.287 236.748 157.333 248.233C156.679 255.433 155.075 262.513 152.564 269.289C152.564 269.289 150.656 273.118 150.656 276.946L129.035 316.373C129.035 316.373 122.427 321.245 123.381 325.074C124.335 328.902 119.398 331.198 119.398 331.198L142.167 335.602C142.167 335.602 141.213 332.73 144.075 331.773C146.936 330.816 149.214 322.515 149.214 322.515L181.18 270.246L204.073 222.392C204.073 222.392 217.427 265.461 220.289 270.246C220.289 270.246 230.781 323.843 232.689 328.629C234.597 333.414 235.551 333.414 234.597 335.328C233.643 337.243 233.643 339.157 234.597 340.114C235.551 341.071 253.675 340.114 253.675 340.114L248.905 272.161L240.32 190.808L196.442 177.409L162.729 183.15Z" fill="#2F2E41"/>
<path d="M205.689 55.1987C216.752 55.1987 225.72 46.2001 225.72 35.0998C225.72 23.9995 216.752 15.0009 205.689 15.0009C194.626 15.0009 185.657 23.9995 185.657 35.0998C185.657 46.2001 194.626 55.1987 205.689 55.1987Z" fill="#A0616A"/>
<path d="M242.228 84.571L218.382 70.0747C218.382 70.0747 217.721 61.0729 210.926 60.6494C207.515 60.4367 202.397 60.1116 194.715 59.6146C193.091 59.5096 191.996 68.4214 190.135 68.3005L164.964 75.0001L168.779 140.082C168.779 140.082 163.056 165.924 164.964 170.709C166.872 175.494 160.195 177.409 162.102 178.366C164.01 179.323 162.102 186.022 162.102 186.022C162.102 186.022 199.303 205.164 240.32 190.808L236.505 178.366C237.024 176.739 237.121 175.007 236.788 173.332C236.454 171.657 235.7 170.096 234.597 168.795C234.597 168.795 238.412 163.052 233.643 158.267C233.643 158.267 235.551 149.653 230.781 145.825L229.828 132.425L232.689 125.726L242.228 84.571Z" fill="#E6E6E6"/>
<path d="M188.307 46.5817L187.747 45.2767C187.675 45.108 180.59 28.3049 186.87 17.9402C189.776 13.1419 195.062 10.4328 202.578 9.88894C214.34 9.03565 222.389 11.835 226.51 18.2033C227.201 19.2826 227.589 20.5288 227.634 21.8108C227.679 23.0928 227.379 24.3632 226.765 25.4885C226.152 26.6139 225.247 27.5525 224.147 28.2058C223.047 28.8591 221.791 29.2028 220.513 29.2009H220.355L218.194 26.3855L218.068 26.6593C217.286 28.3577 215.489 29.2875 213.384 29.0839C213.026 29.0581 212.709 29.3681 212.454 30.0316C212.369 30.3218 212.207 30.5835 211.985 30.7893C211.764 30.995 211.492 31.1372 211.197 31.2009C209.642 31.5046 207.425 29.5393 206.433 28.5598C206.395 28.7853 206.309 28.9998 206.181 29.189C206.053 29.3782 205.886 29.5376 205.691 29.6564C204.645 30.2617 203.018 29.471 202.551 29.2192C198.83 30.0124 196.422 29.8003 195.39 28.5894C194.691 33.5552 193.189 42.4934 191.389 42.9888C191.201 43.0323 191.004 43.0138 190.827 42.9362C190.65 42.8586 190.503 42.726 190.407 42.558C189.973 41.9933 189.586 41.7119 189.344 41.7909C188.758 41.9778 188.412 43.913 188.363 45.1619L188.307 46.5817Z" fill="#2F2E41"/>
<path d="M231.735 85.5281L241.251 83.9769C248.105 90.585 252.774 99.1437 254.628 108.498C257.49 123.812 258.444 126.683 258.444 126.683L235.551 132.425L223.15 108.498L231.735 85.5281Z" fill="#E6E6E6"/>
<path d="M189.512 105.446L183.632 180.242L333.697 192.12L339.577 117.324L189.512 105.446Z" fill="white"/>
<path d="M205.545 111.241C201.872 108.61 197.21 108.419 195.429 108.457C195.972 110.159 197.661 114.524 201.333 117.156C205.014 119.795 209.671 119.979 211.45 119.942C210.906 118.241 209.218 113.874 205.545 111.241Z" fill="#6C63FF"/>
<path d="M220.032 158.835L195.936 156.928C195.224 156.872 194.508 156.957 193.829 157.178C193.149 157.399 192.52 157.753 191.977 158.218C191.434 158.683 190.988 159.251 190.663 159.89C190.339 160.528 190.143 161.225 190.087 161.939C190.031 162.653 190.115 163.372 190.336 164.053C190.556 164.735 190.909 165.366 191.372 165.911C191.836 166.456 192.402 166.904 193.039 167.23C193.675 167.555 194.369 167.752 195.081 167.808L219.177 169.715C220.615 169.829 222.039 169.365 223.136 168.425C224.233 167.486 224.913 166.147 225.026 164.704C225.14 163.262 224.677 161.833 223.741 160.732C222.804 159.631 221.47 158.949 220.032 158.835Z" fill="#6C63FF"/>
<path d="M333.661 110.053L198.562 99.3593C196.991 99.2352 195.41 99.4228 193.911 99.9115C192.412 100.4 191.024 101.18 189.825 102.207C188.626 103.234 187.641 104.488 186.925 105.898C186.21 107.307 185.778 108.844 185.654 110.42L180.459 176.461C180.209 179.646 181.23 182.8 183.297 185.23C185.365 187.659 188.31 189.166 191.484 189.418L326.583 200.112C328.154 200.236 329.735 200.049 331.234 199.56C332.733 199.071 334.121 198.291 335.32 197.264C336.519 196.237 337.504 194.983 338.22 193.574C338.935 192.165 339.367 190.628 339.491 189.051L344.428 126.282L344.528 125L344.685 123.005C344.809 121.428 344.622 119.842 344.135 118.338C343.648 116.834 342.87 115.441 341.846 114.238C340.823 113.035 339.573 112.047 338.169 111.329C336.764 110.611 335.233 110.177 333.661 110.053ZM329.672 167.512L328.816 178.392C328.659 180.314 327.751 182.095 326.289 183.346C324.828 184.598 322.931 185.218 321.015 185.071L302.941 183.642C301.026 183.485 299.251 182.573 298.004 181.107C296.756 179.64 296.138 177.738 296.285 175.815L297.141 164.935C297.298 163.014 298.207 161.233 299.668 159.982C301.13 158.73 303.026 158.11 304.941 158.257L323.009 159.687C324.924 159.845 326.7 160.756 327.948 162.222C329.196 163.688 329.816 165.589 329.672 167.512ZM188.891 161.839C189.031 160.078 189.862 158.445 191.2 157.298C192.539 156.151 194.276 155.584 196.031 155.721L220.127 157.629C220.997 157.697 221.846 157.936 222.624 158.332C223.402 158.729 224.095 159.276 224.663 159.941C225.231 160.607 225.662 161.378 225.933 162.211C226.203 163.043 226.307 163.922 226.239 164.795C226.171 165.668 225.933 166.519 225.537 167.3C225.141 168.081 224.595 168.775 223.932 169.344C223.268 169.914 222.499 170.346 221.669 170.617C220.839 170.887 219.963 170.991 219.093 170.922L219.081 170.926L194.985 169.017C194.115 168.948 193.267 168.708 192.49 168.309C191.712 167.911 191.021 167.363 190.455 166.696C189.888 166.029 189.459 165.257 189.191 164.424C188.922 163.59 188.821 162.712 188.891 161.839ZM194.049 108.026L193.885 107.35L194.578 107.286C194.849 107.257 201.258 106.679 206.248 110.255C211.237 113.831 212.767 120.106 212.834 120.368L212.992 121.046L212.301 121.116C211.319 121.189 210.333 121.182 209.352 121.096C206.233 120.913 203.22 119.892 200.629 118.14C195.64 114.564 194.11 108.29 194.049 108.026Z" fill="#6C63FF"/>
<path d="M309.402 174.728L301.571 174.108C301.012 174.065 300.46 174.246 300.034 174.611C299.608 174.976 299.344 175.496 299.3 176.057C299.256 176.617 299.435 177.172 299.799 177.6C300.162 178.028 300.68 178.294 301.238 178.339L309.07 178.959C309.628 179.002 310.181 178.821 310.607 178.456C311.033 178.09 311.297 177.57 311.341 177.01C311.385 176.449 311.205 175.894 310.842 175.466C310.479 175.039 309.961 174.773 309.402 174.728Z" fill="#6C63FF"/>
<path d="M323.86 175.872L316.029 175.252C315.47 175.209 314.918 175.39 314.492 175.756C314.067 176.121 313.803 176.641 313.759 177.201C313.715 177.761 313.894 178.316 314.257 178.744C314.62 179.172 315.138 179.438 315.696 179.483L323.527 180.103C324.086 180.146 324.638 179.965 325.064 179.599C325.489 179.234 325.753 178.714 325.797 178.154C325.841 177.594 325.662 177.039 325.299 176.611C324.935 176.183 324.418 175.918 323.86 175.872Z" fill="#6C63FF"/>
<path d="M309.83 169.288L301.999 168.668C301.44 168.625 300.888 168.806 300.462 169.172C300.037 169.537 299.773 170.057 299.729 170.617C299.685 171.177 299.864 171.732 300.227 172.16C300.591 172.588 301.108 172.853 301.666 172.899L309.497 173.519C310.056 173.562 310.609 173.381 311.035 173.016C311.46 172.65 311.724 172.13 311.768 171.57C311.812 171.009 311.633 170.454 311.27 170.027C310.906 169.599 310.388 169.333 309.83 169.288Z" fill="#6C63FF"/>
<path d="M324.288 170.432L316.456 169.812C315.898 169.769 315.345 169.95 314.919 170.315C314.493 170.681 314.23 171.201 314.185 171.761C314.141 172.322 314.321 172.877 314.684 173.305C315.048 173.732 315.565 173.998 316.124 174.043L323.955 174.663C324.514 174.706 325.067 174.525 325.492 174.16C325.918 173.795 326.182 173.275 326.226 172.714C326.27 172.154 326.091 171.599 325.727 171.171C325.364 170.743 324.846 170.477 324.288 170.432Z" fill="#6C63FF"/>
<path d="M310.258 163.848L302.426 163.228C301.868 163.185 301.315 163.366 300.889 163.731C300.463 164.097 300.199 164.617 300.155 165.177C300.111 165.737 300.291 166.293 300.654 166.72C301.017 167.148 301.535 167.414 302.094 167.459L309.925 168.079C310.483 168.122 311.036 167.941 311.461 167.575C311.887 167.21 312.15 166.69 312.194 166.13C312.239 165.57 312.059 165.015 311.696 164.587C311.333 164.159 310.816 163.893 310.258 163.848Z" fill="#6C63FF"/>
<path d="M324.715 164.992L316.884 164.372C316.326 164.33 315.773 164.511 315.348 164.876C314.922 165.241 314.659 165.761 314.614 166.321C314.57 166.882 314.75 167.436 315.113 167.864C315.476 168.292 315.993 168.558 316.551 168.603L324.383 169.223C324.941 169.266 325.494 169.085 325.919 168.719C326.344 168.354 326.608 167.834 326.652 167.274C326.696 166.714 326.517 166.159 326.154 165.731C325.791 165.304 325.273 165.038 324.715 164.992Z" fill="#6C63FF"/>
<path d="M183.646 131.258L183.545 132.544L342.134 145.043L342.235 143.758L183.646 131.258Z" fill="white"/>
<path d="M344.528 125L344.428 126.283L338.909 125.848L280.104 121.213L280.21 119.929L339.008 124.565L344.528 125Z" fill="#3F3D56"/>
<path d="M150.656 111.369C150.656 111.369 142.071 147.739 152.564 147.739C163.056 147.739 187.857 106.584 187.857 106.584L179.272 96.056L163.863 117.521L163.056 106.584L150.656 111.369Z" fill="#A0616A"/>
<path d="M185.569 108.165C190.182 108.165 193.921 104.413 193.921 99.7852C193.921 95.1572 190.182 91.4054 185.569 91.4054C180.957 91.4054 177.218 95.1572 177.218 99.7852C177.218 104.413 180.957 108.165 185.569 108.165Z" fill="#A0616A"/>
<path d="M171.913 80.7426L166.189 75.0001C166.189 75.0001 154.743 81.6997 153.789 88.3994C152.835 95.099 148.066 116.155 148.066 116.155L165.712 117.591L171.436 108.977L171.913 80.7426Z" fill="#E6E6E6"/>
</g>
<defs>
<clipPath id="clip0_12_108">
<rect width="581" height="378" fill="white"/>
</clipPath>
</defs>
</svg>
