<svg width="527" height="376" viewBox="0 0 527 376" fill="none" xmlns="http://www.w3.org/2000/svg">
<g clip-path="url(#clip0_25_191)">
<path d="M481.209 338.245C485.831 346.42 481.912 374.033 481.912 374.033C481.912 374.033 456.246 363.161 451.624 354.989C449.41 351.064 448.844 346.419 450.051 342.077C451.257 337.734 454.137 334.048 458.058 331.829C461.979 329.61 466.62 329.039 470.961 330.242C475.302 331.445 478.988 334.324 481.209 338.245V338.245Z" fill="#F1F1F1"/>
<path d="M482.284 373.998L481.739 374.112C476.487 349.146 458.148 332.215 457.963 332.047L458.338 331.634C458.524 331.803 476.994 348.849 482.284 373.998Z" fill="white"/>
<path d="M523.206 347.554C516.934 358.939 481.573 374.362 481.573 374.362C481.573 374.362 475.743 336.207 482.011 324.825C485.023 319.359 490.082 315.314 496.075 313.58C502.067 311.846 508.503 312.565 513.965 315.579C519.428 318.593 523.471 323.655 525.203 329.652C526.936 335.648 526.218 342.088 523.206 347.554Z" fill="#F1F1F1"/>
<path d="M481.885 374.775L481.354 374.216C506.942 349.899 513.566 315.984 513.63 315.644L514.387 315.787C514.323 316.129 507.659 350.282 481.885 374.775Z" fill="white"/>
<path d="M123.899 261.345C119.852 261.332 115.823 260.81 111.906 259.793L111.134 259.579L110.418 259.22C84.5256 246.23 62.6818 229.071 45.4929 208.221C31.2642 190.86 20.1708 171.149 12.7116 149.973C3.7916 124.621 -0.4998 97.8696 0.0422745 70.9972C0.0532125 70.4331 0.0624695 69.9976 0.0624695 69.6975C0.0624695 56.6347 7.30858 45.173 18.5227 40.4973C27.1055 36.9188 105.033 4.88979 110.663 2.57561C121.267 -2.74101 132.579 1.69654 134.39 2.47255C138.45 4.13381 210.489 33.6181 226.057 41.0359C242.101 48.6809 246.382 62.4149 246.382 69.3246C246.382 100.607 240.967 129.844 230.289 156.221C221.665 177.572 209.443 197.283 194.154 214.496C164.655 247.714 135.149 259.489 134.864 259.593C131.338 260.807 127.628 261.4 123.899 261.345ZM116.96 244.146C119.518 244.72 125.408 245.581 129.246 244.179C134.123 242.4 158.819 229.585 181.897 203.597C213.783 167.691 229.962 122.554 229.985 69.4401C229.928 68.364 229.165 60.6891 219.008 55.8495C203.742 48.5753 128.863 17.9374 128.109 17.6286L127.902 17.5408C126.333 16.8828 121.339 15.4968 117.896 17.3019L117.207 17.6235C116.372 17.9665 33.6514 51.9641 24.8292 55.6424C18.6578 58.2155 16.4589 64.59 16.4589 69.6976C16.4589 70.0708 16.4493 70.6137 16.4356 71.3155C15.7305 107.658 24.1349 197.086 116.96 244.146Z" fill="#3F3D56"/>
<path d="M114.092 10.0349C114.092 10.0349 30.6196 44.341 21.6761 48.0699C12.7326 51.7988 8.2608 60.7482 8.2608 69.6976C8.2608 78.647 1.55318 195.425 114.092 251.886C114.092 251.886 124.306 254.714 132.056 251.886C139.805 249.058 238.184 201.328 238.184 69.3247C238.184 69.3247 238.184 55.9006 222.532 48.4428C206.881 40.9849 131.211 10.0349 131.211 10.0349C131.211 10.0349 121.918 5.93313 114.092 10.0349Z" fill="#6C63FF"/>
<path opacity="0.1" d="M123.036 36.8831V219.893C123.036 219.893 38.8178 179.328 39.5631 72.6806L123.036 36.8831Z" fill="black"/>
<path d="M124.134 168.415L97.3065 133.898L112.908 121.756L125.611 138.099L168.523 92.769L182.873 106.374L124.134 168.415Z" fill="white"/>
<path d="M526.357 376H281.217C281.046 376 280.882 375.932 280.762 375.811C280.641 375.691 280.573 375.527 280.573 375.356C280.573 375.185 280.641 375.022 280.762 374.901C280.882 374.78 281.046 374.712 281.217 374.712H526.357C526.527 374.712 526.691 374.78 526.812 374.901C526.932 375.022 527 375.185 527 375.356C527 375.527 526.932 375.691 526.812 375.811C526.691 375.932 526.527 376 526.357 376Z" fill="#CACACA"/>
<path d="M352.079 365.851L362.029 365.851L366.764 327.444L352.077 327.444L352.079 365.851Z" fill="#FFB8B8"/>
<path d="M349.541 362.6L369.137 362.599H369.138C372.45 362.6 375.627 363.916 377.969 366.26C380.311 368.603 381.627 371.782 381.627 375.096V375.502L349.541 375.503L349.541 362.6Z" fill="#2F2E41"/>
<path d="M385.536 365.851L395.487 365.851L400.221 327.444L385.535 327.444L385.536 365.851Z" fill="#FFB8B8"/>
<path d="M382.998 362.6L402.595 362.599H402.596C405.908 362.6 409.084 363.916 411.426 366.26C413.768 368.603 415.084 371.782 415.084 375.096V375.502L382.999 375.503L382.998 362.6Z" fill="#2F2E41"/>
<path d="M367.719 230.976L370.106 352.822L350.797 351.624L337.401 274.015L333.17 221.098L367.719 230.976Z" fill="#2F2E41"/>
<path d="M400.858 210.516L403.564 354.753L381.044 354.11L376.18 268.37L367.719 237.326L333.17 221.099L338.811 182.294L389.576 181.588L400.858 210.516Z" fill="#2F2E41"/>
<path d="M362.032 81.4016C371.569 81.4016 379.301 73.6654 379.301 64.1222C379.301 54.579 371.569 46.8428 362.032 46.8428C352.496 46.8428 344.764 54.579 344.764 64.1222C344.764 73.6654 352.496 81.4016 362.032 81.4016Z" fill="#FFB8B8"/>
<path d="M376.355 88.6807L379 92.6905L386.051 112.445L380.41 189.349L347.272 190.055L343.042 101.862L351.903 90.7776L376.355 88.6807Z" fill="#CCCCCC"/>
<path d="M329.645 103.979L324.004 103.273C324.004 103.273 322.594 103.979 321.889 108.918C321.184 113.856 312.723 157.6 312.723 157.6L324.004 211.221L336.696 194.288L328.94 164.655L336.696 135.023L329.645 103.979Z" fill="#2F2E41"/>
<path d="M401.563 103.274H405.793L416.369 160.422L406.498 204.871L396.627 188.644L399.447 171.005L398.037 155.484L393.102 146.311L401.563 103.274Z" fill="#2F2E41"/>
<path d="M372.236 64.1221L369.097 63.3367C369.097 63.3367 366.742 49.9844 361.248 51.5553C355.753 53.1261 341.625 54.697 341.625 48.4136C341.625 42.1301 354.968 36.6321 362.817 37.4176C370.666 38.203 380.691 40.8086 383.225 52.3407C387.287 70.8271 374.844 75.4965 374.844 75.4965L375.051 74.8235C375.626 72.9546 375.667 70.962 375.17 69.0709C374.672 67.1799 373.656 65.4657 372.236 64.1221Z" fill="#2F2E41"/>
<path d="M324.709 103.273L347.272 94.1014L352.56 90.2209L368.424 160.422L375.827 88.1042L405.088 103.273L395.217 151.25L393.807 169.594L398.037 184.411C398.037 184.411 412.844 194.994 407.908 206.282C402.973 217.571 397.332 218.277 397.332 218.277C397.332 218.277 373.36 195.699 371.95 190.055C370.539 184.411 368.424 174.533 368.424 174.533C368.424 174.533 356.438 219.688 342.336 218.982C328.235 218.276 328.235 203.46 328.235 203.46L331.76 187.938L337.401 171.711L334.58 144.9L324.709 103.273Z" fill="#2F2E41"/>
</g>
<defs>
<clipPath id="clip0_25_191">
<rect width="527" height="376" fill="white"/>
</clipPath>
</defs>
</svg>
