<svg width="58" height="58" viewBox="0 0 58 58" fill="none" xmlns="http://www.w3.org/2000/svg">
<path d="M0 9.0625C0 6.65898 0.954796 4.35389 2.65434 2.65434C4.35389 0.954796 6.65898 0 9.0625 0H44.1042C46.5077 0 48.8128 0.954796 50.5123 2.65434C52.2119 4.35389 53.1667 6.65898 53.1667 9.0625V27.7917C52.0446 26.9477 50.8281 26.2373 49.5417 25.6747V9.0625C49.5417 7.62039 48.9688 6.23734 47.9491 5.21761C46.9293 4.19788 45.5463 3.625 44.1042 3.625H9.0625C7.62039 3.625 6.23734 4.19788 5.21761 5.21761C4.19788 6.23734 3.625 7.62039 3.625 9.0625V44.1042C3.625 45.5463 4.19788 46.9293 5.21761 47.9491C6.23734 48.9688 7.62039 49.5417 9.0625 49.5417H25.6747C26.2402 50.8346 26.9531 52.0502 27.7892 53.1667H9.0625C6.65898 53.1667 4.35389 52.2119 2.65434 50.5123C0.954796 48.8128 0 46.5077 0 44.1042V9.0625ZM44.1042 24.1667C44.5849 24.1667 45.0459 23.9757 45.3858 23.6358C45.7257 23.2959 45.9167 22.8349 45.9167 22.3542C45.9167 21.8735 45.7257 21.4124 45.3858 21.0725C45.0459 20.7326 44.5849 20.5417 44.1042 20.5417H25.9792C25.4985 20.5417 25.0374 20.7326 24.6975 21.0725C24.3576 21.4124 24.1667 21.8735 24.1667 22.3542C24.1667 22.8349 24.3576 23.2959 24.6975 23.6358C25.0374 23.9757 25.4985 24.1667 25.9792 24.1667H44.1042ZM7.25 10.2708C7.25 9.79013 7.44096 9.32911 7.78087 8.9892C8.12078 8.64929 8.5818 8.45833 9.0625 8.45833H44.1042C44.5849 8.45833 45.0459 8.64929 45.3858 8.9892C45.7257 9.32911 45.9167 9.79013 45.9167 10.2708C45.9167 10.7515 45.7257 11.2126 45.3858 11.5525C45.0459 11.8924 44.5849 12.0833 44.1042 12.0833H9.0625C8.5818 12.0833 8.12078 11.8924 7.78087 11.5525C7.44096 11.2126 7.25 10.7515 7.25 10.2708ZM13.2917 16.9167C11.6893 16.9167 10.1526 17.5532 9.01956 18.6862C7.88653 19.8193 7.25 21.356 7.25 22.9583C7.25 24.5607 7.88653 26.0974 9.01956 27.2304C10.1526 28.3635 11.6893 29 13.2917 29C14.894 29 16.4307 28.3635 17.5638 27.2304C18.6968 26.0974 19.3333 24.5607 19.3333 22.9583C19.3333 21.356 18.6968 19.8193 17.5638 18.6862C16.4307 17.5532 14.894 16.9167 13.2917 16.9167ZM10.875 22.9583C10.875 22.3174 11.1296 21.7027 11.5828 21.2495C12.036 20.7963 12.6507 20.5417 13.2917 20.5417C13.9326 20.5417 14.5473 20.7963 15.0005 21.2495C15.4537 21.7027 15.7083 22.3174 15.7083 22.9583C15.7083 23.5993 15.4537 24.214 15.0005 24.6672C14.5473 25.1204 13.9326 25.375 13.2917 25.375C12.6507 25.375 12.036 25.1204 11.5828 24.6672C11.1296 24.214 10.875 23.5993 10.875 22.9583ZM7.25 39.875C7.25 38.2727 7.88653 36.7359 9.01956 35.6029C10.1526 34.4699 11.6893 33.8333 13.2917 33.8333C14.894 33.8333 16.4307 34.4699 17.5638 35.6029C18.6968 36.7359 19.3333 38.2727 19.3333 39.875C19.3333 41.4774 18.6968 43.0141 17.5638 44.1471C16.4307 45.2801 14.894 45.9167 13.2917 45.9167C11.6893 45.9167 10.1526 45.2801 9.01956 44.1471C7.88653 43.0141 7.25 41.4774 7.25 39.875ZM13.2917 37.4583C12.6507 37.4583 12.036 37.7129 11.5828 38.1662C11.1296 38.6194 10.875 39.2341 10.875 39.875C10.875 40.5159 11.1296 41.1306 11.5828 41.5838C12.036 42.0371 12.6507 42.2917 13.2917 42.2917C13.9326 42.2917 14.5473 42.0371 15.0005 41.5838C15.4537 41.1306 15.7083 40.5159 15.7083 39.875C15.7083 39.2341 15.4537 38.6194 15.0005 38.1662C14.5473 37.7129 13.9326 37.4583 13.2917 37.4583ZM58 42.2917C58 46.4578 56.345 50.4533 53.3991 53.3991C50.4533 56.345 46.4578 58 42.2917 58C38.1256 58 34.1301 56.345 31.1842 53.3991C28.2383 50.4533 26.5833 46.4578 26.5833 42.2917C26.5833 38.1256 28.2383 34.1301 31.1842 31.1842C34.1301 28.2383 38.1256 26.5833 42.2917 26.5833C46.4578 26.5833 50.4533 28.2383 53.3991 31.1842C56.345 34.1301 58 38.1256 58 42.2917ZM43.5 32.625C43.5 32.3045 43.3727 31.9972 43.1461 31.7706C42.9195 31.544 42.6121 31.4167 42.2917 31.4167C41.9712 31.4167 41.6639 31.544 41.4372 31.7706C41.2106 31.9972 41.0833 32.3045 41.0833 32.625V41.0833H32.625C32.3045 41.0833 31.9972 41.2106 31.7706 41.4372C31.544 41.6639 31.4167 41.9712 31.4167 42.2917C31.4167 42.6121 31.544 42.9195 31.7706 43.1461C31.9972 43.3727 32.3045 43.5 32.625 43.5H41.0833V51.9583C41.0833 52.2788 41.2106 52.5862 41.4372 52.8128C41.6639 53.0394 41.9712 53.1667 42.2917 53.1667C42.6121 53.1667 42.9195 53.0394 43.1461 52.8128C43.3727 52.5862 43.5 52.2788 43.5 51.9583V43.5H51.9583C52.2788 43.5 52.5862 43.3727 52.8128 43.1461C53.0394 42.9195 53.1667 42.6121 53.1667 42.2917C53.1667 41.9712 53.0394 41.6639 52.8128 41.4372C52.5862 41.2106 52.2788 41.0833 51.9583 41.0833H43.5V32.625Z" fill="#3131C6"/>
</svg>
